<svg width="186" height="43" viewBox="0 0 186 43" fill="none" xmlns="http://www.w3.org/2000/svg">
<g clip-path="url(#clip0_7822_23302)">
<path fill-rule="evenodd" clip-rule="evenodd" d="M42.7287 28.6565C41.8139 28.2605 40.9786 27.6963 40.2626 26.9836C39.5367 26.2709 38.9699 25.4394 38.592 24.5089C38.1744 23.5487 37.9656 22.549 37.9656 21.4898C37.9656 17.2235 41.4758 13.749 45.7516 13.749C46.9648 13.749 48.1779 14.046 49.2419 14.5805C50.3059 15.0952 51.2705 15.9168 51.9765 16.877L52.3146 17.2928L50.0772 18.9359L49.759 18.5202C48.8243 17.2532 47.3526 16.5207 45.7516 16.5207C42.9972 16.5207 40.7399 18.7479 40.7399 21.4898C40.7399 24.2318 42.9972 26.5085 45.7516 26.5085C47.3327 26.5085 48.8044 25.776 49.759 24.5089L50.0772 24.113L52.2847 25.7364L51.9467 26.1521C51.2207 27.1321 50.296 27.9042 49.2121 28.4486C48.1481 28.993 46.9548 29.2603 45.7516 29.2603C44.7075 29.2603 43.6833 29.0524 42.7187 28.6565H42.7287ZM54.5022 14.2143H57.2964V29.0326H54.5022V14.2143ZM69.7661 29.0227L63.1733 19.3022V29.0227H60.3691V14.2044H63.0838L69.6567 23.9051V14.2044H72.4608V29.0227H69.7661ZM75.5136 29.0227V14.2044H85.2984V16.9067H78.3078V19.0844H84.4034V21.8561H78.3078V26.261H85.1094V29.0128H75.5136V29.0227ZM98.3944 29.0227V19.1141L94.5064 24.4L90.6482 19.1141V29.0227H87.8738V14.2044H90.4791L94.5064 19.7179L98.5436 14.2044H101.169V29.0227H98.3944ZM113.519 29.0227L111.998 25.0237H107.065L105.524 29.0227H102.541L108.259 14.2044H110.785L116.522 29.0227H113.519ZM110.904 22.2916L109.532 18.6885L108.149 22.2916H110.904ZM127.073 29.0227L121.792 21.7769H120.599V29.0227H117.884V14.2044H124.825C125.83 14.2044 126.764 14.6003 127.49 15.3229C128.226 16.0554 128.624 16.9958 128.624 17.9857C128.624 19.4606 127.53 21.4304 125.114 21.8066L130.364 29.0128H127.073V29.0227ZM124.835 19.0745C125.422 19.0745 125.929 18.5994 125.929 17.9956C125.929 17.3917 125.422 16.9166 124.835 16.9166H120.609V19.0745H124.835ZM142.436 29.0227L136.897 21.2819L134.521 23.529V29.0227H131.746V14.2044H134.521V19.7575L140.447 14.2044H144.454L139.015 19.3418L145.926 29.0128H142.436V29.0227ZM147.239 15.2437C147.239 15.2437 147.249 15.2239 147.249 15.214C147.408 14.8874 147.557 14.5607 147.706 14.2242C147.706 14.2143 147.716 14.2044 147.746 14.2044C147.835 14.2044 147.925 14.2044 148.014 14.2044C148.024 14.2044 148.034 14.2044 148.034 14.2242V15.6298C148.034 15.6298 148.034 15.6496 148.014 15.6496C147.935 15.6496 147.855 15.6496 147.776 15.6496C147.756 15.6496 147.746 15.6496 147.746 15.6298V14.7983C147.746 14.7983 147.746 14.7785 147.746 14.7686C147.716 14.8379 147.676 14.9072 147.646 14.9765C147.547 15.1942 147.448 15.4021 147.358 15.6199C147.358 15.6397 147.338 15.6397 147.318 15.6397C147.269 15.6397 147.219 15.6397 147.159 15.6397C147.129 15.6397 147.119 15.6397 147.109 15.61C146.99 15.3328 146.861 15.0557 146.732 14.7785C146.732 14.7785 146.732 14.7785 146.722 14.7686V15.61C146.722 15.61 146.722 15.6496 146.682 15.6496C146.602 15.6496 146.533 15.6496 146.453 15.6496C146.433 15.6496 146.423 15.6496 146.423 15.6298C146.423 15.1645 146.423 14.6993 146.423 14.2242C146.423 14.2143 146.423 14.2044 146.453 14.2044C146.543 14.2044 146.632 14.2044 146.722 14.2044C146.732 14.2044 146.742 14.2044 146.751 14.2242C146.911 14.5508 147.06 14.8775 147.209 15.214C147.209 15.214 147.209 15.2338 147.219 15.2437H147.239ZM145.588 14.2143C145.797 14.2143 146.016 14.2143 146.224 14.2143C146.244 14.2143 146.254 14.2143 146.254 14.244C146.254 14.3133 146.254 14.3825 146.254 14.4518C146.254 14.4716 146.254 14.4815 146.214 14.4815H145.747C145.747 14.4815 145.707 14.4815 145.707 14.5112C145.707 14.8874 145.707 15.2635 145.707 15.6298C145.707 15.6595 145.707 15.6595 145.668 15.6595H145.449C145.449 15.6595 145.409 15.6595 145.409 15.6298V14.5112C145.409 14.5112 145.409 14.4716 145.369 14.4716H144.902C144.902 14.4716 144.872 14.4716 144.872 14.4419V14.2341C144.872 14.2341 144.872 14.2044 144.902 14.2044C145.121 14.2044 145.329 14.2044 145.548 14.2044L145.588 14.2143Z" fill="#1E1E1E"/>
<path d="M42.7287 28.6565C41.8139 28.2605 40.9786 27.6963 40.2626 26.9836C39.5367 26.2709 38.9699 25.4394 38.592 24.5089C38.1744 23.5487 37.9656 22.549 37.9656 21.4898C37.9656 17.2235 41.4758 13.749 45.7516 13.749C46.9648 13.749 48.1779 14.046 49.2419 14.5805C50.3059 15.0952 51.2705 15.9168 51.9765 16.877L52.3146 17.2928L50.0772 18.9359L49.759 18.5202C48.8243 17.2532 47.3526 16.5207 45.7516 16.5207C42.9972 16.5207 40.7399 18.7479 40.7399 21.4898C40.7399 24.2318 42.9972 26.5085 45.7516 26.5085C47.3327 26.5085 48.8044 25.776 49.759 24.5089L50.0772 24.113L52.2847 25.7364L51.9467 26.1521C51.2207 27.1321 50.296 27.9042 49.2121 28.4486C48.1481 28.993 46.9548 29.2603 45.7516 29.2603C44.7075 29.2603 43.6833 29.0524 42.7187 28.6565H42.7287ZM54.5022 14.2143H57.2964V29.0326H54.5022V14.2143ZM69.7661 29.0227L63.1733 19.3022V29.0227H60.3691V14.2044H63.0838L69.6567 23.9051V14.2044H72.4608V29.0227H69.7661ZM75.5136 29.0227V14.2044H85.2984V16.9067H78.3078V19.0844H84.4034V21.8561H78.3078V26.261H85.1094V29.0128H75.5136V29.0227ZM98.3944 29.0227V19.1141L94.5064 24.4L90.6482 19.1141V29.0227H87.8738V14.2044H90.4791L94.5064 19.7179L98.5436 14.2044H101.169V29.0227H98.3944ZM113.519 29.0227L111.998 25.0237H107.065L105.524 29.0227H102.541L108.259 14.2044H110.785L116.522 29.0227H113.519ZM110.904 22.2916L109.532 18.6885L108.149 22.2916H110.904ZM127.073 29.0227L121.792 21.7769H120.599V29.0227H117.884V14.2044H124.825C125.83 14.2044 126.764 14.6003 127.49 15.3229C128.226 16.0554 128.624 16.9958 128.624 17.9857C128.624 19.4606 127.53 21.4304 125.114 21.8066L130.364 29.0128H127.073V29.0227ZM124.835 19.0745C125.422 19.0745 125.929 18.5994 125.929 17.9956C125.929 17.3917 125.422 16.9166 124.835 16.9166H120.609V19.0745H124.835ZM142.436 29.0227L136.897 21.2819L134.521 23.529V29.0227H131.746V14.2044H134.521V19.7575L140.447 14.2044H144.454L139.015 19.3418L145.926 29.0128H142.436V29.0227ZM147.239 15.2437C147.239 15.2437 147.249 15.2239 147.249 15.214C147.408 14.8874 147.557 14.5607 147.706 14.2242C147.706 14.2143 147.716 14.2044 147.746 14.2044C147.835 14.2044 147.925 14.2044 148.014 14.2044C148.024 14.2044 148.034 14.2044 148.034 14.2242V15.6298C148.034 15.6298 148.034 15.6496 148.014 15.6496C147.935 15.6496 147.855 15.6496 147.776 15.6496C147.756 15.6496 147.746 15.6496 147.746 15.6298V14.7983C147.746 14.7983 147.746 14.7785 147.746 14.7686C147.716 14.8379 147.676 14.9072 147.646 14.9765C147.547 15.1942 147.448 15.4021 147.358 15.6199C147.358 15.6397 147.338 15.6397 147.318 15.6397C147.269 15.6397 147.219 15.6397 147.159 15.6397C147.129 15.6397 147.119 15.6397 147.109 15.61C146.99 15.3328 146.861 15.0557 146.732 14.7785C146.732 14.7785 146.732 14.7785 146.722 14.7686V15.61C146.722 15.61 146.722 15.6496 146.682 15.6496C146.602 15.6496 146.533 15.6496 146.453 15.6496C146.433 15.6496 146.423 15.6496 146.423 15.6298C146.423 15.1645 146.423 14.6993 146.423 14.2242C146.423 14.2143 146.423 14.2044 146.453 14.2044C146.543 14.2044 146.632 14.2044 146.722 14.2044C146.732 14.2044 146.742 14.2044 146.751 14.2242C146.911 14.5508 147.06 14.8775 147.209 15.214C147.209 15.214 147.209 15.2338 147.219 15.2437H147.239ZM145.588 14.2143C145.797 14.2143 146.016 14.2143 146.224 14.2143C146.244 14.2143 146.254 14.2143 146.254 14.244C146.254 14.3133 146.254 14.3825 146.254 14.4518C146.254 14.4716 146.254 14.4815 146.214 14.4815H145.747C145.747 14.4815 145.707 14.4815 145.707 14.5112C145.707 14.8874 145.707 15.2635 145.707 15.6298C145.707 15.6595 145.707 15.6595 145.668 15.6595H145.449C145.449 15.6595 145.409 15.6595 145.409 15.6298V14.5112C145.409 14.5112 145.409 14.4716 145.369 14.4716H144.902C144.902 14.4716 144.872 14.4716 144.872 14.4419V14.2341C144.872 14.2341 144.872 14.2044 144.902 14.2044C145.121 14.2044 145.329 14.2044 145.548 14.2044L145.588 14.2143Z" fill="#1E1E1E"/>
</g>
<defs>
<clipPath id="clip0_7822_23302">
<rect width="186" height="43" fill="white"/>
</clipPath>
</defs>
</svg>
