<?xml version="1.0" encoding="utf-8"?>
<!-- Generator: Adobe Illustrator 25.0.0, SVG Export Plug-In . SVG Version: 6.00 Build 0)  -->
<svg version="1.1" id="Capa_1" xmlns="http://www.w3.org/2000/svg" xmlns:xlink="http://www.w3.org/1999/xlink" x="0px" y="0px"
	 viewBox="0 0 100 100" style="enable-background:new 0 0 100 100;" xml:space="preserve">
<style type="text/css">
	.st0{fill:#003AFC;}
	.st1{fill:none;}
</style>
<g id="Capa_2_1_">
	<g id="Capa_1-2">
		<path class="st0" d="M20.6,41.8h-0.4c-0.3,0-0.6,0-0.6,0l-0.3,0l-0.2-0.3l-0.7-0.6L18,40.9c0,0-0.3,0-0.5,0c-0.1,0,0.1,0-0.4,0
			s-0.7,0-0.7,0L15.9,41h-0.3l-0.7,0.6l-0.2,0.3v0.4l-0.6,0.1l-0.2,0.4l-0.3,0.7l-1,0.4l-0.2,0.4l-0.7,0.1l-0.4,0.2L10.8,45
			l-0.2,0.5l-0.1,0.4l-0.1,0.4l-0.6,0.6c0,0-0.3,0-0.4,0s-0.3,0-0.3,0l-0.2,0.3c0,0-0.2,0.3-0.3,0.3c-0.1,0.1-0.7,0.8-0.7,0.8
			L7.5,49v0.5l0,0.4l0.1,0.7c0,0.3,0,0.7,0,0.7l0,0.6l0.1,0.4c0,0,6,2.7,7.1,3.5s1.3,0.9,1.3,0.9s0.3,0,0.4,0.1
			c0.1,0.1,0.2,0.4,0.3,0.6s0,0.3,0,0.6c0,0.2,0,0.2,0,0.2s-0.2-0.7,0,0s0.7,1.6,0.7,1.6s0.1,0.1,0.3,0.1s0.4,0,0.4,0l2.1,0.4h0.4
			c0,0,0.4,0,0.5,0c0.1,0,0.6,0,0.6,0s1.2,0,1.3,0c0.1,0,0.4,0,0.9,0c0.5,0,1.1,0,1.1,0l0.5,0l0.6,0.1c0,0-0.2,0.1,0.3,0.1
			c0.5,0,0.8,0,1,0c0.2,0,1.4,0.4,1.4,0.4c0.4,0,1.2,0,1.7,0c0.5,0,1.1,0,1.8,0c0.7,0,1.1,0.1,1.1,0.1c0.7,0,1.3,0.1,1.5,0.1
			c0.2,0,0.2,0,0.6,0s1.2,0.5,1.4,0.6c0.3,0.1,1.6,1.1,1.9,1.1c0.3,0,0.9,0.4,1.3,0.4s0.8,0.1,0.9,0.2c0.1,0.1,0.4,0.3,0.6,0.5
			c0,0,0.6,0.7,1,0.9s0.7,0.3,0.9,0.3c0.1,0,0.6,0.1,0.7,0.1c0.2,0,0.3,0.1,0.5,0.1c0.1,0,1,0.9,1,0.9s0.6,0.4,0.8,0.4
			c0,0,0.7,0.4,1.2,0.5c0.6,0.1,0.6,0.1,0.8,0.1c0.2,0,0.7,0.1,1,0.2c0.2,0,0.8,0.3,0.8,0.3s0,0,0.3,0.3c0.3,0.3,0.3,0.3,0.3,0.3
			s0.7,0.5,1,0.7c0.3,0.2,1.4,0.8,1.4,0.8l1.1,0.4c0,0,0.9,0.2,1.1,0.2c0.2,0,0,0,0.4,0s1.1,0.1,1.1,0.1c0.8,0.3,0.9,0.4,1.3,0.4
			s1.2,0.2,1.3,0.2c0.1,0,1.3,0.2,1.4,0.2c0.1,0,0.2,0,0.4,0c0.2,0,0.3,0,0.3,0s0.5,0.2,0.9,0.3c0.3,0.1,0.3,0.1,0.3,0.1l1.8,0.7
			l0.2,0c-0.1-0.3,0-0.3-0.1-0.4c-0.1-0.1-0.2-0.3-0.2-0.3S64,72.2,64,72.2c0,0-0.1,0-0.2,0c-0.1,0-0.3-0.1-0.3-0.1s0-0.2-0.2-0.2
			s-0.2,0-0.2,0c-0.1-0.1-0.3-0.1-0.4-0.1c-0.1,0-0.1,0-0.3,0c-0.1,0-0.3-0.2-0.4-0.2c-0.3,0-0.6-0.1-0.7-0.1c-0.1,0-0.2,0.1-0.3,0
			c-0.1-0.1,0-0.1-0.1-0.1c-0.1,0-0.3,0.3-0.4-0.1c-0.1-0.3,0-0.3-0.1-0.3c-0.1,0-0.4-0.1-0.4-0.1s-0.1,0-0.2-0.1
			c-0.1-0.1-0.2-0.2-0.3-0.2c0,0-0.3-0.1-0.3-0.1s-0.3,0-0.4,0s-0.6,0-0.7,0c0,0-0.3-0.2-0.3-0.2l-0.1,0c0,0,0,0-0.1,0s-0.4,0-0.5,0
			c-0.1,0-0.2-0.2-0.3-0.1c-0.1,0-0.4,0-0.4,0c0-0.2-0.1-0.4-0.1-0.4c0.2,0-0.2,0,0.2,0c0.4,0,0.5,0,0.6,0s0.1-0.1,0.1-0.1
			s0,0,0.5,0s0.6,0.1,0.6,0s0.4-0.1,0.4-0.1h0.4c0,0,0.1-0.2,0-0.2c-0.1,0-0.5-0.2-0.5-0.2s-0.3-0.1-0.1-0.1c0.2,0,0.6-0.1,0.6-0.1
			c0-0.1-0.4-0.7-0.2-0.7c0.2,0,0.3,0,0.4,0.2c0.2,0.2,0.2,0.2,0.3,0.3c0.1,0,0.1-0.1,0.1,0c0,0.1,0.1,0.3,0.3,0.3
			c0.2,0,0.4-0.2,0.8,0.1s0.6,0.3,0.9,0.3c0.2,0,0.2,0,0.2,0s0.2,0,0.3,0c0.1,0,0.2,0.4,0.1,0.4c-0.1-0.1,0.3,0.2,0.4,0.4
			c0.1,0.2,0.1,0.2,0.1,0.2s0,0,0.3,0s0.5,0,0.6,0s0.3,0,0.3,0s0-0.3,0-0.4s0-0.2,0-0.2s0.3-0.3,0.5-0.4c0.2-0.1-0.1-0.1,0.2-0.1
			s0.4,0,0.4,0s0.1-0.1,0.1,0c0,0.1,0,0.2-0.1,0.2c-0.1,0-0.1,0.2-0.1,0.3c0.1,0,0.2,0.3,0.2,0.3s0.4,0.4,0.6,0.5
			c0.2,0.1,0.3,0.1,0.3,0.1s0.1,0.2,0.1,0.3s0.1,0.2,0.2,0.2s0.4,0,0.4,0c0.5,0.1,0.6,0.2,0.6,0.1s0.2,0,0.7,0c0.5,0,0.5,0,0.5,0
			s0.2,0.1,0.2,0s-0.1-0.4-0.1-0.4c0-0.1,0.4-0.2,0.4-0.1c0.1,0.1,0.2,0.3,0.4,0.4c0.2,0.1,0.2-0.1,0.2,0.1c0,0.2,0,0.3,0,0.4
			s0,0.2-0.1,0.2c0,0-0.1,0.1-0.2,0.2c0,0.1,0,0.2,0,0.2s0.1,0.2,0.4,0.2c0.3,0,0.5-0.1,0.9,0.1c0.4,0.1,0.9,0.1,1,0.1
			c0,0,0.5,0,0.6,0s0.5,0.3,0.6,0.3s0.4,0.4,0.8,0.2c0.1,0-0.1,0,0.2,0c0.4-0.1,0.6-0.1,0.6-0.1s0.1,0,0.3,0c0.3,0,0.6,0,0.8,0
			c0.2,0,0.1,0,0.6,0s0.6,0,0.6,0s0.3-0.2,0.7-0.2c0.5,0,0.3,0,0.7,0c0.4,0,1.1,0,1.3,0c0.2,0-0.3,0,0.2,0c0.4,0,1.2,0,1.3,0
			s0.3,0.1,0.3,0.1s0.1,0,0.2,0s0.4,0.1,0.5,0.1c0.1,0,0.3,0,0.4,0s0.8,0.2,0.8,0.2s0.2,0,0.5,0c0.3,0,0.5,0,0.5,0
			c0.2,0,0.3,0,0.3,0h0.2h0.2l0.2-0.1c0,0-0.2-0.3-0.2-0.3c0,0,0,0-0.1,0c-0.1,0-0.1,0-0.1-0.1c-0.1,0-0.2-0.1-0.2-0.2s0-0.4,0-0.4
			c-0.1,0-0.2,0.1-0.3,0.1c-0.1,0-0.2,0-0.3,0c-0.1,0-0.1,0.1-0.1,0c0-0.1,0-0.1,0.1-0.2c0.1-0.1,0.6-0.5,0.6-0.5
			c0.2,0,0.8,0.1,0.9,0c0.1-0.1,0.2-0.2,0.2-0.2s0.1-0.1,0.2-0.1c0.1-0.1,0.1-0.1,0.1-0.1l0.2-0.3c0,0,0-0.1,0.1-0.1
			c0.1,0,0.3,0,0.5,0s0.3,0,0.4-0.1s0.2-0.2,0.2-0.2c0.3-0.2,0.3-0.2,0.4-0.4c0.1-0.2,0.1-0.2,0.1-0.2s-0.1,0,0.2-0.2
			s0.3-0.3,0.3-0.4c0-0.1,0.2-0.4,0.3-0.4c0.1,0,0.3-0.1,0.3-0.1c0-0.1,0-0.2,0-0.2l0.3-0.4l-0.3,0L89,68c-0.2-0.1-0.5-0.3-0.5-0.3
			c0,0,0-0.5,0-0.5c-0.1,0-0.2-0.1-0.4-0.1c-0.2,0-0.1,0.1-0.2,0c-0.1-0.1-0.7-0.4-0.8-0.4c-0.1,0-0.2-0.2-0.3-0.2s-0.1-0.1-0.2-0.2
			c-0.1-0.1-0.1-0.3-0.1-0.3l-0.1-0.2c0.1,0,0.3,0,0.3,0s0.1-0.1,0.2-0.1c0.1,0,0.3-0.2,0.3-0.2S87,65.2,87,65.2c0,0,0,0-0.2,0
			c-0.1,0-0.3,0-0.3,0h-0.1L86.2,65l0.1-0.1l0-0.2c0,0,0,0,0.1-0.2c0.2-0.2,0.4-0.6,0.4-0.6l0.3-0.3c0,0,0.2,0,0.2-0.1
			s-0.1,0.1,0-0.1c0.1-0.2,0.2-0.3,0.2-0.3l0.4-0.2c0,0,0,0.1,0,0.2s-0.1,0.3-0.1,0.3s0,0.2,0,0.3c0,0,0,0.3,0.1,0.3
			c0.1,0,0.2,0,0.3,0c0.1,0,0.4,0.2,0.4,0.3c0,0.1,0,0.1,0,0.1s0.4,0.5,0.4,0.6c0.1,0.1-0.1,0.2,0.1,0.2c0.2,0,0.4,0,0.4,0
			c0.5,0.1,0.7,0.2,0.7,0.2s0.1,0.1,0.2,0.2c0,0,0.2,0.4,0.2,0.4c0.2,0.1,0.2,0.1,0.3,0.1s0.5,0,0.5,0c0.4,0,0.4,0,0.5,0
			s0.1-0.1,0.3-0.1c0.2,0,0.3-0.1,0.4-0.1s0.2,0,0.2-0.1c0-0.1-0.1-0.2-0.1-0.2s-0.1,0-0.2-0.1c-0.1-0.1-0.1-0.1-0.1-0.1
			c0,0,0-0.4,0-0.4s-0.1-0.1-0.1-0.1l0.2-0.3c0,0,0-0.1,0-0.2s0.1-0.1,0-0.1c-0.1,0-0.2,0-0.2,0.1s-0.1,0.1-0.1,0.1s-0.1,0.1-0.1,0
			s0-0.3,0-0.3S91.9,64,91.8,64c0,0,0.1,0-0.1,0.1c-0.1,0.1-0.2,0.1-0.2,0.1s-0.1,0-0.1-0.2s0-0.2,0-0.2l-0.1-0.3c0,0-0.1-0.3,0-0.3
			c0.1,0,0.1,0,0.3,0.1s0.1,0.1,0.2,0c0.1,0,0.3-0.1,0.3-0.1S92,63,91.9,63c-0.2,0-0.4-0.1-0.4-0.1s0-0.1,0-0.2c0-0.2,0-0.4,0-0.5
			s0-0.3,0-0.3s0-0.2,0-0.3c0-0.1,0-0.3,0-0.5c0-0.2,0-0.2,0-0.2s0.2-0.1,0-0.1s-0.2-0.1-0.3-0.1s-0.4-0.1-0.4-0.1
			c-0.1-0.1-0.4-0.1-0.4-0.2s0,0,0,0s-0.1,0.1-0.1,0.1c-0.1,0-0.1,0.1-0.1,0.1l-0.4,0c0,0-0.1,0-0.3,0s-0.2,0-0.1-0.1s0.3,0,0-0.2
			c-0.3-0.2-0.4-0.3-0.4-0.3c0.1-0.1,0.3-0.1,0.3-0.2s0.1-0.2,0.1-0.2v-0.2c0,0,0,0.2,0-0.2c0-0.4,0-0.7,0-0.7
			c0.1-0.2,0.2-0.3,0.2-0.3c0,0,0-0.4,0-0.4c0.2-0.1,0.2-0.2,0.3-0.3c0-0.1,0.2-0.3,0.3-0.3c0.1,0,0.3,0.1,0.3,0
			c0-0.1,0-0.1,0.1-0.2c0-0.2-0.2-0.7-0.2-0.8c0.1-0.2,0.1-0.2,0.1-0.3s0-0.2,0-0.2c0-0.6,0-0.4,0-0.9c0-0.5,0-0.4,0-0.5
			s0-0.2,0-0.3c0-0.1,0.1-0.3,0.2-0.4c0-0.1,0.4-0.4,0.4-0.4c0-0.1,0.3-0.4,0.3-0.4s0-0.1-0.1-0.2c0-0.2,0-0.2,0-0.3
			c0-0.1,0-0.4,0-0.4s0-0.2,0.1-0.2c0.1,0,0.2-0.2,0.2-0.2s-0.1,0,0.2-0.4c0.3-0.5,0.4-0.6,0.4-0.7s0-0.1,0-0.3s0-0.2,0-0.2
			s0-0.4-0.1-0.5s0-0.2-0.3-0.2s-0.5-0.1-0.5-0.1c0,0-0.2,0.1-0.2-0.2s0-0.5,0-0.5l-0.1-0.3c0,0-0.1-0.3-0.3-0.5
			c-0.1-0.2-0.3-0.3-0.4-0.3c-0.1,0,0,0.2-0.3,0c-0.3-0.2-0.7-0.6-0.7-0.6s-0.1,0.1-0.2,0c-0.1-0.2-0.1-0.4-0.1-0.4l0-0.3
			c0,0,0-0.3-0.2-0.5s-0.3-0.3-0.5-0.3c-0.1,0-0.2-0.3-0.4-0.3c-0.1,0-0.4,0-0.4,0c-0.6,0-0.9,0-1.1,0s-0.4,0-0.6,0
			c-0.2,0-0.3,0-0.3,0.1c0,0.1-0.2,0.3-0.2,0.4c0,0.1-0.1,0.6-0.1,0.6c0,0.4-0.1,0.6-0.2,0.6s-0.2,0-0.2,0s-0.1,0.2-0.3,0.3
			c-0.2,0-0.2,0.1-0.3,0s-0.5-0.2-0.5-0.2c-0.1-0.1,0-0.2-0.2-0.1c-0.2,0-0.4,0-0.4,0c-0.2,0-0.5,0.3-0.7,0.3c-0.2,0-0.5,0-0.5,0
			l0,0.2c0,0,0,0.1-0.1,0.1c-0.1,0-0.2,0-0.3,0c-0.1,0-0.3,0.1-0.3,0s0-0.5,0-0.5L81,46.7c-0.2-0.1-0.3-0.2-0.3-0.2
			s-0.1-0.2-0.1-0.3c0,0-0.1-0.5-0.1-0.5c-0.1,0-0.1,0-0.1-0.1s-0.1-0.1-0.2-0.2c0-0.1-0.2-0.3-0.2-0.3l-0.2-0.1
			c0,0-0.3-0.1-0.3-0.1s0-0.1,0-0.2c0-0.1-0.2-0.5-0.2-0.5c0-0.1-0.1-0.2-0.1-0.3c0-0.1,0-0.2,0-0.3c0-0.1,0-0.1,0-0.3
			c0-0.2,0-0.4,0-0.5c0-0.1,0-0.2,0-0.2l0-0.5c0-0.3,0-0.6,0-0.7c0-0.1-0.1-0.4-0.1-0.6c0-0.1,0-0.2-0.1-0.2c-0.1,0-0.1,0-0.3,0
			c-0.2,0-0.5,0-0.7,0c-0.2,0-0.3,0-0.3,0s-0.1-0.1-0.2-0.1c-0.1,0-0.4,0-0.4,0s0,0-0.4,0c-0.4,0-0.4,0-0.7,0c-0.3,0-0.6,0-0.6,0
			c-0.2,0-0.8,0.2-0.8,0.2s-0.1,0.2-0.2,0.2c-0.1,0-0.2,0.4-0.2,0.4s0.1-0.2,0,0.1c-0.1,0.3-0.2,0.7-0.3,0.7s-0.3,0.1-0.4,0.1
			s-0.2,0-0.2,0.1c0,0.1,0,0.3,0,0.4c0,0.1,0,0.3,0,0.5c0,0.2,0.2,0.5,0.2,0.5s0,0,0,0.2c0,0.1,0,0,0,0.2c0,0.2,0,0.1,0,0.2
			c0,0.1-0.3,0.2-0.3,0.3c-0.1,0-0.1,0-0.2,0c-0.1,0-0.3,0.4-0.3,0.4s-0.2,0.1-0.2,0.2s0,0.2,0,0.3c0,0.1-0.1,0.2-0.1,0.2
			S72.3,46,72.1,46s-0.1,0-0.2,0s-0.3-0.1-0.4,0c-0.1,0.1-0.1,0.1-0.2,0.1c-0.1,0,0.1,0-0.1,0s-0.7,0.3-0.7,0.3s-0.4,0.1-0.4,0.1
			s-0.2-0.1-0.3,0c-0.1,0.2-0.2,0.3-0.2,0.3c-0.1,0.3-0.2,0.5-0.3,0.5c-0.1,0-0.1,0-0.2,0c-0.1,0-0.1,0-0.3-0.1
			c-0.2-0.1-0.4-0.2-0.4-0.2s-0.6,0-0.7,0s-0.2,0-0.3,0c0,0-0.3-0.1-0.4-0.1c-0.1,0-0.4,0.1-0.5,0.1c-0.1,0-0.2-0.1-0.1,0
			c0.1,0.1,0,0.7,0,0.7s-0.3,0-0.4,0s-0.2,0-0.3,0c-0.1,0-0.3-0.1-0.3-0.1l-0.1,0.3c-0.9,0-1,0-1.1,0s-0.1,0-0.2,0
			c0,0,0.1-0.3,0.1-0.3v-0.4c0-0.3-0.2-0.2-0.3-0.7c-0.1-0.5-0.2-0.7-0.2-0.7c0-0.2,0-0.4,0-0.5s0-0.2,0-0.3s0.1-0.3,0.2-0.3
			c0,0,0.1-0.2,0.1-0.3c0,0,0-0.4,0-0.4s-0.2-0.3-0.4-0.3c-0.2-0.1-0.6-0.3-0.6-0.3c-0.2,0-0.2,0-0.3,0c-0.1,0-0.3,0-0.4,0
			c-0.1,0,0.2,0-0.1,0c-0.3,0-0.4,0.1-0.4,0.1c-0.1,0-0.3,0-0.3,0s0,0,0-0.2c0-0.1-0.1-0.2-0.1-0.2C61.4,43,61.2,43,61.2,43
			s-0.1,0-0.3,0c-0.2,0-0.4-0.1-0.5-0.1c-0.1,0-0.4-0.4-0.4-0.5c0-0.1,0-0.1,0-0.1s-0.3-0.1-0.4-0.1c-0.1,0-0.2,0-0.3,0
			c-0.1,0-0.1,0-0.2,0s-0.4,0-0.4,0c-0.1,0.2-0.2,0.4-0.4,0.4s-0.4,0-0.5-0.1c-0.1-0.1-0.1-0.1-0.1-0.2c0-0.1-0.1-0.3-0.1-0.3
			s0.3,0-0.1-0.4s-0.4-0.5-0.4-0.5l-0.2,0.1c-0.1-0.2-0.5-0.8-0.5-0.9s0,0.2,0-0.1s0-0.4,0-0.8c0-0.4-0.2-0.5-0.2-0.6
			c0-0.1,0-0.1-0.1-0.3c-0.1-0.2-0.3-0.4-0.3-0.4c-0.1-0.1-0.4-0.3-0.6-0.4c-0.2,0-0.2-0.1-0.4-0.2c-0.3-0.1-0.5-0.2-0.5-0.2
			c-0.1-0.1-0.2-0.3-0.2-0.3s-0.1-0.1-0.2,0c-0.1,0.1-0.3,0.2-0.4,0.2c0,0,0,0.2,0,0.3c0,0.1,0,0.3,0,0.3s-0.1,0.2-0.1,0.3
			c0,0.1,0,0.2-0.1,0.3c-0.1,0-0.1,0-0.1,0s-0.1,0.2-0.3,0.2c-0.2-0.1-0.1,0-0.2-0.1c-0.1-0.1-0.3-0.2-0.3-0.3
			c0-0.1-0.1-0.2-0.2-0.3c0,0,0-0.1-0.1-0.2c-0.1-0.1-0.5-0.3-0.5-0.6c0-0.3,0-0.4,0-0.4c-0.2-0.1-0.2-0.4-0.2-0.4l-0.3-0.1
			c0,0,0.1,0-0.2,0c-0.3-0.1-0.5-0.1-0.5-0.1s0,0,0-0.1c0-0.1,0-0.3,0-0.4c0-0.1,0.3-0.2-0.1-0.2c-0.4,0-0.5-0.1-0.6-0.1
			c-0.1,0-0.3,0.1-0.3,0.1s-0.1,0-0.4,0s-0.4,0-0.5,0S48,35.4,48,35.4s-0.1,0-0.2,0c-0.1,0-0.3-0.1-0.3-0.1s-0.1,0.1-0.1,0
			s0-0.2,0-0.2s0.1-0.1,0.1-0.2c0-0.1,0.1-0.1,0-0.3c-0.1-0.2,0,0.1-0.1-0.2c-0.1-0.3,0-0.4-0.4-0.7c-0.4-0.3-0.4-0.3-0.4-0.3
			s-0.1-0.1-0.3-0.2c-0.2,0-0.2,0-0.3,0c-0.1,0-0.2,0-0.3-0.1s0-0.2,0-0.2s0-0.4,0-0.6c0-0.3,0-0.3,0-0.3s0-0.2,0-0.2
			c0-0.1-0.3-0.2-0.3-0.3c0,0,0-0.5,0-0.5s-0.1-0.2-0.3-0.2s-1,0-0.8,0c0.2,0,0-0.2-0.1-0.2c0,0-0.2,0-0.2-0.1
			c-0.1-0.1-0.3,0.1-0.3-0.2s0-0.1,0-0.3s-0.1-1-0.1-1c-0.2,0-0.4-0.5-0.4-0.5s-0.2,0-0.2,0c0,0,0,0,0,0s-0.1-0.1-0.2-0.1
			c0,0-0.3-0.1-0.3-0.1l-1.7,1.4c0,0-0.1,0.1-0.3,0.1c-0.2,0-0.4,0.1-0.4,0s-0.2-0.1-0.4-0.2c-0.2-0.1-0.2-0.2-0.3-0.2
			c-0.1,0-0.3,0-0.3-0.1c0,0,0,0,0-0.2c0-0.1,0.3-0.1-0.3-0.3c-0.6-0.3-0.8-0.4-0.8-0.4s-0.2,0.1-0.3,0.1s-0.3,0-0.4,0
			s-0.3-0.1-0.5-0.3c-0.2-0.2-0.2-0.2-0.3-0.2c-0.1-0.1-0.4-0.1-0.4-0.1s0,0-0.2,0c-0.2,0-0.4,0-0.5,0c-0.1,0-0.3-0.1-0.3-0.3
			c0-0.2,0-0.2-0.1-0.3c-0.2-0.1-0.2-0.1-0.2-0.1c-0.1,0-0.3,0.1-0.4,0.2s-0.3,0.1-0.3,0.1c-0.5,0-0.5,0-0.6-0.1
			c-0.1-0.1-0.1-0.2-0.1-0.2l-0.3,0.1c0,0-0.1,0.3-0.1,0s0-0.6,0-0.6c0-0.1,0-0.1-0.2-0.1s-0.1,0-0.1,0s-0.3,0.4-0.4,0.4
			c0,0.1,0,0,0,0.1c0,0.1-0.1,0.1-0.2,0.1c0,0-0.1,0.2-0.1,0.2L32,27.5c-0.3,0.3-0.7,0.5-0.7,0.5l-0.1,0c0,0-0.2-0.1-0.3-0.1
			s-0.1,0-0.1,0s0,0-0.2,0c-0.2-0.1-0.3-0.2-0.4-0.2c-0.1,0-0.2-0.1-0.4,0c-0.2,0.1-0.2,0.2-0.3,0.2c-0.1,0-0.1,0-0.1,0
			c0,0,0,0.4-0.2,0.4c-0.1,0-0.2,0-0.3,0c-0.1,0-0.2,0.3-0.3,0.3c-0.1,0,0,0-0.1,0.1c0,0.2,0,0.3,0,0.3c-0.1,0-0.1,0-0.3,0
			s-0.3,0-0.3-0.1s0,0.2,0-0.2s-0.1-0.6-0.1-0.6c-0.7-0.2-0.7-0.2-0.7-0.2s-0.3,0-0.4,0s-0.2,0-0.2,0.1s0,0.4,0,0.5
			c0,0-0.1,0.2-0.1,0.3s0.1,0.5,0.1,0.5c0.1,0.1,0.2,0.2,0.2,0.3s0.1,0.1,0,0.1c0,0.1-0.4,0.1-0.4,0.2c-0.4,0.9-0.4,1.2-0.4,1.2
			c0.5,0.1,0.9,0.1,0.9,0.1s0.4,0.5,0.5,0.7c0.1,0.1,0.2,0.1,0.2,0.1s0.1,0,0.6,0c0.1,0,0.3-0.1,0.3-0.1l0.1-0.2l0.4,0.1
			c0,0.1,0,0.5,0,0.5s0,0.1-0.1,0.2c0,0.2-0.1,0.3,0,0.4c0.1,0.1,0.4,0.2,0.5,0.3c0.1,0.1,0.2,0,0.2,0.2s0.5,0.1,0.5,0.2
			c0,0.1,0.1,0.2-0.1,0.4c-0.2,0.1-0.2,0.3-0.5,0.3c-0.3,0-0.2,0-0.3,0s-0.2-0.1-0.3,0c-0.1,0.1-0.2,0.2-0.2,0.2
			c0,0-0.2,0.2-0.2,0.2L28,34.9c0,0-0.2,0.1-0.3,0.1c-0.1,0-0.2,0-0.2,0c-0.1,0-0.1-0.1-0.2,0c-0.1,0.1-0.3,0.3-0.5,0.3
			c-0.1,0-0.1,0.1-0.5,0.1c-0.4,0-0.7,0-0.8,0s-0.2,0-0.4,0c-0.2,0-0.7,0-0.8,0c-0.1,0-0.6,0.4-0.7,0.4c-0.3,0.2-0.8,0.5-0.8,0.7
			s-0.1,0.4-0.2,0.5c-0.1,0.1-0.2,0.2-0.3,0.2c-0.1,0-0.2,0.1-0.2,0.1s-0.2,0.2-0.3,0.2s-0.2,0.1-0.3,0.2c-0.1,0.1-0.4,0.6-0.4,0.8
			c0,0.2,0.2-0.2,0,0.2c-0.3,0.4-0.5,0.7-0.6,0.9c-0.1,0.3-0.2,0.4-0.2,0.5s0,0.1,0,0.3c0,0.1,0,0.2,0,0.4c0,0.2,0.1,0.4,0.1,0.5
			S20.6,41.8,20.6,41.8z"/>
		<rect class="st1" width="100" height="100"/>
	</g>
</g>
</svg>
