<?xml version="1.0" encoding="UTF-8"?><svg id="uuid-21a7d570-7521-45cd-928f-97116c9564a8" xmlns="http://www.w3.org/2000/svg" viewBox="0 0 232.92 94.81"><defs><style>.uuid-62abc86f-0fda-43e9-a394-6ff67106858a{fill:#fff;}</style></defs><g id="uuid-f2a7af21-89c9-46d8-9a39-706c14440426"><path class="uuid-62abc86f-0fda-43e9-a394-6ff67106858a" d="M109.81,17.43h-4.06c-1.35,0-1.95.6-1.95,1.95v3.61c-9.54-8.21-23.77-7.75-32.77,1.05-9.22,9.27-9.22,24.25,0,33.52,4.47,4.55,10.61,7.05,16.99,6.92,5.82-.01,11.43-2.15,15.78-6.01v4.06c0,1.35.6,1.95,1.95,1.95h4.06c1.35,0,1.95-.6,1.95-1.95V19.39c0-1.35-.61-1.96-1.96-1.96M99.28,52.01c-3.01,2.95-7.06,4.57-11.27,4.51-4.24.07-8.32-1.61-11.27-4.66-3.1-2.92-4.79-7.02-4.66-11.27-.09-4.17,1.54-8.19,4.51-11.12h0c2.95-3.05,7.03-4.73,11.27-4.66,4.26-.09,8.38,1.54,11.43,4.51,6.21,6.29,6.21,16.41,0,22.7"/><path class="uuid-62abc86f-0fda-43e9-a394-6ff67106858a" d="M37.43,22.99c-3.91-3.87-9.23-5.99-14.73-5.86-5.98-.15-11.75,2.19-15.93,6.46-9.08,9.53-9.01,24.53.15,33.97,4.47,4.55,10.61,7.05,16.99,6.92,5.4.05,10.71-1.41,15.33-4.21,1.05-.6,1.5-1.05,1.5-1.66.02-.38-.08-.74-.3-1.05l-1.5-3.16c-.16-.62-.71-1.05-1.35-1.05-.38-.02-.75.08-1.05.3-3.79,2.03-8.03,3.06-12.33,3.01-7.72.36-14.52-5.03-15.93-12.63h33.67c1.35,0,1.95-.6,1.95-1.95v-2.56c.23-6.17-2.11-12.16-6.47-16.54M8.57,37.28c.72-3.7,2.68-7.04,5.56-9.47,5.45-4.23,13.2-3.71,18.04,1.2,2.22,2.21,3.55,5.15,3.76,8.27H8.57Z"/><path class="uuid-62abc86f-0fda-43e9-a394-6ff67106858a" d="M51.98,64.49c-1.35,0-1.95-.6-1.95-1.81V1.95c0-1.35.6-1.95,1.95-1.95h4.06c1.35,0,1.95.6,1.95,1.95v60.58c0,1.35-.6,1.95-1.95,1.95h-4.06Z"/><path class="uuid-62abc86f-0fda-43e9-a394-6ff67106858a" d="M165.34,11.27c-.81-.74-1.26-1.78-1.27-2.87,0-1.12.46-2.2,1.27-2.99,1.7-1.53,4.28-1.53,5.98,0,.79.8,1.24,1.87,1.26,2.99.02,1.1-.44,2.15-1.26,2.87-1.7,1.53-4.28,1.53-5.98,0"/><path class="uuid-62abc86f-0fda-43e9-a394-6ff67106858a" d="M164.35,20.23c0-2.2,1.78-3.98,3.98-3.98s3.98,1.78,3.98,3.98v42.3c0,1.35-.6,1.95-1.96,1.95h-4.05c-1.35,0-1.96-.6-1.96-1.95V19.98"/><path class="uuid-62abc86f-0fda-43e9-a394-6ff67106858a" d="M179.39,11.27c-.81-.74-1.26-1.78-1.27-2.87,0-1.12.46-2.2,1.27-2.99,1.7-1.53,4.28-1.53,5.98,0,.79.8,1.24,1.87,1.26,2.99.02,1.1-.44,2.15-1.26,2.87-1.7,1.53-4.28,1.53-5.98,0"/><path class="uuid-62abc86f-0fda-43e9-a394-6ff67106858a" d="M178.39,20.23c0-2.2,1.78-3.98,3.98-3.98s3.98,1.78,3.98,3.98v42.3c0,1.35-.6,1.95-1.96,1.95h-4.05c-1.35,0-1.96-.6-1.96-1.95V19.98"/><path class="uuid-62abc86f-0fda-43e9-a394-6ff67106858a" d="M158.32,35.52c0-10.63-8.62-19.25-19.25-19.25-5.1,0-9.74,1.99-13.19,5.23h-.03v-2.11c0-1.35-.6-1.96-1.95-1.96h-4.06c-1.35,0-1.96.6-1.96,1.96v43.14c0,1.35.6,1.95,1.96,1.95h4.06c1.35,0,1.95-.6,1.95-1.95v-26.09c0-6.8,5.49-12.3,12.29-12.3s12.32,5.51,12.32,12.32h.01s.02,1.11.02,1.11v24.96c0,1.35.6,1.95,1.96,1.95h3.9c1.35,0,1.95-.6,1.95-1.95v-26c0-.34,0-.68-.02-1.02l.02.02Z"/><path class="uuid-62abc86f-0fda-43e9-a394-6ff67106858a" d="M232.92,35.65c0-10.63-8.62-19.25-19.25-19.25-5.1,0-9.74,1.99-13.19,5.23h-.03v-2.23c0-1.35-.6-1.96-1.95-1.96h-4.06c-1.35,0-1.96.6-1.96,1.96v43.12c0,1.35.6,1.95,1.96,1.95h4.06c1.35,0,1.95-.6,1.95-1.95v-25.93c0-6.8,5.49-12.3,12.29-12.3s12.32,5.51,12.32,12.32h.01s.02,1.11.02,1.11v24.82c0,1.35.6,1.95,1.96,1.95h3.9c1.35,0,1.95-.6,1.95-1.95v-25.88c0-.34,0-.68-.02-1.02l.02.02Z"/><path class="uuid-62abc86f-0fda-43e9-a394-6ff67106858a" d="M18.57,86.48h-3.22v-1.9h8.76v1.9h-3.22v8.16h-2.33v-8.16h0Z"/><path class="uuid-62abc86f-0fda-43e9-a394-6ff67106858a" d="M40.34,92.77v1.87h-7.78v-10.05h7.6v1.87h-5.29v2.18h4.67v1.81h-4.67v2.33h5.47Z"/><path class="uuid-62abc86f-0fda-43e9-a394-6ff67106858a" d="M48.71,89.61c0-3.03,2.33-5.2,5.46-5.2,1.74,0,3.19.63,4.14,1.78l-1.49,1.38c-.67-.78-1.52-1.18-2.53-1.18-1.88,0-3.22,1.32-3.22,3.22s1.34,3.22,3.22,3.22c1.01,0,1.85-.4,2.53-1.19l1.49,1.38c-.95,1.16-2.4,1.79-4.15,1.79-3.12,0-5.44-2.17-5.44-5.2Z"/><path class="uuid-62abc86f-0fda-43e9-a394-6ff67106858a" d="M76.28,84.59v10.05h-2.33v-4.12h-4.57v4.12h-2.33v-10.05h2.33v3.96h4.57v-3.96h2.33Z"/><path class="uuid-62abc86f-0fda-43e9-a394-6ff67106858a" d="M96.46,89.61c0-3.03,2.33-5.2,5.46-5.2,1.74,0,3.19.63,4.14,1.78l-1.49,1.38c-.67-.78-1.52-1.18-2.53-1.18-1.88,0-3.22,1.32-3.22,3.22s1.34,3.22,3.22,3.22c1.01,0,1.85-.4,2.53-1.19l1.49,1.38c-.95,1.16-2.4,1.79-4.15,1.79-3.12,0-5.44-2.17-5.44-5.2Z"/><path class="uuid-62abc86f-0fda-43e9-a394-6ff67106858a" d="M113.96,89.61c0-2.99,2.33-5.2,5.5-5.2s5.5,2.2,5.5,5.2-2.34,5.2-5.5,5.2-5.5-2.21-5.5-5.2ZM122.61,89.61c0-1.91-1.35-3.22-3.15-3.22s-3.15,1.31-3.15,3.22,1.35,3.22,3.15,3.22,3.15-1.31,3.15-3.22Z"/><path class="uuid-62abc86f-0fda-43e9-a394-6ff67106858a" d="M143.05,94.64v-6.03s-2.97,4.97-2.97,4.97h-1.05l-2.94-4.84v5.9h-2.18v-10.05h1.93l3.76,6.25,3.71-6.25h1.91l.03,10.05h-2.18Z"/><path class="uuid-62abc86f-0fda-43e9-a394-6ff67106858a" d="M163.52,88.24c0,2.24-1.68,3.63-4.37,3.63h-2.02v2.77h-2.33v-10.05h4.35c2.69,0,4.37,1.39,4.37,3.65ZM161.16,88.24c0-1.11-.72-1.75-2.14-1.75h-1.9v3.49h1.9c1.43,0,2.14-.65,2.14-1.74Z"/><path class="uuid-62abc86f-0fda-43e9-a394-6ff67106858a" d="M178.47,92.49h-4.67l-.89,2.16h-2.38l4.48-10.05h2.3l4.5,10.05h-2.44l-.89-2.16ZM177.74,90.72l-1.6-3.85-1.6,3.85h3.19Z"/><path class="uuid-62abc86f-0fda-43e9-a394-6ff67106858a" d="M199.26,84.59v10.05h-1.91l-5.01-6.11v6.11h-2.3v-10.05h1.93l5,6.11v-6.11h2.3Z"/><path class="uuid-62abc86f-0fda-43e9-a394-6ff67106858a" d="M213.66,91.08v3.56h-2.33v-3.59l-3.89-6.46h2.47l2.68,4.47,2.68-4.47h2.28l-3.9,6.49Z"/></g></svg>