<svg width="185" height="43" viewBox="0 0 185 43" fill="none" xmlns="http://www.w3.org/2000/svg">
<g clip-path="url(#clip0_7822_23307)">
<path fill-rule="evenodd" clip-rule="evenodd" d="M32.1537 28.2803L39.0374 33.9819H36.8714L32.124 29.3097H32.9153L32.1537 28.2803Z" fill="#1E1E1E"/>
<path fill-rule="evenodd" clip-rule="evenodd" d="M35.7637 28.9934L32.8362 25.8555L42.3409 33.9724H39.7199L34.9923 29.2111H35.7637C35.7637 29.2111 36.0506 29.2111 35.7637 28.9835V28.9934Z" fill="#1E1E1E"/>
<path fill-rule="evenodd" clip-rule="evenodd" d="M38.2956 29.1908C38.9781 29.2205 38.8891 28.7949 38.8891 28.7949L33.479 23.3506L44.5464 33.18C44.5464 33.18 43.8343 33.9224 42.8057 33.9818L38.2561 29.2007H38.2857L38.2956 29.1908Z" fill="#1E1E1E"/>
<path fill-rule="evenodd" clip-rule="evenodd" d="M40.0066 27.8252L40.2341 26.9739L34.2009 20.708L46.2375 31.5075C46.2375 31.5075 45.8914 32.3588 44.9023 33.022L40.0066 27.8351V27.8252Z" fill="#1E1E1E"/>
<path fill-rule="evenodd" clip-rule="evenodd" d="M40.7188 25.2912L40.9463 24.4894L35.0022 18.085L47.0982 29.3695C47.0982 29.3695 46.9004 30.3099 46.4454 31.3393L40.7485 25.3308L40.7188 25.3011V25.2912Z" fill="#1E1E1E"/>
<path fill-rule="evenodd" clip-rule="evenodd" d="M35.6252 15.6299L47.6915 27.0233L47.1772 28.8843L41.4012 22.7273L41.599 22.0146L35.6252 15.6299Z" fill="#1E1E1E"/>
<path fill-rule="evenodd" clip-rule="evenodd" d="M37.2175 13.8086L48.4036 24.519L47.8596 26.4591L42.1133 20.223L42.2517 19.6191L37.2175 13.8086Z" fill="#1E1E1E"/>
<path fill-rule="evenodd" clip-rule="evenodd" d="M40.5408 13.8086L49.0564 22.0443L48.5421 23.9251L42.8255 17.5107L43.0529 16.7782L40.5408 13.8086Z" fill="#1E1E1E"/>
<path fill-rule="evenodd" clip-rule="evenodd" d="M43.8145 13.9277L43.6167 14.7196L49.2246 21.4706L49.7389 19.6195L43.8145 13.9277Z" fill="#1E1E1E"/>
<path fill-rule="evenodd" clip-rule="evenodd" d="M43.7946 13.7787L40.5406 13.8084L35.6548 9.02734H38.9186L43.7946 13.7787Z" fill="#1E1E1E"/>
<path fill-rule="evenodd" clip-rule="evenodd" d="M35.2198 9.02734L39.2649 13.8381H37.1879L32.4307 9.19562C32.4307 9.19562 32.9153 9.07684 33.5087 9.02734H35.2198Z" fill="#1E1E1E"/>
<path fill-rule="evenodd" clip-rule="evenodd" d="M30.0767 10.6514L35.4571 16.3728L34.9724 18.0853L29.0481 12.7598C29.0481 12.7598 29.1866 11.5917 30.0767 10.6514Z" fill="#1E1E1E"/>
<path fill-rule="evenodd" clip-rule="evenodd" d="M28.9097 12.9873L34.7154 19.0552L34.2604 20.738L28.2471 15.264L28.9097 12.9873Z" fill="#1E1E1E"/>
<path fill-rule="evenodd" clip-rule="evenodd" d="M28.1382 15.6299L34.0033 21.6681L33.5483 23.3509L27.4558 17.9462L28.1382 15.6299Z" fill="#1E1E1E"/>
<path fill-rule="evenodd" clip-rule="evenodd" d="M27.337 18.3428L26.6545 20.6195L32.836 25.8658L33.2613 24.2919L27.337 18.3428Z" fill="#1E1E1E"/>
<path fill-rule="evenodd" clip-rule="evenodd" d="M26.5756 20.9062L32.5494 26.9148L31.9461 29.1123L25.8833 23.183L26.5756 20.9062Z" fill="#1E1E1E"/>
<path fill-rule="evenodd" clip-rule="evenodd" d="M35.6548 15.6599L30.2744 10.3938C30.9865 9.54252 32.0646 9.28516 32.0646 9.28516L36.5054 14.0464C35.7636 14.3335 35.6548 15.6698 35.6548 15.6698V15.6599Z" fill="#1E1E1E"/>
<path fill-rule="evenodd" clip-rule="evenodd" d="M78.2528 19.6197L75.6318 29.2511H79.3308L81.3485 21.9558H83.2573C83.376 21.9558 83.8508 21.9558 83.8508 22.9258C83.8508 23.8959 82.5749 24.2028 82.5749 24.2028H81.1804L82.5749 28.5285C82.5749 28.5285 82.8914 29.3303 84.1969 29.2412H88.8949L93.1378 21.639L93.306 29.2412H96.9457L96.2039 19.5801H91.3971C91.3971 19.5801 90.774 19.6395 90.4279 20.2334C90.2894 20.5205 86.3827 27.1031 86.3827 27.1031H85.7299C85.7299 27.1031 85.4431 27.1031 85.3046 26.6181L84.909 25.4203C85.275 25.4203 87.3025 24.5393 87.3025 22.0845C87.3025 19.6296 86.1651 19.6098 85.453 19.5801H78.2825L78.2528 19.6098V19.6197Z" fill="#1E1E1E"/>
<path fill-rule="evenodd" clip-rule="evenodd" d="M61.7162 29.2803H64.9306L67.4922 19.6488H63.8228L62.458 24.2913L61.5777 20.3615C61.6074 20.3615 61.3206 19.6191 60.3019 19.6191H56.9193L54.1599 29.2506H57.9183L59.57 23.7568L60.4205 28.429C60.4205 28.429 60.5887 29.2308 61.6964 29.2506L61.7261 29.2803H61.7162Z" fill="#1E1E1E"/>
<path fill-rule="evenodd" clip-rule="evenodd" d="M51.4203 19.6191H55.0599L52.4983 29.2803H48.8586L51.4203 19.6191Z" fill="#1E1E1E"/>
<path fill-rule="evenodd" clip-rule="evenodd" d="M77.1748 19.6191L76.522 21.9849H72.4768L71.9922 23.7271H76.0077L75.3253 26.0929H71.3395L70.4592 29.2803H66.5327L69.035 20.3615C69.035 20.3615 69.2328 19.6191 70.0636 19.6488H77.2045L77.1748 19.6191Z" fill="#1E1E1E"/>
<path fill-rule="evenodd" clip-rule="evenodd" d="M122.938 19.6494H124.194L121.83 28.3405H127.299C127.299 28.3405 127.299 28.9938 127.131 29.1621H120.248L122.948 19.6494H122.938Z" fill="#1E1E1E"/>
<path fill-rule="evenodd" clip-rule="evenodd" d="M114.541 19.6494H120.97C120.97 19.6494 121.197 20.2235 120.623 20.4215H114.956L113.987 23.8663H119.338C119.338 23.8663 119.476 24.3513 119.199 24.6681H113.76L112.711 28.3405H118.378C118.378 28.3405 118.546 28.9641 118.181 29.1621H111.089L113.621 20.3324C113.621 20.3324 113.967 19.5603 114.531 19.6791V19.6494H114.541Z" fill="#1E1E1E"/>
<path fill-rule="evenodd" clip-rule="evenodd" d="M103.899 20.3324H107.598C107.598 20.3324 109.338 20.1641 109.309 22.7279C109.309 22.7279 109.22 23.9257 108.537 25.8064C108.537 25.8064 107.855 28.1722 105.353 28.4791H101.743L103.909 20.3621V20.3324H103.899ZM102.791 19.6494H108.567C108.567 19.6494 110.733 19.788 110.703 22.7576C110.703 22.7576 110.763 23.9257 109.932 26.2618C109.932 26.2618 109.081 28.9938 106.174 29.172H100.14L102.791 19.6593V19.6494Z" fill="#1E1E1E"/>
<path fill-rule="evenodd" clip-rule="evenodd" d="M151.541 19.6494H157.772C157.772 19.6494 159.077 19.7385 159.107 21.8172C159.107 21.8172 159.107 24.2424 156.941 24.579H154.468L156.259 28.2217C156.259 28.2217 156.397 28.4197 157.06 28.39H157.653L157.515 29.1918H155.467C155.467 29.1918 154.894 29.2512 154.557 28.2514L152.362 23.7178H155.833C155.833 23.7178 157.089 23.8861 157.623 22.4112C157.623 22.4112 157.821 21.8667 157.534 21.1045C157.534 21.1045 157.218 20.4215 156.506 20.4512H152.639L150.018 29.172H148.594L151.472 19.6593H151.531L151.541 19.6494Z" fill="#1E1E1E"/>
<path fill-rule="evenodd" clip-rule="evenodd" d="M141.126 19.6488H142.521L140.899 25.5188C140.899 25.5188 140.246 28.3399 143.094 28.3696C145.943 28.3993 146.625 25.7167 146.625 25.7167L148.336 19.6488H149.672L147.881 25.9444C147.881 25.9444 147.229 29.1318 143.104 29.1615C139.01 29.1912 139.633 25.3703 139.633 25.3703L141.116 19.6191L141.146 19.6488H141.126Z" fill="#1E1E1E"/>
<path fill-rule="evenodd" clip-rule="evenodd" d="M133.075 19.6494H138.565L138.08 21.6688H137.17C137.17 21.6688 136.883 20.3918 135.944 20.3918H133.837C133.837 20.3918 132.274 20.6789 132.185 22.134C132.185 22.134 131.839 23.698 133.293 23.6188H136.309C136.309 23.6188 138.644 23.985 138.416 25.8163C138.416 25.8163 138.555 29.1819 134.856 29.1819H132.067C132.067 29.1819 128.536 29.4986 129.396 26.4795H130.85L130.791 27.2219C130.791 27.2219 130.959 28.5583 132.245 28.4791H134.638C134.638 28.4791 136.774 28.1326 136.883 26.5983C136.883 26.5983 137.308 24.8363 135.459 24.579H132.442C132.442 24.579 129.821 24.579 130.988 21.3619C130.988 21.3619 131.582 19.7682 133.095 19.6494L133.065 19.6791L133.075 19.6494Z" fill="#1E1E1E"/>
<path fill-rule="evenodd" clip-rule="evenodd" d="M32.1537 28.2803L39.0374 33.9819H36.8714L32.124 29.3097H32.9153L32.1537 28.2803Z" fill="#1E1E1E"/>
<path fill-rule="evenodd" clip-rule="evenodd" d="M35.7637 28.9934L32.8362 25.8555L42.3409 33.9724H39.7199L34.9923 29.2111H35.7637C35.7637 29.2111 36.0506 29.2111 35.7637 28.9835V28.9934Z" fill="#1E1E1E"/>
<path fill-rule="evenodd" clip-rule="evenodd" d="M38.2956 29.1908C38.9781 29.2205 38.8891 28.7949 38.8891 28.7949L33.479 23.3506L44.5464 33.18C44.5464 33.18 43.8343 33.9224 42.8057 33.9818L38.2561 29.2007H38.2857L38.2956 29.1908Z" fill="#1E1E1E"/>
<path fill-rule="evenodd" clip-rule="evenodd" d="M40.0066 27.8252L40.2341 26.9739L34.2009 20.708L46.2375 31.5075C46.2375 31.5075 45.8914 32.3588 44.9023 33.022L40.0066 27.8351V27.8252Z" fill="#1E1E1E"/>
<path fill-rule="evenodd" clip-rule="evenodd" d="M40.7188 25.2912L40.9463 24.4894L35.0022 18.085L47.0982 29.3695C47.0982 29.3695 46.9004 30.3099 46.4454 31.3393L40.7485 25.3308L40.7188 25.3011V25.2912Z" fill="#1E1E1E"/>
<path fill-rule="evenodd" clip-rule="evenodd" d="M35.6252 15.6299L47.6915 27.0233L47.1772 28.8843L41.4012 22.7273L41.599 22.0146L35.6252 15.6299Z" fill="#1E1E1E"/>
<path fill-rule="evenodd" clip-rule="evenodd" d="M37.2175 13.8086L48.4036 24.519L47.8596 26.4591L42.1133 20.223L42.2517 19.6191L37.2175 13.8086Z" fill="#1E1E1E"/>
<path fill-rule="evenodd" clip-rule="evenodd" d="M40.5408 13.8086L49.0564 22.0443L48.5421 23.9251L42.8255 17.5107L43.0529 16.7782L40.5408 13.8086Z" fill="#1E1E1E"/>
<path fill-rule="evenodd" clip-rule="evenodd" d="M43.8145 13.9277L43.6167 14.7196L49.2246 21.4706L49.7389 19.6195L43.8145 13.9277Z" fill="#1E1E1E"/>
<path fill-rule="evenodd" clip-rule="evenodd" d="M43.7946 13.7787L40.5406 13.8084L35.6548 9.02734H38.9186L43.7946 13.7787Z" fill="#1E1E1E"/>
<path fill-rule="evenodd" clip-rule="evenodd" d="M35.2198 9.02734L39.2649 13.8381H37.1879L32.4307 9.19562C32.4307 9.19562 32.9153 9.07684 33.5087 9.02734H35.2198Z" fill="#1E1E1E"/>
<path fill-rule="evenodd" clip-rule="evenodd" d="M30.0767 10.6514L35.4571 16.3728L34.9724 18.0853L29.0481 12.7598C29.0481 12.7598 29.1866 11.5917 30.0767 10.6514Z" fill="#1E1E1E"/>
<path fill-rule="evenodd" clip-rule="evenodd" d="M28.9097 12.9873L34.7154 19.0552L34.2604 20.738L28.2471 15.264L28.9097 12.9873Z" fill="#1E1E1E"/>
<path fill-rule="evenodd" clip-rule="evenodd" d="M28.1382 15.6299L34.0033 21.6681L33.5483 23.3509L27.4558 17.9462L28.1382 15.6299Z" fill="#1E1E1E"/>
<path fill-rule="evenodd" clip-rule="evenodd" d="M27.337 18.3428L26.6545 20.6195L32.836 25.8658L33.2613 24.2919L27.337 18.3428Z" fill="#1E1E1E"/>
<path fill-rule="evenodd" clip-rule="evenodd" d="M26.5756 20.9062L32.5494 26.9148L31.9461 29.1123L25.8833 23.183L26.5756 20.9062Z" fill="#1E1E1E"/>
<path fill-rule="evenodd" clip-rule="evenodd" d="M35.6548 15.6599L30.2744 10.3938C30.9865 9.54252 32.0646 9.28516 32.0646 9.28516L36.5054 14.0464C35.7636 14.3335 35.6548 15.6698 35.6548 15.6698V15.6599Z" fill="#1E1E1E"/>
<path fill-rule="evenodd" clip-rule="evenodd" d="M78.2528 19.6197L75.6318 29.2511H79.3308L81.3485 21.9558H83.2573C83.376 21.9558 83.8508 21.9558 83.8508 22.9258C83.8508 23.8959 82.5749 24.2028 82.5749 24.2028H81.1804L82.5749 28.5285C82.5749 28.5285 82.8914 29.3303 84.1969 29.2412H88.8949L93.1378 21.639L93.306 29.2412H96.9457L96.2039 19.5801H91.3971C91.3971 19.5801 90.774 19.6395 90.4279 20.2334C90.2894 20.5205 86.3827 27.1031 86.3827 27.1031H85.7299C85.7299 27.1031 85.4431 27.1031 85.3046 26.6181L84.909 25.4203C85.275 25.4203 87.3025 24.5393 87.3025 22.0845C87.3025 19.6296 86.1651 19.6098 85.453 19.5801H78.2825L78.2528 19.6098V19.6197Z" fill="#1E1E1E"/>
<path fill-rule="evenodd" clip-rule="evenodd" d="M61.7162 29.2803H64.9306L67.4922 19.6488H63.8228L62.458 24.2913L61.5777 20.3615C61.6074 20.3615 61.3206 19.6191 60.3019 19.6191H56.9193L54.1599 29.2506H57.9183L59.57 23.7568L60.4205 28.429C60.4205 28.429 60.5887 29.2308 61.6964 29.2506L61.7261 29.2803H61.7162Z" fill="#1E1E1E"/>
<path fill-rule="evenodd" clip-rule="evenodd" d="M51.4203 19.6191H55.0599L52.4983 29.2803H48.8586L51.4203 19.6191Z" fill="#1E1E1E"/>
<path fill-rule="evenodd" clip-rule="evenodd" d="M77.1748 19.6191L76.522 21.9849H72.4768L71.9922 23.7271H76.0077L75.3253 26.0929H71.3395L70.4592 29.2803H66.5327L69.035 20.3615C69.035 20.3615 69.2328 19.6191 70.0636 19.6488H77.2045L77.1748 19.6191Z" fill="#1E1E1E"/>
<path fill-rule="evenodd" clip-rule="evenodd" d="M122.938 19.6494H124.194L121.83 28.3405H127.299C127.299 28.3405 127.299 28.9938 127.131 29.1621H120.248L122.948 19.6494H122.938Z" fill="#1E1E1E"/>
<path fill-rule="evenodd" clip-rule="evenodd" d="M114.541 19.6494H120.97C120.97 19.6494 121.197 20.2235 120.623 20.4215H114.956L113.987 23.8663H119.338C119.338 23.8663 119.476 24.3513 119.199 24.6681H113.76L112.711 28.3405H118.378C118.378 28.3405 118.546 28.9641 118.181 29.1621H111.089L113.621 20.3324C113.621 20.3324 113.967 19.5603 114.531 19.6791V19.6494H114.541Z" fill="#1E1E1E"/>
<path fill-rule="evenodd" clip-rule="evenodd" d="M103.899 20.3324H107.598C107.598 20.3324 109.338 20.1641 109.309 22.7279C109.309 22.7279 109.22 23.9257 108.537 25.8064C108.537 25.8064 107.855 28.1722 105.353 28.4791H101.743L103.909 20.3621V20.3324H103.899ZM102.791 19.6494H108.567C108.567 19.6494 110.733 19.788 110.703 22.7576C110.703 22.7576 110.763 23.9257 109.932 26.2618C109.932 26.2618 109.081 28.9938 106.174 29.172H100.14L102.791 19.6593V19.6494Z" fill="#1E1E1E"/>
<path fill-rule="evenodd" clip-rule="evenodd" d="M151.541 19.6494H157.772C157.772 19.6494 159.077 19.7385 159.107 21.8172C159.107 21.8172 159.107 24.2424 156.941 24.579H154.468L156.259 28.2217C156.259 28.2217 156.397 28.4197 157.06 28.39H157.653L157.515 29.1918H155.467C155.467 29.1918 154.894 29.2512 154.557 28.2514L152.362 23.7178H155.833C155.833 23.7178 157.089 23.8861 157.623 22.4112C157.623 22.4112 157.821 21.8667 157.534 21.1045C157.534 21.1045 157.218 20.4215 156.506 20.4512H152.639L150.018 29.172H148.594L151.472 19.6593H151.531L151.541 19.6494Z" fill="#1E1E1E"/>
<path fill-rule="evenodd" clip-rule="evenodd" d="M141.126 19.6488H142.521L140.899 25.5188C140.899 25.5188 140.246 28.3399 143.094 28.3696C145.943 28.3993 146.625 25.7167 146.625 25.7167L148.336 19.6488H149.672L147.881 25.9444C147.881 25.9444 147.229 29.1318 143.104 29.1615C139.01 29.1912 139.633 25.3703 139.633 25.3703L141.116 19.6191L141.146 19.6488H141.126Z" fill="#1E1E1E"/>
<path fill-rule="evenodd" clip-rule="evenodd" d="M133.075 19.6494H138.565L138.08 21.6688H137.17C137.17 21.6688 136.883 20.3918 135.944 20.3918H133.837C133.837 20.3918 132.274 20.6789 132.185 22.134C132.185 22.134 131.839 23.698 133.293 23.6188H136.309C136.309 23.6188 138.644 23.985 138.416 25.8163C138.416 25.8163 138.555 29.1819 134.856 29.1819H132.067C132.067 29.1819 128.536 29.4986 129.396 26.4795H130.85L130.791 27.2219C130.791 27.2219 130.959 28.5583 132.245 28.4791H134.638C134.638 28.4791 136.774 28.1326 136.883 26.5983C136.883 26.5983 137.308 24.8363 135.459 24.579H132.442C132.442 24.579 129.821 24.579 130.988 21.3619C130.988 21.3619 131.582 19.7682 133.095 19.6494L133.065 19.6791L133.075 19.6494Z" fill="#1E1E1E"/>
</g>
<defs>
<clipPath id="clip0_7822_23307">
<rect width="185" height="43" fill="white"/>
</clipPath>
</defs>
</svg>
