<svg width="185" height="43" viewBox="0 0 185 43" fill="none" xmlns="http://www.w3.org/2000/svg">
<g clip-path="url(#clip0_7822_23281)">
<path d="M56.6127 13.71H54.3774V29.3103H56.6127V13.71Z" fill="#1E1E1E"/>
<path d="M68.0261 13.5117C62.705 13.5117 59.6885 17.4217 59.6885 21.5594C59.6885 25.9049 63.0215 29.5179 67.9173 29.5179C72.813 29.5179 76.4428 25.9742 76.4428 21.4901C76.4428 17.3029 73.2186 13.5117 68.036 13.5117M72.5955 25.5881C71.5174 26.7562 69.7174 27.4392 68.0459 27.4392C64.782 27.4392 61.9929 25.1031 61.9929 21.5594C61.9929 18.956 63.7534 15.6102 68.1151 15.6102C72.1801 15.6102 74.1482 18.8768 74.1482 21.4703C74.1482 22.8165 73.5746 24.5092 72.5955 25.5881Z" fill="#1E1E1E"/>
<path d="M86.719 20.1144L81.5266 13.71H79.4199V29.3103H81.665V17.1646L86.5113 23.2028H86.9168L91.7236 17.1646V29.3103H93.9588V13.71H91.8818L86.719 20.1144Z" fill="#1E1E1E"/>
<path d="M101.891 20.6292C102.712 20.6292 103.503 20.4312 104.146 19.8868C104.957 19.1938 104.957 18.2436 104.957 17.5903V13.7199H103.938V17.5903C103.938 18.2634 103.879 18.6197 103.74 18.8573C103.553 19.1839 103.048 19.7581 101.891 19.7581C101.06 19.7581 100.585 19.4908 100.289 19.1839C99.9228 18.8375 99.8338 18.4811 99.8338 17.5804V13.71H98.8052V17.5804C98.8052 18.0357 98.8052 18.8276 99.2008 19.4314C99.7645 20.2926 100.882 20.6193 101.891 20.6193" fill="#1E1E1E"/>
<path d="M114.521 20.5399V13.7197H113.571V19.0056L108.883 13.7197H108.082V20.5399H109.012V15.2837L113.67 20.5399H114.521Z" fill="#1E1E1E"/>
<path d="M102.049 25.2613L99.7348 22.46H98.7952V29.2802H99.804V23.9745L101.96 26.6075H102.148L104.284 23.9745V29.2802H105.283V22.46H104.354L102.049 25.2613Z" fill="#1E1E1E"/>
<path d="M109.002 22.46H108.003V29.2802H109.002V22.46Z" fill="#1E1E1E"/>
<path d="M114.976 26.7958H116.311V28.2212C115.648 28.4291 115.302 28.5182 114.788 28.5182C113.107 28.5182 111.989 27.3897 111.989 25.8752C111.989 24.2617 113.304 23.2422 114.689 23.2422C115.075 23.2422 116.014 23.3016 117.162 23.9549V22.9551C116.42 22.6483 115.688 22.3711 114.719 22.3711C112.335 22.3711 110.96 24.1331 110.96 25.9346C110.96 27.4887 112.068 29.3794 114.768 29.3794C115.935 29.3794 116.786 29.0527 117.32 28.8152V25.9346H114.986V26.7958H114.976Z" fill="#1E1E1E"/>
<path d="M122.414 26.0433C123.165 25.7562 123.581 25.1524 123.581 24.3605C123.581 23.6676 123.234 22.9945 122.493 22.6777C122.057 22.4897 121.622 22.46 121.296 22.46H119.555V29.2802H120.544V26.3106H120.811C121.286 26.3106 121.622 26.3106 122.315 27.1717C122.542 27.4588 123.511 28.9535 123.739 29.2802H124.926C124.451 28.617 124.273 28.3893 123.976 27.924C123.442 27.0827 123.056 26.4491 122.423 26.0433M121.899 25.3405C121.622 25.4395 121.088 25.4395 120.93 25.4395H120.544V23.2915H120.851C121.454 23.2915 121.781 23.331 122.038 23.4498C122.364 23.5983 122.572 23.9745 122.572 24.3605C122.572 24.7466 122.374 25.1623 121.909 25.3405" fill="#1E1E1E"/>
<path d="M128.971 22.4209L125.984 29.2807H127.003L127.883 27.2713H130.84L131.77 29.2807H132.788L129.673 22.4209H128.971ZM128.269 26.3903L129.307 23.9156L130.425 26.3903H128.259H128.269Z" fill="#1E1E1E"/>
<path d="M133.194 23.3211H135.578V29.2802H136.577V23.3211H139.01V22.46H133.194V23.3211Z" fill="#1E1E1E"/>
<path d="M141.779 22.46H140.78V29.2802H141.779V22.46Z" fill="#1E1E1E"/>
<path d="M147.565 22.3711C145.191 22.3711 143.846 24.0836 143.846 25.895C143.846 27.7956 145.339 29.3794 147.515 29.3794C149.691 29.3794 151.323 27.8253 151.323 25.8653C151.323 24.0341 149.889 22.3711 147.575 22.3711M149.602 27.6471C149.127 28.1618 148.316 28.4588 147.575 28.4588C146.121 28.4588 144.875 27.4392 144.875 25.8851C144.875 24.7468 145.656 23.2818 147.604 23.2818C149.424 23.2818 150.294 24.7171 150.294 25.8455C150.294 26.4395 150.037 27.172 149.602 27.6471Z" fill="#1E1E1E"/>
<path d="M158.513 22.46V27.7459L153.825 22.46H153.014V29.2802H153.954V24.0339L158.602 29.2802H159.463V22.46H158.513Z" fill="#1E1E1E"/>
<path d="M43.7353 11.7988C44.2694 12.2938 45.0211 13.155 45.0211 13.155C46.9992 15.3723 48.1563 18.3419 48.1563 20.9947C48.1563 21.0244 48.1563 21.064 48.1563 21.0937H44.8727C44.3782 15.9068 40.244 11.7988 35.2296 11.7988C29.8789 11.7988 25.5469 16.4116 25.5469 22.0935C25.5469 25.1819 26.9612 28.6365 29.2558 31.2102H31.313C30.7789 30.7153 30.0272 29.8541 30.0272 29.8541C28.0491 27.6368 26.892 24.6672 26.892 22.0143C26.892 21.9846 26.892 21.945 26.892 21.9153H30.1756C30.6701 27.1022 34.8043 31.2102 39.8187 31.2102C45.1694 31.2102 49.5113 26.5974 49.5113 20.9155C49.5113 17.8271 48.097 14.3725 45.7925 11.7988H43.7452H43.7353ZM43.5177 21.0937H41.8364V21.0541C41.8364 20.0544 41.5594 19.0843 41.0946 18.2132H42.7562C43.1518 19.1041 43.4188 20.0742 43.5177 21.0937ZM42.4595 17.6094H40.7385C40.0957 16.6393 39.2253 15.8375 38.2857 15.3228C38.7308 15.0654 39.1462 14.7585 39.5121 14.4121C40.7385 15.1941 41.7572 16.2928 42.4694 17.6094M35.6252 13.1649C36.8516 13.2242 38.0088 13.5707 39.0374 14.1349C38.1473 14.9664 36.9505 15.5009 35.6252 15.5801V13.1649ZM35.6252 16.0949C36.3373 16.0553 37.0197 15.8969 37.6428 15.6395C38.5626 16.0454 39.433 16.7383 40.0858 17.6094H35.6252V16.0949ZM35.0219 13.155V15.5801C33.6471 15.5207 32.4009 14.9565 31.4811 14.0854C32.5493 13.5113 33.746 13.1747 35.0219 13.1451M35.0219 16.0949V17.6094H30.4723C31.1251 16.7383 31.9954 16.0454 32.9152 15.6395C33.568 15.9068 34.2702 16.0751 35.012 16.1048M31.0163 14.3626C31.3921 14.7288 31.8174 15.0555 32.2822 15.3228C31.3427 15.8375 30.4723 16.6393 29.8294 17.6094H27.9997C28.7217 16.273 29.7701 15.1545 31.0163 14.3725M26.9216 21.3115C27.0008 20.2127 27.2777 19.1635 27.703 18.2132H29.4734C29.0085 19.0843 28.7316 20.0544 28.7316 21.0541C28.7316 21.1036 28.7316 21.2323 28.7316 21.3115H26.9216ZM31.5306 21.9153H33.2119C33.2119 21.9153 33.2119 21.945 33.2119 21.9549C33.2119 22.9547 33.4889 23.9247 33.9537 24.7958H32.2921C31.8965 23.905 31.6295 22.9349 31.5306 21.9153ZM32.5888 25.3997H34.3098C34.9526 26.3697 35.8329 27.1715 36.7626 27.6863C36.3175 27.9436 35.9021 28.2505 35.5362 28.5969C34.3098 27.8149 33.2911 26.7162 32.579 25.3997M39.4132 29.8343C38.1868 29.7749 37.0296 29.4284 36.001 28.8642C36.8912 28.0327 38.0879 27.4982 39.4132 27.419V29.8343ZM39.4132 26.9142C38.7011 26.9538 38.0187 27.1121 37.3956 27.3695C36.4758 26.9637 35.6153 26.2707 34.9527 25.3997H39.4132V26.9142ZM34.557 24.7958C34.0526 23.9445 33.746 22.9646 33.746 21.9549V21.3115H29.2558C29.2558 21.2323 29.2558 21.1234 29.2558 21.0541C29.2558 20.0445 29.5624 19.0645 30.0668 18.2132H40.4913C40.9957 19.0645 41.3023 20.0445 41.3023 21.0541C41.3023 21.064 41.3023 21.0838 41.3023 21.0937V21.6975H45.7925C45.7925 21.7767 45.7925 21.8856 45.7925 21.9549C45.7925 22.9646 45.4859 23.9445 44.9815 24.7958H34.5669H34.557ZM44.5661 25.3997C43.9134 26.2707 43.043 26.9637 42.1232 27.3695C41.4803 27.1022 40.7682 26.934 40.0264 26.9043V25.3898H44.5661V25.3997ZM40.0264 29.8442V27.419C41.4012 27.4784 42.6474 28.0426 43.5672 28.9137C42.499 29.4878 41.3023 29.8244 40.0264 29.8541M44.032 28.6365C43.6562 28.2703 43.2309 27.9436 42.7661 27.6764C43.7057 27.1616 44.576 26.3598 45.2189 25.3898H47.0486C46.3266 26.7261 45.2782 27.8446 44.032 28.6266M47.3453 24.7958H45.5749C46.0398 23.9247 46.3167 22.9547 46.3167 21.9549C46.3167 21.9054 46.3167 21.7767 46.3167 21.6975H48.1267C48.0475 22.7963 47.7706 23.8456 47.3453 24.7958Z" fill="#1E1E1E"/>
<path d="M35.6055 19.56C35.8428 19.56 36.0308 19.3719 36.0308 19.1443C36.0308 18.9166 35.8428 18.7285 35.6055 18.7285C35.3681 18.7285 35.1802 18.9166 35.1802 19.1443C35.1802 19.3719 35.3681 19.56 35.6055 19.56Z" fill="#1E1E1E"/>
<path d="M40.2143 19.8071C40.1847 19.7378 40.1253 19.6982 40.0462 19.6982H38.9088C38.8396 19.6982 38.7703 19.7378 38.7407 19.8071L37.9494 21.678H37.1681L36.3769 19.8071C36.3472 19.7378 36.2879 19.6982 36.2087 19.6982H34.9329C34.8636 19.6982 34.7944 19.7378 34.7647 19.8071L34.1021 21.4305C34.0625 21.5196 34.1021 21.6285 34.201 21.6582C34.2208 21.6582 34.2405 21.6681 34.2702 21.6681C34.3394 21.6681 34.4087 21.6285 34.4383 21.5592L35.0516 20.1734V21.8265L34.7054 24.024C34.6856 24.123 34.7548 24.2121 34.8537 24.2319C34.8537 24.2319 34.8735 24.2319 34.8834 24.2319C34.9724 24.2319 35.0417 24.1725 35.0614 24.0834L35.3878 22.0145H35.7637L36.09 24.0834C36.0999 24.1725 36.1791 24.2319 36.2681 24.2319C36.2681 24.2319 36.2879 24.2319 36.2977 24.2319C36.3966 24.2121 36.4659 24.123 36.4461 24.024L36.0999 21.8265L36.1593 20.1635L36.8912 21.9057C36.8912 21.9057 36.8912 21.9255 36.9011 21.9354C36.9011 21.9354 36.9011 21.9453 36.9109 21.9551C36.9109 21.9551 36.9208 21.965 36.9307 21.9749C36.9307 21.9749 36.9505 21.9848 36.9604 21.9848C36.9604 21.9848 36.9703 21.9848 36.9802 21.9848C36.9901 21.9848 37 21.9848 37.0099 21.9848L36.8615 23.3311C36.8516 23.3806 36.8615 23.44 36.9011 23.4795C36.9307 23.5191 36.9802 23.5488 37.0395 23.5488H37.1582L37.1384 24.0735C37.1384 24.1527 37.1978 24.222 37.2769 24.2319C37.356 24.2319 37.4253 24.1725 37.4253 24.0933L37.445 23.5587H37.5143H37.5835L37.6033 24.0933C37.6033 24.1725 37.6725 24.2319 37.7516 24.2319C37.8308 24.2319 37.9 24.1626 37.8901 24.0735L37.8703 23.5488H37.989C38.0385 23.5488 38.0879 23.529 38.1275 23.4795C38.1571 23.44 38.1769 23.3806 38.167 23.3311L38.0187 21.9848C38.0187 21.9848 38.0385 21.9848 38.0483 21.9848H38.0681C38.0681 21.9848 38.0879 21.9848 38.0978 21.9749C38.0978 21.9749 38.1077 21.965 38.1176 21.9551L38.1275 21.9354C38.1275 21.9354 38.1275 21.9156 38.1374 21.9156L38.8989 20.0942L39.0868 21.0247L38.2462 24.2418H40.4913L39.6506 21.0247L39.8385 20.0942L40.4814 21.5592C40.5111 21.6285 40.5803 21.6681 40.6495 21.6681C40.6693 21.6681 40.699 21.6681 40.7188 21.6582C40.8078 21.6186 40.8473 21.5097 40.8078 21.4206L40.0957 19.7972L40.2143 19.8071Z" fill="#1E1E1E"/>
<path d="M39.5022 19.56C39.7396 19.56 39.9275 19.3719 39.9275 19.1443C39.9275 18.9166 39.7396 18.7285 39.5022 18.7285C39.2648 18.7285 39.0769 18.9166 39.0769 19.1443C39.0769 19.3719 39.2648 19.56 39.5022 19.56Z" fill="#1E1E1E"/>
<path d="M37.5836 21.5495C37.7616 21.5495 37.9001 21.411 37.9001 21.2328C37.9001 21.0546 37.7616 20.916 37.5836 20.916C37.4056 20.916 37.2671 21.0546 37.2671 21.2328C37.2671 21.411 37.4056 21.5495 37.5836 21.5495Z" fill="#1E1E1E"/>
</g>
<defs>
<clipPath id="clip0_7822_23281">
<rect width="185" height="43" fill="white"/>
</clipPath>
</defs>
</svg>
