<svg width="50" height="50" viewBox="0 0 50 50" fill="none" xmlns="http://www.w3.org/2000/svg">
<path d="M0 0V50H50V0H0ZM26.3568 42.8237C25.6212 44.3221 24.2153 45.303 22.5806 45.7825C20.0741 46.3601 17.682 46.0277 15.9002 44.9597C14.7068 44.2295 13.7751 43.1016 13.143 41.8047C14.4126 41.031 15.6768 40.2517 16.9464 39.478C16.9791 39.4943 17.0772 39.6741 17.2134 39.9085C17.6983 40.7204 18.1179 41.298 18.9407 41.7012C19.7472 41.9791 21.5235 42.1534 22.2047 40.7313C22.6242 40.0065 22.488 37.6526 22.488 35.0806C22.488 31.0429 22.5044 27.027 22.5044 22.9893H27.1796C27.1796 27.2886 27.2014 31.5769 27.1796 35.8653C27.1905 38.4917 27.4194 40.8675 26.3514 42.8346L26.3568 42.8237ZM45.7552 41.505C44.1314 47.0684 35.0643 47.2483 31.4462 43.5702C30.6833 42.7038 30.1983 42.2515 29.7461 41.2544C31.0284 40.5169 32.2944 39.7868 33.544 39.0639C34.563 40.6277 35.5002 41.4887 37.1949 41.8374C39.4889 42.1153 41.7993 41.3306 41.2816 38.8895C40.7476 36.9006 36.5791 36.4156 33.7456 34.2851C30.8631 32.3507 30.1929 27.6482 32.5578 24.9673C33.3479 23.9756 34.6938 23.2345 36.1051 22.8749C36.5955 22.815 37.0913 22.7441 37.5763 22.6842C40.4043 22.6297 42.1698 23.3708 43.4721 24.8256C43.8317 25.1907 44.126 25.5885 44.6818 26.444C43.1724 27.403 43.1779 27.3921 41.0201 28.7925C40.5569 27.8008 39.794 27.1742 38.9876 26.9072C37.7343 26.5257 36.1486 26.9398 35.8217 28.2639C35.7073 28.6726 35.7291 29.0541 35.9143 29.7297C36.4211 30.8904 38.1266 31.3917 39.6578 32.0946C44.066 33.8819 45.5536 35.7945 45.9187 38.0776C46.2729 40.0392 45.8315 41.3143 45.7661 41.505H45.7552Z" fill="#4D94FE"/>
</svg>
