<svg width="51" height="100" viewBox="0 0 51 100" fill="none" xmlns="http://www.w3.org/2000/svg">
<g clip-path="url(#clip0_5541_1552)">
<path fill-rule="evenodd" clip-rule="evenodd" d="M49.212 80.465C49.1914 80.7775 49.703 81.4177 49.8891 81.6636C49.7754 81.848 50.1682 82.4114 50.1217 82.6316C50.0286 83.1079 49.8374 84.2706 50.0751 84.6599C50.1888 84.7879 50.3077 84.9211 50.4214 85.0543C50.5403 85.1311 50.7108 85.1311 50.7935 85.2386C50.8969 85.3718 50.9021 85.674 51.0054 85.7457C50.8969 85.843 50.9537 86.1094 50.8917 86.2528C50.7935 86.4781 50.5144 86.5345 50.4007 86.7394C50.318 86.8879 50.3594 87.0774 50.2405 87.1747C49.9098 87.4462 49.4705 87.2208 49.0777 87.3847C48.9071 87.4564 48.8761 87.6613 48.7521 87.7791C48.6332 87.8867 48.4937 87.9328 48.3593 88.0352C48.0647 88.2503 48.1215 89.0084 47.8476 89.1415C47.7598 89.1979 47.5582 89.2081 47.429 89.2132C47.3515 89.3976 47.1964 89.6076 47.1034 89.8125C47.0931 89.9354 47.0879 90.0584 47.0827 90.1813C47.0207 90.3657 46.9587 90.5501 46.8967 90.7344C46.9174 90.883 46.9432 91.0264 46.969 91.1749C46.9742 91.2979 46.5452 92.0149 46.4315 92.1635C46.2868 92.3581 46.1111 92.271 45.9457 92.3939C45.7545 92.5374 45.7287 92.8088 45.4082 92.8344H44.9173C44.8707 92.9164 44.8087 92.9061 44.757 92.9727C44.7002 93.1008 44.6485 93.2339 44.5917 93.362C44.4831 93.6488 44.664 94.1917 44.571 94.6066C44.478 95.0112 44.2971 95.3851 44.3384 95.8717C44.6072 96.0612 44.9741 96.1124 45.3876 96.1483C45.5064 96.2763 45.615 96.3583 45.6666 96.5632C45.708 96.7373 45.5995 96.8654 45.5736 96.9524C45.5581 97.1061 45.5426 97.2598 45.5271 97.4134C45.3979 97.8334 45.1033 98.4429 44.7364 98.658C44.4056 98.8475 43.9921 98.658 43.6872 98.8424C43.5839 98.9039 43.403 99.0319 43.3151 99.119C43.1187 99.329 43.2066 99.7029 42.8034 99.7183C42.359 99.9897 41.3408 100.215 41.0566 99.6722C40.9171 99.37 41.4029 99.2266 41.2168 98.7502C41.0618 98.6939 40.7878 98.6785 40.638 98.5863C40.4726 98.489 40.3227 98.3251 40.1056 98.2636C39.9092 98.2073 39.6147 98.2585 39.4079 98.151C39.3304 98.0588 39.2529 97.9666 39.1754 97.8744C38.7567 97.8744 38.3433 97.7719 37.966 97.6644C37.8161 97.6746 37.6714 97.6797 37.5267 97.6849C37.4595 97.6541 37.3872 97.6234 37.3148 97.5927C37.1081 97.608 36.8962 97.6234 36.6894 97.6388C36.3638 97.5824 36.0486 97.5415 35.785 97.4544C35.692 97.4646 35.5989 97.4698 35.5059 97.48C35.2423 97.4544 34.9788 97.4339 34.7152 97.4134C34.3586 97.3058 34.1312 96.9627 33.7642 96.8398C33.5627 96.8244 33.3611 96.809 33.1596 96.7937C32.4825 96.5683 31.6711 96.6451 30.9269 96.471C30.746 96.43 30.5599 96.5683 30.3015 96.4915C29.8416 96.3634 29.1128 96.1124 28.6735 95.9178C27.8053 95.5286 26.1721 95.6873 25.5571 95.0625C25.5519 94.8269 25.6139 94.7859 25.676 94.6476C25.5571 94.5964 25.5209 94.5042 25.4434 94.4171C25.4486 93.9561 25.5106 93.4081 25.4227 92.942C25.4382 92.7474 25.4537 92.5578 25.4692 92.3683C25.4279 92.2198 25.3504 92.0252 25.3762 91.8408C25.4641 91.1903 25.5158 90.4374 25.4434 89.792C25.4279 89.6332 25.5158 89.582 25.5364 89.4693C25.5158 89.2593 25.4899 89.0545 25.4692 88.8496C25.2935 88.3272 24.8542 88.0813 24.6061 87.6511C24.4201 87.3233 24.4149 86.8674 24.2805 86.4986C24.2134 86.3091 24.0221 86.2118 23.9343 86.0582C23.9136 85.966 23.8878 85.8738 23.8671 85.7816C23.7431 85.633 23.5053 85.5562 23.3813 85.4128C23.2107 85.2233 23.1694 84.9672 22.9626 84.8135C22.7869 84.706 22.606 84.5984 22.4303 84.4909C22.1357 84.1682 22.0582 83.1387 21.6861 82.9696C21.3553 82.8467 21.0194 82.7238 20.6886 82.6009C20.27 82.5087 19.7894 82.8006 19.6188 82.4165C19.2829 81.9043 20.0064 81.5304 20.1305 81.2641C20.1305 81.2641 19.8204 79.9426 19.7842 79.9016C19.7273 79.8197 19.624 79.7838 19.5516 79.7172C19.2157 79.835 18.5748 79.835 18.3423 79.6711C18.182 79.5585 18.1562 79.3331 17.9701 79.2307C17.7272 79.1026 17.5153 78.949 17.2931 78.8414C17.076 78.7338 16.7246 78.7236 16.5024 78.6109C16.3318 78.5238 16.213 78.1755 16.1044 78.0116C15.8202 77.5814 15.6651 76.9719 15.5463 76.3726V75.84C14.9519 75.5224 14.8951 74.5646 14.3627 74.2727C14.094 74.1241 13.8873 74.3956 13.6185 74.2931C13.1999 74.1395 12.7192 73.7963 12.3161 73.6222C12.2489 73.6324 12.1766 73.6375 12.1094 73.6478C11.7683 73.5505 11.3703 73.4224 11.2049 73.1407C11.1739 73.1305 11.1843 73.1612 11.1584 73.1202C10.9879 72.9922 10.931 72.7258 10.7398 72.6132C10.3884 72.4032 10.0214 72.3776 9.8302 72.0139C9.71133 72.0139 9.32888 72.0651 9.15316 72.0344C8.74487 71.9627 8.55882 71.8346 8.17637 71.8039C8.14536 71.7322 7.93863 71.4966 7.87145 71.4607C7.80426 71.4454 7.7319 71.43 7.66472 71.4146C7.44248 71.2251 7.05487 70.0471 7.15306 69.5708C7.26677 69.0073 7.66472 68.8281 7.78359 68.3517C7.84044 68.1161 7.75258 67.9727 7.80426 67.7781C7.89729 67.4554 8.00582 67.0457 8.1557 66.764C8.25389 66.5744 8.20738 66.431 8.38827 66.3286C8.35726 66.2722 8.34692 66.3183 8.3676 66.2569C8.41411 66.093 8.49163 65.9496 8.62601 65.8215C8.595 65.6832 8.56399 65.5449 8.53298 65.4067C8.19704 65.3298 8.06267 65.1915 7.90762 64.9457C7.92313 64.8381 7.93863 64.7306 7.95414 64.623C7.98515 64.6076 8.01616 64.5923 8.04717 64.5769C8.01099 64.4796 8.02649 64.0237 8.06784 63.952C8.00065 63.9213 8.03166 63.9725 7.99548 63.9059C7.79392 63.6345 7.91279 63.1684 7.7164 62.8457C7.61304 62.6716 7.22025 62.1235 7.0652 62.016C6.89465 61.893 6.63624 61.8008 6.55355 61.6011V61.2579C6.41918 60.9762 6.56906 60.7355 6.50704 60.4282C6.44502 60.126 6.28997 59.8596 6.22795 59.5728C6.18661 59.3731 6.22795 59.2143 6.18144 59.0196C6.10392 58.7021 5.80416 58.3948 5.66978 58.1233C5.58709 57.9492 5.57676 57.7136 5.46306 57.4779C5.39587 57.3448 5.21498 57.2475 5.15813 57.1092C4.98241 56.6789 5.11679 55.7519 5.03926 55.2397C5.0496 55.0758 5.05477 54.917 5.0651 54.7531C5.01342 54.5226 4.80152 54.2153 4.6258 54.1077C4.42941 53.9899 4.21751 54.0412 4.11415 53.8312C3.97461 53.5495 3.81956 52.3868 3.88158 52.1C3.9436 51.8182 3.7317 51.6851 3.78855 51.4341C3.8299 51.2395 3.90742 51.0039 4.02112 50.8348C4.02112 50.8297 3.99011 50.63 3.99528 50.5787C4.08831 50.5173 4.28987 50.4558 4.36739 50.3739C4.38807 50.2868 4.41391 50.2048 4.43975 50.1178C4.56895 49.9744 4.70333 49.8258 4.83253 49.6824C4.96691 49.6056 5.277 49.6722 5.3907 49.6363C5.53024 49.5595 5.76281 49.4058 5.87651 49.288C5.96437 49.1497 5.99021 48.991 6.08841 48.8732C5.91786 48.6427 6.12976 48.2841 6.1556 48.0178C6.01606 47.9563 5.7318 47.9615 5.55092 47.859C5.34936 47.7463 4.87905 47.2598 4.71366 47.0754C4.65165 46.9166 4.58963 46.7527 4.52761 46.5939C4.3984 46.4249 3.96944 46.3327 3.78338 46.0612C3.71103 45.9537 3.54048 45.6515 3.57666 45.4876C3.58182 45.4568 3.62317 45.4876 3.59733 45.4671C3.41127 45.1137 3.22522 44.6886 3.11152 44.243C3.12185 44.0483 3.12702 43.8588 3.13219 43.6693C3.0495 43.403 2.88411 43.1315 2.92546 42.8857C3.02366 42.2813 3.31824 41.6666 3.45779 41.0879C3.50947 40.883 3.39577 40.6884 3.36476 40.6064L3.45779 39.9354C3.56115 39.623 3.63867 39.1876 3.78338 38.9008C3.87124 38.7267 4.0418 38.6755 4.06247 38.4194C3.93843 38.2247 3.88158 37.9789 3.73687 37.7996C3.618 37.6511 3.41644 37.5896 3.31824 37.4052C3.21488 37.2157 3.18387 37.0569 3.065 36.8982C2.86344 36.6267 2.41381 36.5652 2.34145 36.1606C2.24325 35.9762 2.37246 35.5972 2.43448 35.423C2.44482 35.254 2.44998 35.085 2.46032 34.916C2.53784 34.6035 2.67222 34.327 2.57402 33.8557C2.45515 33.2718 2.32078 32.6777 2.10888 32.1758C2.12439 32.1348 2.13989 32.0989 2.15539 32.058C2.11405 31.9811 2.07787 31.9043 2.03653 31.8275C1.90732 31.3511 1.91249 30.9875 1.80396 30.4907C1.76261 30.296 1.34915 29.4765 1.45252 29.2921C1.35949 29.1077 1.18377 28.8926 1.10625 28.6929C1.07524 28.5341 1.04423 28.3702 1.01322 28.2114C0.961536 28.0578 0.460218 27.0692 0.362022 27.0129C0.25349 26.9617 0.0674337 26.9873 0.0364244 26.7824C0.186303 26.4648 0.124284 26.1473 0.22248 25.7683C0.294835 25.5019 0.491228 25.2458 0.568751 25.0307C0.703125 24.6824 0.780648 24.2983 0.92019 23.9449C0.925358 23.8475 0.935695 23.7451 0.940863 23.6478C1.00805 23.4019 1.12175 23.0332 1.17343 22.7719C1.21478 22.5466 1.11141 22.3212 1.19411 22.0549C1.28197 21.7732 1.66441 21.6707 1.77295 21.4095C1.95383 20.9946 1.91766 20.6105 2.00552 20.1854C2.03653 20.0471 1.93833 19.9088 1.959 19.7705C1.99518 19.54 2.09854 19.3505 2.02619 19.033C1.97968 18.8178 1.93833 18.4491 1.84013 18.2288C1.76778 18.0649 1.58689 17.8652 1.53521 17.6961C1.52487 17.5886 1.5197 17.481 1.51454 17.3735C1.46285 17.2352 1.34398 17.0559 1.30264 16.9125V16.7025C1.27163 16.6154 1.16826 16.5027 1.14242 16.4054C1.08557 16.2057 1.11658 15.9854 1.0494 15.8318C0.935695 15.5706 0.723798 15.3606 0.511901 15.1864C0.25349 14.9713 0.129452 14.4591 0.0467608 14.0801C-0.020426 13.7728 0.22248 12.7433 0.305172 12.5333C0.372359 12.3642 0.573919 12.2772 0.604929 12.0979C0.501564 11.7906 1.24062 10.7201 1.46802 10.5767C1.60756 10.4845 2.07787 10.4435 2.21225 10.3462C2.36729 10.2284 2.3828 10.0235 2.512 9.88524C2.64121 9.77768 2.77558 9.67012 2.90995 9.56256C3.23038 9.20915 3.43711 8.72257 3.67485 8.29233C3.78338 8.0977 4.02112 8.02087 4.13999 7.78526C4.27437 7.5138 4.27953 7.24747 4.41908 7.00161C4.52761 6.88381 4.63614 6.77113 4.74467 6.65332C4.79119 6.57137 4.75501 6.42796 4.77051 6.37674C4.83253 6.11552 4.98241 5.97723 5.09611 5.80309C5.01859 5.76211 5.02376 5.74163 5.02893 5.6187C5.07027 5.49578 5.10645 5.37285 5.14779 5.24992C5.2925 5.1987 5.47339 5.08602 5.61293 4.99383C5.58192 4.86578 5.90235 4.55847 5.96437 4.39457C5.96954 4.27164 5.97988 4.14872 5.98505 4.02579C6.14009 3.39067 6.0574 2.93995 6.07807 2.3202C6.16593 2.28434 6.12459 2.32532 6.14526 2.228C5.99021 2.14605 5.93853 1.80288 6.00572 1.62874C6.07807 1.43923 6.20728 1.38801 6.33132 1.25996C6.33132 1.25996 6.63107 0.732407 6.63107 0.727285C6.65691 0.614603 6.67759 0.4968 6.69826 0.384118C6.76545 0.291924 6.88948 0.276558 6.97734 0.199729C7.0497 0.138267 7.11689 -0.0205124 7.2771 0.0153409C7.43732 0.0511942 7.7009 0.0358285 7.90762 0.133145C8.08334 0.215095 8.26423 0.419971 8.41928 0.527531C8.56399 0.624847 8.67252 0.594116 8.81723 0.711919C8.93093 0.624847 9.41158 0.870698 9.51494 0.942405C9.80436 0.870698 10.4711 1.16777 10.7243 1.26508H11.0034C11.2566 1.34191 11.5874 1.51094 11.8406 1.56728C11.882 1.57752 11.9595 1.51094 11.9802 1.52118C12.4246 1.69532 12.9725 1.92069 13.3291 2.04874C13.4221 2.08459 13.6599 2.0641 13.7942 2.12044C13.8201 2.04874 13.7891 2.08971 13.8407 2.04874C13.8821 2.16654 13.9855 2.16654 14.0475 2.25873C14.0992 2.23312 14.0992 2.22288 14.187 2.21264C14.218 2.28947 14.1973 2.29459 14.28 2.32532C14.28 2.32532 14.802 2.47385 14.8124 2.4841C14.8227 2.49946 14.8279 2.51483 14.833 2.53019C14.9312 2.59166 15.1483 2.5558 15.231 2.59678V2.61727C15.3602 2.74531 15.7788 2.83751 15.7892 2.84775C15.9804 2.97068 16.2646 2.99629 16.4404 3.07824C16.6419 3.17043 16.8848 3.35994 17.0709 3.4675C17.1639 3.52384 17.5774 3.55457 17.7427 3.62628C17.8926 3.68774 17.9753 3.81579 18.0477 3.88238C18.1924 4.01042 18.5852 4.12311 18.7919 4.23067C18.8539 4.2614 19.2209 4.43042 19.164 4.46115C19.6447 4.61481 19.9858 4.63017 20.4199 4.80944C20.9315 5.01944 21.3553 5.24992 21.7895 5.42919C22.0014 5.45992 22.2081 5.49065 22.42 5.52138C22.5905 5.5726 22.7611 5.62894 22.9316 5.68529C23.0402 5.67504 23.1487 5.66992 23.2572 5.65968C23.6449 5.73138 24.079 5.83894 24.3942 5.98236C24.5648 6.05918 25.0196 6.03357 25.3245 6.14113C25.8 6.31016 26.2496 6.68918 26.6734 6.95039C26.7923 7.0221 27.1644 7.2782 27.2523 7.27307C27.4487 7.26283 27.8776 7.48307 27.9241 7.39088C28.1929 7.63161 28.5495 7.71868 28.8337 7.89795C29.2162 8.1438 29.5263 8.39989 30.0896 8.43062C30.2188 8.52282 30.5806 8.6355 30.7615 8.66111C30.8235 8.65599 30.8855 8.64574 30.9476 8.6355C31.2731 8.78916 31.5987 8.87623 31.9709 9.09647C32.1569 9.20403 32.3998 9.18354 32.5032 9.32696C32.927 9.89549 32.6944 10.2489 32.4567 10.8482C32.1828 11.5396 32.0639 12.2055 31.7796 12.8047C31.6969 12.9738 31.5419 13.2759 31.5471 13.4245C31.3197 13.4655 31.3403 13.9623 31.268 14.2542C31.175 14.6384 31.0819 15.2171 30.9165 15.6167H30.8235C30.7925 15.9701 30.5599 16.4413 30.4256 16.7896C30.286 17.1532 30.2964 17.5118 30.1465 17.8498C29.9966 18.1827 29.795 18.5874 29.6813 18.9356C29.5935 19.2071 29.5573 19.5554 29.5625 19.8781C29.5625 20.083 29.3919 20.3237 29.3092 20.4517C29.2265 20.5747 29.242 21.0254 29.1438 21.261C29.0508 21.3839 28.9578 21.5068 28.8648 21.6298C28.7872 21.7527 28.627 22.0959 28.6787 22.229C28.5288 22.5671 28.3014 22.8129 28.167 23.151C28.0637 23.4071 28.074 23.6119 27.981 23.868C27.6709 24.6978 27.2936 25.6146 26.9112 26.3778C26.6786 26.8387 26.8853 27.3919 26.7251 27.8785C26.4822 28.6058 26.0532 29.1333 25.8413 29.8863C25.7845 30.0911 25.8465 30.2755 25.8207 30.4394C25.6915 31.1616 25.371 31.8172 25.1436 32.3294C25.092 32.5343 25.0351 32.7443 24.9834 32.9492C24.9369 33.0465 24.8129 33.1233 24.7509 33.2053C24.6475 33.3384 24.4459 34.2245 24.4718 34.3782C24.5028 34.5677 24.7715 34.8033 24.8697 34.9518C25.1436 35.3821 25.5313 35.8891 25.8672 36.3347C25.9085 36.386 25.9034 36.5652 25.893 36.5857C26.0016 36.8008 26.1101 37.016 26.2186 37.2311C26.3117 37.5896 26.4047 37.9533 26.4977 38.3118C26.6683 38.6959 27.0404 39.0442 27.2884 39.372C27.4435 39.5769 27.4952 39.8432 27.6606 40.0379C27.7536 40.1506 27.888 40.2428 27.9603 40.3862C28.5598 41.5232 29.0301 42.7371 29.7072 43.8434C29.7434 43.9664 29.7847 44.0893 29.8209 44.2122C29.9242 44.3659 30.0224 44.5195 30.1258 44.6732C30.2395 44.9344 30.3584 45.1956 30.4721 45.4568C30.6064 45.6771 30.8545 45.7488 30.9837 45.8973C31.206 46.1483 31.2783 46.4966 31.4282 46.8193C31.5884 47.0446 31.7538 47.2649 31.914 47.4902C32.0846 47.7822 32.1724 48.0537 32.3326 48.3661C32.4928 48.6785 32.7668 48.9756 32.9115 49.3136C33.1492 49.8514 33.2526 50.2817 33.5627 50.7426C33.6815 50.9219 33.8934 51.0602 34.002 51.2497C34.2345 51.6441 34.3689 52.1973 34.679 52.5865C34.8961 52.858 35.2113 53.0885 35.3974 53.4368C35.7023 53.9951 35.6765 54.7224 36.0279 55.2141C36.2088 55.4702 36.4982 55.6546 36.6791 55.9055C36.8755 56.177 37.0874 56.4894 37.2373 56.7814C37.3303 57.0119 37.4233 57.2423 37.5164 57.4728C37.9402 57.9031 38.2709 58.3845 38.612 58.9018C38.7671 59.2757 38.9221 59.6548 39.0772 60.0338C39.1082 60.2643 39.1392 60.4947 39.1702 60.7252C39.3666 61.0889 39.7542 61.5038 40.054 61.7855C40.1005 61.8111 40.147 61.8316 40.1935 61.8521C40.3796 62.0979 40.5294 62.4923 40.6121 62.7484C40.6225 62.8406 40.6276 62.9328 40.6328 63.025C40.7052 63.194 40.8395 63.3425 40.9119 63.5781C40.9584 63.5679 40.9274 63.5423 40.9584 63.5781C41.1755 63.7881 41.2168 64.1672 41.377 64.4335C41.6974 64.9662 42.1833 65.4066 42.4468 65.9752C42.6019 66.3132 42.5657 66.7742 42.7466 67.0815C42.8913 67.23 43.0412 67.3735 43.1859 67.522C43.4133 67.8396 43.6097 68.2032 43.8113 68.5361C44.08 68.9715 44.2247 69.4581 44.5348 69.8525C44.5968 69.9908 44.6588 70.129 44.7209 70.2673C44.9689 70.549 45.3307 70.8359 45.5116 71.1637C45.8475 71.7681 45.8114 72.608 46.1163 73.2841C46.354 73.8014 46.7261 74.2317 47 74.6875C47.1758 74.9846 47.2274 75.3636 47.4445 75.6351C47.7856 76.0704 48.1991 76.5058 48.5143 76.9719C48.7004 77.2485 48.7469 77.5558 48.933 77.8477C49.0983 78.109 49.3516 78.3651 49.4239 78.7236C49.5015 79.1231 49.1242 79.538 49.026 79.8299C48.9485 80.0707 48.9433 80.4445 49.212 80.4753V80.465Z" fill="#003AFC"/>
<path fill-rule="evenodd" clip-rule="evenodd" d="M8.9773 75.2561C9.89725 75.2407 9.97477 75.758 10.2125 76.4085C10.2435 76.4904 10.4037 76.9258 10.3727 76.9617C10.321 77.0385 10.2642 77.1153 10.2125 77.1922C9.92826 77.2229 9.51997 77.3919 9.1892 77.2843C9.12718 77.2434 9.06516 77.2075 9.00314 77.1665C8.90495 77.1973 8.80158 77.228 8.70339 77.2587C8.43981 77.2997 8.07286 77.0283 8.02635 76.8439C7.85063 76.5109 7.88681 76.0397 7.81445 75.671C7.88681 75.5992 7.90231 75.5122 8.00051 75.461C8.11938 75.3841 8.37779 75.3124 8.51216 75.2766C8.69822 75.2253 8.84293 75.3483 8.9773 75.2561Z" fill="#003AFC"/>
<path fill-rule="evenodd" clip-rule="evenodd" d="M10.8852 75.2817C11.6863 75.3329 11.9498 76.5314 12.5597 76.8746C12.8439 77.0334 13.4331 77.0539 13.5623 77.3612C13.6192 77.4431 13.6192 77.5763 13.5623 77.6582C13.5313 77.7299 13.5416 77.7197 13.4693 77.7504C13.061 78.0219 12.5132 77.6429 12.2341 77.566C11.893 77.4739 11.5726 77.607 11.3038 77.4739C10.7301 77.187 10.4304 76.2497 10.4459 75.4456C10.5182 75.3944 10.5337 75.379 10.6785 75.379C10.7456 75.3483 10.818 75.3175 10.8852 75.2868V75.2817Z" fill="#003AFC"/>
<path fill-rule="evenodd" clip-rule="evenodd" d="M18.093 83.9019C18.6409 83.9172 19.442 84.6548 19.5815 85.0748C19.7831 85.6894 19.5557 86.3655 18.9303 86.3655C18.4342 86.0838 18.367 85.9813 18.1602 85.4231C18.1551 85.3309 18.1447 85.2387 18.1396 85.1465C18.0775 85.0748 18.0155 85.0082 17.9535 84.9365C17.845 84.747 17.7364 84.3833 17.7468 84.1784C17.8605 84.0811 17.969 83.994 18.093 83.9019Z" fill="#003AFC"/>
<path fill-rule="evenodd" clip-rule="evenodd" d="M16.6524 87.5231C16.7299 87.5333 16.8074 87.5384 16.885 87.5436C17.3863 87.7331 17.6085 88.8292 17.8617 89.3157C17.9444 89.4796 18.2184 89.705 18.1667 89.915C18.1202 90.0379 18.0271 90.1147 17.8617 90.1199C17.7015 90.0226 17.6085 90.1404 17.3966 90.0738C16.8074 89.8843 16.027 89.3157 16.1872 88.5065C16.2648 88.1275 16.1614 87.7382 16.4663 87.6101C16.5283 87.5794 16.5904 87.5487 16.6524 87.5179V87.5231Z" fill="#003AFC"/>
</g>
<defs>
<clipPath id="clip0_5541_1552">
<rect width="51" height="100" fill="white"/>
</clipPath>
</defs>
</svg>
