<svg width="100" height="100" viewBox="0 0 100 100" fill="none" xmlns="http://www.w3.org/2000/svg">
<g clip-path="url(#clip0_2682_28961)">
<path d="M43.8998 77.1C44.3998 77.6 44.7998 77.2 45.3998 77.4C46.1998 77.7 46.1998 78.7 47.1998 78.7C47.4998 78.7 48.0998 78.4 48.3998 78.4C48.7998 78.5 48.7998 78.9 49.1998 79.2C49.5998 79.5 50.3998 79.5 50.7998 79.7C51.1998 79.9 51.5998 80.2 52.0998 80.4C52.2998 80.4 52.4998 80.4 52.7998 80.4C53.1998 80.6 53.2998 81.1 53.7998 81.4C54.5998 81.9 55.4998 82.1 56.1998 82.7C56.9998 83.5 57.6998 83.8 58.7998 83.6C59.4998 83.5 59.5998 83.5 60.1998 83.6C60.9998 83.7 61.8998 83.5 62.5998 83.1C63.2998 82.7 63.7998 82.4 64.5998 82.2C65.0998 82.1 65.8998 82 65.8998 81.2C65.8998 80.9 65.3998 80.2 65.8998 80.1C66.0998 80.8 66.6998 80.8 67.1998 80.3C67.4998 80.7 67.0998 81.2 67.8998 81.4C68.6999 81.5 68.5998 81.1 69.1998 81.6C69.3998 81.7 69.5998 82.1 69.8998 82.4C69.9998 82.5 69.9998 82.6 70.0998 82.7C70.1998 82.9 70.2998 83.1 70.5998 83.2C70.8998 83.4 70.9998 83.5 71.3998 83.7C71.6999 84 72.1998 84.4 72.4998 84.7C72.5998 84.8 72.5998 84.8 72.6998 84.9C73.0998 85.7 73.6998 86.4 74.1998 87.1C74.2998 87.3 74.4998 87.5 74.5998 87.6C74.6998 87.5 74.7999 87.4 74.7999 87.3L74.8998 86.5V86.4L75.1998 85.7L74.9998 84.8C74.9998 84.7 74.9998 84.6 74.9998 84.6L77.0998 81.4C77.1998 81.3 77.1999 81.3 77.2999 81.3L81.8998 81.2L81.9998 80.4L81.5998 80C81.5998 80 81.5998 79.9 81.4998 79.9L80.9998 79.2L79.3998 78L79.2999 77.9L78.7999 76.8C78.6999 76.7 78.7999 76.6 78.7999 76.5C78.8998 76.4 78.9998 76.4 79.0998 76.4H80.2999L80.5998 74.1C80.5998 73.9 80.7999 73.8 80.8998 73.8L87.0998 73.9C87.0998 73.9 87.0998 73.9 87.0998 73.8L87.7999 73.1C87.8998 73 88.0998 73 88.1998 73.1L88.4998 73.3L89.4998 72.3L89.8998 71.3C89.8998 71.2 89.9998 71.1 90.0998 71.1L91.0998 71C91.0998 71 91.0998 70.9 91.1998 70.9C91.2998 70.7 91.8998 70.1 92.1998 70.2C92.1998 70.5 91.9998 70.7 91.9998 71.1C91.9998 71.4 92.2999 72.1 92.4998 72.3C92.3998 71.5 93.2998 70.3 93.5998 69.8C93.7998 69.5 94.7998 68.7 94.5998 68.2C94.3998 67.9 94.0998 68.2 93.6998 67.9C93.8998 67.7 94.0998 67.7 94.3998 67.5C94.5998 67.4 95.1998 66.6 94.6998 66.4C94.4998 66.3 93.9998 66.8 93.9998 66.3C93.9998 65.9 94.7999 65.8 94.9998 65.6C95.3998 65.4 95.2999 65.1 95.3998 64.5C95.4998 64.1 95.6999 63.7 95.7999 63.3C95.9998 62.8 96.0998 62.2 96.4998 61.8C96.7999 61.3 97.3998 61 97.7999 60.7C98.2999 60.3 98.7998 59.3 98.1998 58.7C97.9998 58.5 97.6999 58.3 97.3998 58.2C97.0998 58 96.9998 58.1 96.6998 58.2C96.3998 58.3 96.1999 58.4 95.8998 58.6C95.6999 58.8 95.7998 58.8 95.5998 58.9C95.2998 59 94.5998 58.7 94.3998 58.6C93.5998 58.3 93.0998 57.5 92.1998 57.8C91.7998 58 91.6998 58.1 91.0998 58.2C90.5998 58.3 89.9998 58.3 89.3998 58.4C88.1999 58.5 86.7999 58.8 85.8998 59.6C84.8998 60.4 84.7999 61.7 84.3998 62.8C84.2999 63.1 84.1999 63.6 83.8998 63.9C83.6999 64.1 83.1998 64.1 82.9998 64.3C82.7999 64.5 82.5998 65.2 82.4998 65.5C82.3998 65.9 82.1998 66.5 81.9998 66.9C81.8998 67.4 81.7998 67.9 81.1998 68.2C80.9998 68.4 80.6999 68.5 80.2999 68.5C80.0999 68.6 79.4998 68.6 79.3998 68.7C79.1999 69 79.4998 69.5 79.5998 69.7C79.6998 69.9 79.7998 70.9 79.5998 71.1C79.4998 71.2 78.8998 71.1 78.7999 71.2C78.4998 71.2 77.8998 71.3 77.6998 71.1C77.4998 70.9 77.4998 70.2 77.5998 70C76.8998 69.6 76.4998 69.9 75.7999 70.1C75.3998 70.2 74.3998 70 74.1998 70.3C74.0998 70.4 74.0998 70.6 73.8998 70.8C73.6999 71 73.4998 70.9 73.1998 71C72.7998 71 72.2999 71.1 71.9998 71.4C71.8998 71.5 71.7998 71.6 71.6998 71.7C71.5998 71.7 71.4998 71.8 71.3998 71.8C70.6999 72 70.0998 72 69.3998 72.2C68.3998 72.4 68.0998 72.6 67.1998 71.8C66.6998 71.3 66.4998 70.7 65.6998 70.8C65.5998 70.4 65.4998 70.3 65.1998 70.1C64.4998 69.9 64.1998 70.3 63.6998 70.3C62.8998 70.4 62.9998 69.3 62.8998 68.8C62.6998 68 62.0998 67.4 61.8998 66.6C61.7998 66.2 61.8998 65.7 61.7998 65.3C61.6998 64.4 60.7998 63.9 60.4998 63.1C60.1998 62.4 60.0998 61.7 59.7998 61C59.5998 60.5 59.2998 60.3 58.8998 59.9C58.5998 59.5 58.5998 59.1 58.5998 58.7C58.5998 57.4 57.8998 56.2 58.1998 54.8C58.3998 53.8 58.6998 53 58.6998 52H58.7998C58.9998 51.2 59.0998 50.4 59.2998 49.6C59.4998 49.2 59.6998 48.7 59.7998 48.3C59.8998 47.9 59.8998 47.4 59.9998 47C60.1998 46.2 60.7998 45.5 60.9998 44.7C61.1998 44 61.2998 43.3 61.7998 42.7C62.0998 42 62.9998 41.5 63.3998 40.9C63.2998 40.9 63.1998 40.9 63.1998 40.9C62.6998 40.9 62.3998 40.5 62.1998 40.1C62.0998 40 62.0998 39.9 61.9998 39.9C61.8998 39.8 61.7998 39.8 61.5998 39.7C61.3998 39.6 61.0998 39.6 60.6998 39.3C60.4998 39.2 60.3998 39.2 60.1998 39.2C59.8998 39.2 59.4998 39.3 59.0998 39.1C58.3998 38.7 57.5998 38.3 57.0998 38.2C56.5998 38.1 56.3998 37.3 56.2998 36.6C56.1998 36.3 56.1998 35.8 56.0998 35.6C55.8998 35.1 55.9998 34.5 56.0998 34.3L55.5998 32.3C55.5998 32.3 54.7998 30.5 54.3998 29.7C54.0998 29.2 54.1998 28.9 54.1998 28.5C54.1998 28.2 54.2998 27.7 54.2998 26.8C54.2998 26.3 54.2998 26 54.2998 25.9C54.2998 25.9 54.2998 25.9 54.1998 25.9C53.9998 26 53.4998 26.2 53.1998 25.8C52.7998 25.3 52.4998 24.7 52.4998 24.3C52.4998 24.2 52.2998 24.1 52.1998 24.1C52.0998 24 51.9998 24 51.9998 23.9C51.9998 23.9 51.5998 23.9 51.0998 23.9C50.5998 23.9 49.7998 23.9 48.7998 23.9C48.0998 23.9 47.7998 23.9 47.6998 23.9C47.6998 24 47.7998 24.3 47.5998 24.4C47.5998 24.4 47.4998 24.6 47.3998 24.8C47.1998 25.3 46.8998 26.2 46.0998 26.9C45.0998 27.7 44.6998 27.4 44.3998 27C44.2998 26.9 44.2998 26.9 44.1998 26.8C43.8998 26.7 43.7998 26.5 43.4998 26.4C43.2998 26.3 43.1998 26.1 42.7998 26C42.2998 25.7 41.3998 24.9 40.5998 23C40.1998 21.9 40.1998 21.5 40.5998 21.3C40.5998 21.3 40.6998 21.2 40.6998 21.1C40.6998 20.7 40.7998 20.3 40.8998 20.2C40.6998 20.2 40.4998 20.2 40.3998 20.3C40.1998 20.3 39.9998 20.4 39.6998 20.4C39.2998 20.4 39.1998 20.3 38.9998 20.1C38.8998 19.8 39.0998 19.4 39.1998 19.2L38.8998 18L37.6998 16.8L37.5998 16.7L37.3998 16L31.5998 15.9L31.0998 17.5C31.0998 17.6 30.8998 17.7 30.7998 17.7H21.1998H20.9998L9.49984 12.7C9.39984 12.7 9.29984 12.6 9.29984 12.5C9.29984 12.4 9.29984 12.3 9.39984 12.2L9.59984 12L1.79984 13C1.79984 13 1.79984 13.1 1.79984 13.2C1.79984 13.6 2.09984 14 2.09984 14.5C2.09984 14.7 2.09984 14.9 2.19984 15.3C2.19984 15.5 2.29984 15.6 2.29984 15.8C1.59984 15.7 1.99984 17.2 2.09984 17.5C2.19984 17.8 2.29984 18 2.29984 18.4C2.29984 18.5 2.29984 18.7 2.29984 18.8C2.39984 19 2.49984 19.1 2.59984 19.3C2.79984 19.7 2.39984 20.1 2.19984 20.4C1.99984 21.5 2.39984 21.5 2.69984 22C2.99984 22.5 2.69984 22.9 2.49984 23.2C2.19984 23.9 2.79984 24.1 2.79984 24.6C2.79984 24.9 2.59984 24.9 2.89984 25.1C2.99984 25.2 3.19984 25.2 3.39984 25.3V25.4C3.49984 25.8 3.69984 25.8 4.09984 25.9C4.79984 26.2 4.79984 27.2 5.39984 27.6C5.79984 27.9 6.29984 27.9 6.39984 28.5C6.49984 28.8 6.49984 29.4 6.39984 29.7C6.29984 30.1 5.99984 30.7 5.59984 31.1C5.39984 31.5 5.09984 31.6 5.29984 32.2C5.39984 32.4 5.69984 33.4 5.19984 33.3C4.99984 33.2 4.69984 32.3 4.49984 32.2C4.09984 32.4 4.19984 32.7 3.49984 32.6C2.99984 32.5 2.49984 32.4 1.99984 32.4C1.19984 32.4 1.19984 32.9 1.89984 33.4C2.79984 33.7 3.39984 33.5 3.39984 34.4C3.39984 34.5 3.29984 34.8 3.39984 34.9C3.49984 35.1 3.69984 35 3.79984 35C4.09984 35.2 3.99984 35.8 4.29984 36C4.79984 36.4 5.19984 35.3 5.39984 36C5.69984 36.7 5.19984 37 6.19984 37C6.49984 37 6.49984 37.1 6.69984 36.9C6.89984 36.7 6.99984 36.5 7.09984 36.2C7.49984 35.5 7.79984 36.3 7.79984 36.7C7.79984 37.6 8.19984 37.9 8.89984 38.3C9.29984 38.6 10.0998 39 9.99984 39.6C9.99984 39.8 9.89984 40 9.89984 40.3C9.89984 40.6 10.1998 41 10.2998 41.4C10.4998 42.3 9.79984 42.6 9.39984 43.2C9.19984 43.6 9.29984 44.2 9.49984 44.6C9.59984 44.8 9.79984 45.9 9.99984 46.1C10.4998 46.4 10.3998 45.8 10.7998 46.5C10.9998 47 11.4998 47.4 11.9998 47.6C12.3998 47.8 12.7998 48.1 13.0998 48.5C13.3998 48.9 13.8998 49 14.1998 49.5C14.3998 49.7 14.3998 50 14.4998 50.4C14.6998 50.8 14.9998 50.8 15.3998 51.2C15.7998 51.6 15.5998 52.5 15.4998 53C16.8998 53 17.8998 52.3 17.7998 50.8C17.7998 50.4 17.4998 50.1 17.3998 49.8C17.1998 49.5 17.0998 49 16.8998 48.6C16.6998 48.3 16.4998 48.1 16.3998 47.7C16.2998 47.5 16.2998 47.2 16.1998 46.9C15.6998 46.2 15.3998 47.3 15.4998 47.8C14.9998 48 14.9998 47.6 14.7998 47.1C14.0998 46.9 13.8998 46.9 13.7998 46.1C13.7998 45.6 14.0998 45.7 14.4998 45.2C14.6998 45 14.5998 44.7 14.4998 44.3C14.4998 44.1 14.4998 43.9 14.4998 43.6C14.3998 43.3 13.9998 43.1 13.7998 42.8C13.5998 42.4 13.9998 42.3 13.9998 41.8C13.9998 41.6 13.7998 41.1 13.6998 41C13.4998 40.7 13.2998 40.2 13.2998 39.9C13.2998 39.5 13.5998 39 13.5998 38.6C13.5998 38.2 13.5998 37.5 13.4998 37.1C13.3998 36.8 13.0998 36.6 12.9998 36.1C12.9998 35.9 12.9998 35.7 12.9998 35.4C12.5998 35.4 12.5998 36.7 12.5998 36.9C12.1998 36.9 12.4998 35.4 12.3998 35.1C12.2998 34.8 12.0998 34.4 11.9998 34.1C11.7998 33.8 11.8998 33.6 11.7998 33.1C11.6998 32.2 10.6998 32.1 10.7998 31C10.8998 30.7 11.0998 30.2 11.1998 29.9C11.2998 29.4 10.3998 29.1 10.6998 28.7C9.89984 28.3 10.4998 27.5 9.79984 27.3C9.99984 26.9 9.49984 27 9.29984 26.6C9.19984 26.3 9.39984 25.7 9.19984 25.4C8.99984 25 8.69984 24.6 8.39984 24.2C8.29984 24 8.29984 23.8 8.19984 23.5C7.89984 24 7.69984 24 7.49984 23.8C7.09984 23.5 6.99984 22.9 6.99984 22.5C6.99984 22.3 6.99984 22.1 6.99984 21.7C7.19984 21.4 7.29984 21.2 7.39984 20.7C7.39984 20.5 7.39984 20.2 7.39984 19.9C7.39984 19.7 7.59984 19.5 7.59984 19.1C7.69984 18.7 7.59984 18.1 7.69984 17.7C7.79984 17 8.39984 16.7 8.69984 16.1C8.79984 16 8.79984 15.9 8.79984 15.8C9.09984 15.9 9.29984 16 9.59984 16.2C9.99984 16.9 10.2998 17 11.0998 16.6C11.5998 16.4 11.8998 15.9 12.2998 16.5C12.3998 16.7 12.3998 16.9 12.5998 17.2C12.9998 17.6 13.4998 17.4 13.9998 17.7C15.2998 18.5 13.4998 19.2 13.0998 19.9H12.9998C12.4998 21.4 13.3998 22.3 13.6998 23.7C13.6998 24.1 13.6998 24.8 13.9998 25.1C14.1998 25.3 14.2998 25.2 14.3998 25.5C14.1998 26 14.1998 26.4 14.1998 26.7C14.0998 27.2 14.1998 27.6 14.1998 28.1C14.1998 29 14.3998 29.2 14.9998 29.8C15.1998 30.1 15.1998 30.6 15.3998 30.8C15.6998 31.1 16.1998 31 16.4998 31.2C16.8998 31.5 16.6998 31.7 17.1998 31.9C17.4998 32 17.9998 31.8 18.1998 32.1C18.8998 32.8 17.1998 33.4 17.6998 34.3C17.8998 34.8 18.8998 35 19.0998 35.4C19.3998 35.5 19.5998 35.5 19.7998 35.7C19.8998 36 19.5998 36.5 19.5998 36.7C19.9998 37 20.6998 37 20.9998 37.3C21.2998 37.6 21.0998 38.4 21.2998 38.8C21.4998 39.2 21.6998 39.1 21.1998 39.5C20.8998 39.7 20.7998 39.6 20.4998 39.9C20.2998 40.2 19.6998 41.6 20.5998 41.4C20.7998 41.3 21.0998 40.5 21.5998 41.2C21.7998 41.6 21.1998 42 20.7998 42.2C21.0998 42.3 21.7998 42.1 22.0998 42.3C22.2998 42.4 22.1998 42.7 22.4998 43C22.8998 43.2 23.9998 43.3 23.8998 44.1C23.7998 44.1 23.6998 44.1 23.5998 44.1C23.6998 44.8 23.8998 45.5 24.4998 45.9C24.6998 46.1 25.1998 46.1 25.2998 46.6C25.3998 46.8 25.0998 46.9 25.1998 47.1C25.1998 47.4 25.4998 47.8 25.8998 47.9C26.7998 48.4 27.2998 48 27.4998 49.1C27.5998 49.4 27.6998 49.8 27.7998 50.1C27.9998 50.5 28.1998 50.9 28.4998 51.3C28.5998 51.5 28.5998 51.8 28.7998 52.1C28.9998 52.4 29.2998 52.6 29.2998 53C29.2998 53 29.2998 53 29.3998 53C29.4998 53.1 29.4998 53.2 29.6998 53.3C29.8998 53.5 29.9998 53.6 30.0998 54.1C30.1998 54.9 30.0998 55.5 30.1998 56.3C30.2998 56.7 30.4998 57.3 30.5998 57.7C30.5998 57.8 30.6998 58 30.6998 58.1C30.7998 58.3 30.7998 58.3 30.9998 58.5C31.2998 59.2 31.8998 60.2 31.1998 60.9C30.8998 61.1 30.6998 61.2 30.3998 61.6C30.2998 61.8 29.8998 62.4 29.9998 62.6C30.0998 62.9 30.8998 62.6 30.6998 63.3C30.5998 63.6 29.8998 63.6 29.5998 63.7C28.5998 64.1 28.7998 64.9 29.3998 65.7C29.7998 66.2 29.6998 66.6 29.8998 67.2C30.1998 68.4 31.1998 68.3 32.0998 68.9C32.1998 69 32.3998 69.4 32.4998 69.6C32.7998 69.8 33.1998 69.5 33.5998 69.8C33.8998 70.1 33.8998 70.7 34.0998 71C34.2998 71.3 34.3998 71.4 34.7998 71.7C35.1998 72.1 35.2998 72.6 35.8998 72.9C36.1998 73.1 36.7998 73.7 37.0998 73.7C37.3998 73.7 37.8998 73.2 38.1998 72.9C38.3998 73 38.3998 73.3 38.5998 73.6C38.8998 73.8 39.2998 73.6 39.5998 73.6C39.9998 73.6 40.0998 73.7 40.5998 74C40.7998 74.1 41.0998 74.2 41.2998 74.4C41.4998 74.6 41.3998 75.1 41.5998 75.3C41.7998 75.6 42.2998 75.8 42.5998 76.2C42.8998 76.4 43.3998 76.7 43.8998 77.1Z" fill="#003AFC"/>
</g>
<defs>
<clipPath id="clip0_2682_28961">
<rect width="100" height="100" fill="white"/>
</clipPath>
</defs>
</svg>
