<svg width="81" height="17" viewBox="0 0 81 17" fill="none" xmlns="http://www.w3.org/2000/svg">
<path d="M30.6216 0.00705394C30.6216 0.112863 30.6351 0.211618 30.6351 0.317427C30.6351 1.04398 30.6351 1.77759 30.6351 2.50415C30.6351 2.56763 30.6351 2.63112 30.6351 2.71577H19.3364V7.0751H28.4092V9.78382H19.3364V14.256H30.6216V16.9788C30.5404 16.9788 30.4727 16.9788 30.3983 16.9788C25.9059 16.9788 21.4134 16.9788 16.921 16.9788C15.7167 16.9788 14.5057 16.9788 13.3014 16.9788C13.1728 16.9788 13.0916 16.9436 13.0104 16.8378C10.1418 13.1133 7.26636 9.39585 4.39094 5.67842C3.90381 5.05062 3.42345 4.42282 2.93631 3.79502C2.90249 3.7527 2.86866 3.71037 2.80777 3.63983V16.9577C2.74687 16.9577 2.70628 16.9718 2.66569 16.9718C1.81997 16.9718 0.967495 16.9718 0.121783 16.9718C0.0879541 16.9718 0.0473599 16.9647 0.0135314 16.9577C0 11.3145 0 5.65726 0 0.00705394C1.17047 0.00705394 2.34093 0.00705394 3.5114 0.00705394C3.54523 0.0634855 3.57906 0.112863 3.61965 0.169295C3.99853 0.656017 4.37064 1.14274 4.74952 1.62946C8.63304 6.65187 12.5165 11.6813 16.4068 16.7037C16.4407 16.7461 16.4745 16.7813 16.5354 16.8519C16.5354 16.7461 16.5354 16.6826 16.5354 16.612C16.5354 11.1593 16.5354 5.70664 16.5354 0.253942C16.5354 0.169295 16.5421 0.0917012 16.5489 0.00705394C21.2443 0.00705394 25.9329 0.00705394 30.6283 0.00705394H30.6216Z" fill="#4D94FE"/>
<path d="M37.6714 0.00705394C38.551 1.14274 39.4237 2.28548 40.3033 3.42116C40.9799 4.29585 41.6497 5.16349 42.3262 6.03817C42.3465 6.06639 42.3736 6.09461 42.4074 6.14398C42.448 6.08755 42.4886 6.04523 42.5292 5.99585C44.0244 4.06307 45.5264 2.12324 47.0149 0.183402C47.0893 0.0846473 47.1637 0.0423237 47.2923 0.0423237C48.4018 0.0423237 49.5182 0.0423237 50.6278 0.0423237C50.6683 0.0423237 50.7089 0.0423237 50.7766 0.0423237C48.5845 2.87801 46.4127 5.69253 44.2342 8.51411C46.4195 11.3357 48.5913 14.1502 50.7834 16.9859C50.7022 16.9859 50.6548 16.9929 50.6075 16.9929C49.4979 16.9929 48.3815 16.9929 47.272 16.9929C47.1569 16.9929 47.0893 16.9506 47.0216 16.866C42.7254 11.3004 38.4292 5.74191 34.133 0.176349C34.0924 0.119917 34.0585 0.0564315 34.0247 0C35.2358 0 36.4468 0 37.6647 0L37.6714 0.00705394Z" fill="#4D94FE"/>
<path d="M67.9479 0.00705394C67.9479 0.839419 67.9479 1.67178 67.9479 2.5112C67.9479 2.57469 67.9479 2.63817 67.9479 2.72282H62.3527V16.9859H59.5517V2.72988H53.8415V0.00705394H67.9479Z" fill="#4D94FE"/>
<path d="M34.018 17C35.8853 14.5805 37.7391 12.1892 39.6064 9.77676C40.2221 10.5668 40.8242 11.3498 41.4399 12.1469C41.1964 12.4573 40.9596 12.7676 40.7228 13.078C39.7417 14.3548 38.7539 15.6245 37.7662 16.8942C37.7256 16.9506 37.6376 17 37.5767 17C36.4333 17 35.2899 17 34.1465 17C34.1194 17 34.0856 17 34.0247 16.9929L34.018 17Z" fill="#4D94FE"/>
<path d="M75.7014 14.7286H76.9125C76.9531 15.173 77.1764 15.4975 77.5688 15.6597C78.1033 15.8855 78.6513 15.8855 79.179 15.6315C79.3279 15.561 79.4632 15.4411 79.5647 15.3071C79.842 14.9473 79.7744 14.4394 79.3955 14.2066C79.1249 14.0373 78.8137 13.9386 78.5092 13.8398C78.0153 13.6705 77.5146 13.5295 77.014 13.3743C76.9125 13.339 76.8178 13.2685 76.7231 13.2191C75.5526 12.556 75.6811 10.99 76.5133 10.2846C77.0952 9.79087 77.7717 9.62863 78.5092 9.64979C79.1249 9.6639 79.7 9.81203 80.1871 10.2212C80.6269 10.588 80.8637 11.0606 80.884 11.6672H79.6932C79.6932 11.6672 79.6729 11.6108 79.6729 11.5826C79.6052 11.2299 79.3955 10.99 79.0843 10.8631C78.5904 10.6656 78.0965 10.6656 77.6161 10.9054C77.3252 11.0535 77.1493 11.3004 77.1493 11.6461C77.1493 11.9917 77.3184 12.2386 77.6094 12.3515C78.0085 12.5137 78.428 12.6336 78.8407 12.7535C79.3076 12.8876 79.7676 13.0286 80.1871 13.3037C81.3305 14.0515 81.1817 15.688 80.2751 16.3722C79.8691 16.6755 79.4158 16.8378 78.9287 16.8871C78.2251 16.9647 77.5282 16.9295 76.8719 16.612C76.1886 16.2734 75.8097 15.7091 75.7217 14.9261C75.7217 14.8697 75.7217 14.8062 75.7217 14.7427L75.7014 14.7286Z" fill="#4D94FE"/>
<path d="M73.3402 9.74149H74.5783V9.9249C74.5783 11.4909 74.5783 13.0498 74.5783 14.6158C74.5783 14.8838 74.5513 15.166 74.4769 15.427C74.3009 16.083 73.8747 16.5274 73.259 16.7461C72.6095 16.9788 71.9532 16.9647 71.3105 16.6896C70.6678 16.4145 70.3024 15.8996 70.228 15.1801C70.2212 15.1025 70.228 15.0178 70.228 14.9332H71.4458C71.4458 14.9332 71.4594 14.9826 71.4594 15.0108C71.5405 15.5751 71.8721 15.8573 72.4268 15.8502C72.9343 15.8432 73.259 15.5257 73.3131 14.9755C73.3267 14.8415 73.3335 14.7004 73.3335 14.5664C73.3335 13.0286 73.3335 11.4909 73.3335 9.96017V9.74855L73.3402 9.74149Z" fill="#4D94FE"/>
<path d="M68.5636 15.3776C68.9696 15.3776 69.3079 15.7232 69.3079 16.1324C69.3079 16.5415 68.9628 16.8871 68.5636 16.8871C68.1577 16.8871 67.8262 16.5485 67.8262 16.1324C67.8262 15.7162 68.1577 15.3846 68.5636 15.3776Z" fill="#4D94FE"/>
</svg>
