<svg width="186" height="43" viewBox="0 0 186 43" fill="none" xmlns="http://www.w3.org/2000/svg">
<g clip-path="url(#clip0_7822_23367)">
<path d="M103.943 6.48356V4.58301H96.2965V15.0261H103.943V13.3038H98.4244V10.4727H103.257V8.61178H98.4244V6.49346H103.943V6.48356ZM101.815 16.1051V20.124H97.6289V16.1051H95.4711V26.5087H97.6289V21.8464H101.815V26.5087H103.943V16.1051H101.815ZM103.943 29.4486V27.5876H96.2965V38.1693H103.943V36.2688H98.4244V33.4674H103.257V31.7451H98.4244V29.4486H103.943ZM95.0734 4.58301H92.9454V8.60188H88.769V4.58301H86.641V15.0261H88.769V10.3639H92.9454V15.0261H95.0734V4.58301ZM77.4827 4.58301V6.48356H80.7244V15.0261H82.8524V6.48356H86.0941V4.58301H77.4827ZM70.7805 15.818C67.4294 15.818 65.6594 17.7186 65.6594 21.3118C65.6594 25.0832 67.4294 26.9442 70.7805 26.9442C74.1316 26.9442 75.8618 25.0832 75.8618 21.3118C75.8618 17.5404 74.1316 15.818 70.7805 15.818ZM67.9664 21.3019C67.9664 18.8965 68.9011 17.7186 70.7805 17.7186C72.7991 17.7186 73.7338 18.9064 73.7338 21.3019C73.7338 23.8459 72.7991 25.0733 70.7805 25.0733C68.9111 25.0733 67.9664 23.8558 67.9664 21.3019ZM62.5967 16.1051V23.4598L58.4203 16.1051H56.1531V26.5087H58.1717V19.1836L62.4575 26.5087H64.7247V16.1051H62.5967ZM72.5107 31.8936V29.4486H77.8804V27.5876H70.3827V38.1693H72.5107V33.7545H77.2341V31.8936H72.5107ZM94.6756 17.9661V16.1051H86.0941V17.9661H89.3059V26.5087H91.4637V17.9661H94.6756ZM81.3807 22.5294C82.0668 22.5294 82.6038 22.6383 82.8623 22.9253L83.2601 26.5186H85.6764V26.2711C85.4278 26.1226 85.2787 25.4792 85.2787 24.2616C85.2787 22.7867 84.7417 22.0047 83.9462 21.6088C85.0301 21.1831 85.567 20.3912 85.567 19.0648C85.567 17.2039 84.4831 16.1249 82.2159 16.1249H76.9556V26.5284H79.1135V22.5492H81.3807V22.5294ZM79.1035 20.7674V17.9661H81.7685C82.8524 17.9661 83.3893 18.362 83.3893 19.2925C83.3893 20.223 82.8524 20.7674 81.6591 20.7674H79.1035ZM82.8524 27.5876H80.2968L76.5479 38.1693H78.8151L79.6405 35.8728H83.5285L84.1749 38.1693H86.4819L82.8424 27.5876H82.8524ZM81.5199 29.993L82.8524 34.1604H80.1874L81.5199 29.993ZM93.3431 31.0621H95.4711C95.3617 30.1316 95.0734 29.3397 94.427 28.6567C93.4923 27.8648 92.4084 27.3302 90.9268 27.3302C89.4451 27.3302 88.3712 27.8648 87.4265 28.8052C86.631 29.7356 86.0941 31.0621 86.0941 32.824C86.0941 36.5558 87.6751 38.4168 90.7776 38.4168C93.4823 38.4168 94.954 37.0904 95.4612 34.5464H93.3332C93.0448 35.7639 92.1101 36.4074 90.9168 36.4074C89.1468 36.4074 88.3613 35.2195 88.3613 32.923C88.3613 30.4087 89.1568 29.1912 90.9168 29.1912C92.1101 29.1912 92.7962 29.8742 93.3332 31.0522L93.3431 31.0621ZM66.6339 38.0308C66.9919 38.0308 67.2803 37.8823 67.499 37.7041C67.678 37.4863 67.8272 37.1993 67.8272 36.8033C67.8272 36.3678 67.688 36.0807 67.499 35.9025C67.2803 35.7244 66.9919 35.6155 66.6339 35.6155H66.5941C66.1665 35.6155 65.8782 35.7244 65.6892 35.9025C65.5103 36.0807 65.4009 36.3678 65.4009 36.8033V36.8429C65.4009 37.1993 65.5103 37.4863 65.6892 37.7041C65.8682 37.8823 66.1566 38.0308 66.5941 38.0308H66.6339ZM66.5941 38.3178C66.087 38.3178 65.729 38.1396 65.4804 37.8823C65.2318 37.6348 65.1224 37.2686 65.1224 36.8429V36.8033C65.1224 36.2985 65.2318 35.9421 65.4804 35.6947C65.729 35.4472 66.0969 35.3383 66.5941 35.3383H66.6339C67.0615 35.3383 67.4294 35.4472 67.678 35.6947C67.9266 35.9421 68.1056 36.3084 68.1056 36.8033C68.1056 37.2686 67.9266 37.6249 67.678 37.8823C67.3996 38.1594 67.0217 38.3178 66.6339 38.3178H66.5941ZM66.7433 36.6647H66.7831C66.9223 36.6647 67.0018 36.5954 67.0018 36.4173V36.3777C67.0018 36.3777 66.9621 36.3777 66.9621 36.3381C66.9223 36.2985 66.8527 36.2985 66.7433 36.2985H66.3455V36.6548H66.7433V36.6647ZM66.9919 36.9122L67.2803 37.2686C67.32 37.3378 67.2803 37.4071 67.2405 37.4467C67.1709 37.516 67.0615 37.4863 67.0217 37.4467L66.6637 36.9419H66.3356V37.3378C66.3356 37.4071 66.266 37.4863 66.1964 37.4863C66.1268 37.4863 66.0572 37.417 66.0572 37.3378V36.15C66.0572 36.0807 66.1268 36.0114 66.1964 36.0114H66.7731C66.9123 36.0114 67.0615 36.051 67.1311 36.1203C67.1709 36.1599 67.2007 36.1599 67.2007 36.1896C67.2703 36.2589 67.2703 36.3282 67.2703 36.4074C67.2703 36.6944 67.2007 36.833 66.9819 36.9122H66.9919ZM105.415 4.58301C112.117 4.58301 117.924 7.01809 122.608 11.6903C127.441 16.5011 129.857 22.2423 129.857 28.9536V38.1792H120.052V28.6666C120.052 24.9348 118.72 21.7078 116.015 19.0549C115.369 18.3719 114.683 17.8374 113.887 17.293C111.729 15.818 109.164 15.1746 106.499 15.1746H105.415V4.58301ZM119.118 38.1693H111.481V30.8146C111.481 29.597 111.083 28.6666 110.258 27.8747C109.462 27.0531 108.388 26.6571 107.304 26.6571H105.435V16.1051H106.519C109.333 16.1051 111.749 16.897 113.907 18.5105C114.444 18.758 114.991 19.3024 115.389 19.6983C117.944 22.2423 119.138 25.1921 119.138 28.6666V38.1792L119.118 38.1693ZM110.536 38.1693H105.415V27.5876H107.294C108.12 27.5876 108.915 27.8747 109.601 28.5181C110.138 29.0526 110.536 29.8841 110.536 30.8146V38.1693Z" fill="#1E1E1E"/>
</g>
<defs>
<clipPath id="clip0_7822_23367">
<rect width="186" height="43" fill="white"/>
</clipPath>
</defs>
</svg>
