<svg width="186" height="43" viewBox="0 0 186 43" fill="none" xmlns="http://www.w3.org/2000/svg">
<g clip-path="url(#clip0_7822_23363)">
<path fill-rule="evenodd" clip-rule="evenodd" d="M50.5348 15.1552C51.5988 14.8484 53.0307 14.6306 54.3135 14.5019L58.7783 31.3891H54.3731L53.8759 29.3104H50.2564L49.6597 31.3891H45.4435L50.5348 15.1552ZM41.2671 28.3106V31.3891H37.3293V18.5505C39.2386 17.6497 41.2273 17.0855 42.9476 17.0855C45.5131 17.0855 47.4423 18.3228 47.4423 21.4409C47.4423 25.2024 44.5685 27.6573 41.2671 28.3106ZM73.5449 12.2648C74.5791 12.146 76.4187 12.0272 77.5423 12.0272L82.8424 31.399H78.129L77.3534 28.7561H73.1969L72.5107 31.399H67.8968L73.5449 12.2747V12.2648ZM63.8297 26.6377V31.399H59.3649V13.7595C60.8366 13.3141 62.6763 13.1062 64.0485 13.1062C68.3343 13.1062 70.3827 15.1552 70.3827 18.8277C70.3827 22.7476 67.6084 25.4796 63.8297 26.6278V26.6377ZM144.644 27.4791C144.644 30.1221 142.923 31.7653 139.95 31.7653C138.458 31.7653 136.738 31.3297 135.545 30.6467V26.6377C136.171 27.2317 138.011 28.2314 139.483 28.2314C140.199 28.2314 140.487 28.0137 140.487 27.5484C140.487 26.0537 135.545 26.0537 135.545 21.6092C135.545 19.0058 137.146 17.4715 139.731 17.4715C141.322 17.4715 142.784 18.0655 143.977 18.8673V22.6684C142.973 21.8864 141.362 20.9559 140.447 20.9559C139.98 20.9559 139.701 21.1737 139.701 21.5399C139.701 22.9455 144.634 23.1534 144.634 27.4791H144.644ZM42.172 20.6292C41.8538 20.6292 41.5754 20.6886 41.2671 20.7876V24.5491C42.7985 24.074 43.2957 23.2425 43.2957 21.9952C43.2957 21.2429 42.9775 20.6292 42.172 20.6292ZM93.4326 21.5003C93.4326 15.3433 96.207 11.2354 100.702 11.2354C105.823 11.2354 108.259 15.8086 108.259 21.5003C108.259 27.7464 105.415 31.7653 100.831 31.7653C96.2467 31.7653 93.4028 28.1918 93.4326 21.5003ZM53.0904 25.8854L52.2451 21.5003L51.211 25.8854H53.0904ZM130.563 22.7772V15.2542C131.905 15.5017 133.158 15.7492 134.431 16.0956V31.399H131.339L127.063 24.1829V31.399H123.036V13.8882C123.881 13.9476 125.094 14.1654 126.158 14.3831L130.563 22.7772ZM63.7999 17.3726V21.9161C65.2119 21.5102 65.8583 20.4511 65.8583 19.2038C65.8583 18.0556 65.3909 17.3726 64.1082 17.3726H63.79H63.7999ZM116.821 20.4115V13.0666C118.193 13.1953 119.903 13.4131 121.315 13.6605V31.3891H116.821V24.5491H113.847V31.3891H109.353V12.2945C110.476 12.3341 112.724 12.542 113.847 12.7697V20.4115H116.821ZM76.5181 25.0836L75.3945 19.6987L74.2012 25.0836H76.5181ZM87.7547 25.8854V11.5818C89.0374 11.4927 91.0958 11.4927 92.3786 11.5818V26.1626C92.3786 30.429 89.8429 31.7653 87.2277 31.7653C86.2929 31.7653 85.6068 31.7356 84.7019 31.4188V27.0634C85.2289 27.2812 85.7659 27.4098 86.2233 27.4098C87.1282 27.4098 87.7248 26.9446 87.7248 25.8854H87.7547ZM98.1858 21.5003C98.1858 24.7966 99.0211 26.6575 100.831 26.6575C102.641 26.6575 103.486 24.7867 103.486 21.5003C103.486 18.2139 102.641 16.3431 100.831 16.3431C99.0211 16.3431 98.1858 18.204 98.1858 21.5003ZM148.671 21.53C148.671 22.0249 148.482 22.4308 148.144 22.8069C147.796 23.1831 147.368 23.3316 146.861 23.3316C146.354 23.3316 145.926 23.1435 145.578 22.8069C145.23 22.4605 145.051 22.0348 145.051 21.5696C145.051 21.0747 145.24 20.6688 145.578 20.2927C145.926 19.9462 146.354 19.768 146.861 19.768C147.368 19.768 147.796 19.9561 148.144 20.2927C148.492 20.6391 148.671 21.0351 148.671 21.53ZM148.452 21.5696C148.452 21.0945 148.293 20.7282 147.985 20.4511C147.666 20.164 147.299 19.9759 146.821 19.9759C146.384 19.9759 145.986 20.1343 145.698 20.4511C145.389 20.7579 145.23 21.1341 145.23 21.5696C145.23 22.0051 145.389 22.3714 145.698 22.6882C146.016 22.995 146.384 23.1237 146.861 23.1237C147.299 23.1237 147.706 22.9653 147.985 22.6486C148.263 22.3417 148.452 21.9953 148.452 21.5696ZM147.925 22.5298H147.299L146.732 21.8468H146.612V22.5298H146.085V20.4807H146.861C147.139 20.4807 147.358 20.5401 147.517 20.6688C147.676 20.7975 147.736 20.946 147.736 21.1638C147.736 21.2825 147.706 21.4112 147.647 21.5102C147.587 21.6092 147.458 21.6983 147.328 21.7577L147.925 22.5298ZM146.801 20.8866H146.612V21.4706H146.801C146.921 21.4706 147.02 21.4409 147.09 21.3815C147.149 21.3221 147.179 21.2627 147.179 21.1638C147.179 21.0648 147.139 21.0054 147.09 20.946C146.99 20.9163 146.931 20.8866 146.801 20.8866Z" fill="#1E1E1E"/>
<path d="M50.5348 15.1552C51.5988 14.8484 53.0307 14.6306 54.3135 14.5019L58.7783 31.3891H54.3731L53.8759 29.3104H50.2564L49.6597 31.3891H45.4435L50.5348 15.1552ZM41.2671 28.3106V31.3891H37.3293V18.5505C39.2386 17.6497 41.2273 17.0855 42.9476 17.0855C45.5131 17.0855 47.4423 18.3228 47.4423 21.4409C47.4423 25.2024 44.5685 27.6573 41.2671 28.3106ZM73.5449 12.2648C74.5791 12.146 76.4187 12.0272 77.5423 12.0272L82.8424 31.399H78.129L77.3534 28.7561H73.1969L72.5107 31.399H67.8968L73.5449 12.2747V12.2648ZM63.8297 26.6377V31.399H59.3649V13.7595C60.8366 13.3141 62.6763 13.1062 64.0485 13.1062C68.3343 13.1062 70.3827 15.1552 70.3827 18.8277C70.3827 22.7476 67.6084 25.4796 63.8297 26.6278V26.6377ZM144.644 27.4791C144.644 30.1221 142.923 31.7653 139.95 31.7653C138.458 31.7653 136.738 31.3297 135.545 30.6467V26.6377C136.171 27.2317 138.011 28.2314 139.483 28.2314C140.199 28.2314 140.487 28.0137 140.487 27.5484C140.487 26.0537 135.545 26.0537 135.545 21.6092C135.545 19.0058 137.146 17.4715 139.731 17.4715C141.322 17.4715 142.784 18.0655 143.977 18.8673V22.6684C142.973 21.8864 141.362 20.9559 140.447 20.9559C139.98 20.9559 139.701 21.1737 139.701 21.5399C139.701 22.9455 144.634 23.1534 144.634 27.4791H144.644ZM42.172 20.6292C41.8538 20.6292 41.5754 20.6886 41.2671 20.7876V24.5491C42.7985 24.074 43.2957 23.2425 43.2957 21.9952C43.2957 21.2429 42.9775 20.6292 42.172 20.6292ZM93.4326 21.5003C93.4326 15.3433 96.207 11.2354 100.702 11.2354C105.823 11.2354 108.259 15.8086 108.259 21.5003C108.259 27.7464 105.415 31.7653 100.831 31.7653C96.2467 31.7653 93.4028 28.1918 93.4326 21.5003ZM53.0904 25.8854L52.2451 21.5003L51.211 25.8854H53.0904ZM130.563 22.7772V15.2542C131.905 15.5017 133.158 15.7492 134.431 16.0956V31.399H131.339L127.063 24.1829V31.399H123.036V13.8882C123.881 13.9476 125.094 14.1654 126.158 14.3831L130.563 22.7772ZM63.7999 17.3726V21.9161C65.2119 21.5102 65.8583 20.4511 65.8583 19.2038C65.8583 18.0556 65.3909 17.3726 64.1082 17.3726H63.79H63.7999ZM116.821 20.4115V13.0666C118.193 13.1953 119.903 13.4131 121.315 13.6605V31.3891H116.821V24.5491H113.847V31.3891H109.353V12.2945C110.476 12.3341 112.724 12.542 113.847 12.7697V20.4115H116.821ZM76.5181 25.0836L75.3945 19.6987L74.2012 25.0836H76.5181ZM87.7547 25.8854V11.5818C89.0374 11.4927 91.0958 11.4927 92.3786 11.5818V26.1626C92.3786 30.429 89.8429 31.7653 87.2277 31.7653C86.2929 31.7653 85.6068 31.7356 84.7019 31.4188V27.0634C85.2289 27.2812 85.7659 27.4098 86.2233 27.4098C87.1282 27.4098 87.7248 26.9446 87.7248 25.8854H87.7547ZM98.1858 21.5003C98.1858 24.7966 99.0211 26.6575 100.831 26.6575C102.641 26.6575 103.486 24.7867 103.486 21.5003C103.486 18.2139 102.641 16.3431 100.831 16.3431C99.0211 16.3431 98.1858 18.204 98.1858 21.5003ZM148.671 21.53C148.671 22.0249 148.482 22.4308 148.144 22.8069C147.796 23.1831 147.368 23.3316 146.861 23.3316C146.354 23.3316 145.926 23.1435 145.578 22.8069C145.23 22.4605 145.051 22.0348 145.051 21.5696C145.051 21.0747 145.24 20.6688 145.578 20.2927C145.926 19.9462 146.354 19.768 146.861 19.768C147.368 19.768 147.796 19.9561 148.144 20.2927C148.492 20.6391 148.671 21.0351 148.671 21.53ZM148.452 21.5696C148.452 21.0945 148.293 20.7282 147.985 20.4511C147.666 20.164 147.299 19.9759 146.821 19.9759C146.384 19.9759 145.986 20.1343 145.698 20.4511C145.389 20.7579 145.23 21.1341 145.23 21.5696C145.23 22.0051 145.389 22.3714 145.698 22.6882C146.016 22.995 146.384 23.1237 146.861 23.1237C147.299 23.1237 147.706 22.9653 147.985 22.6486C148.263 22.3417 148.452 21.9953 148.452 21.5696ZM147.925 22.5298H147.299L146.732 21.8468H146.612V22.5298H146.085V20.4807H146.861C147.139 20.4807 147.358 20.5401 147.517 20.6688C147.676 20.7975 147.736 20.946 147.736 21.1638C147.736 21.2825 147.706 21.4112 147.647 21.5102C147.587 21.6092 147.458 21.6983 147.328 21.7577L147.925 22.5298ZM146.801 20.8866H146.612V21.4706H146.801C146.921 21.4706 147.02 21.4409 147.09 21.3815C147.149 21.3221 147.179 21.2627 147.179 21.1638C147.179 21.0648 147.139 21.0054 147.09 20.946C146.99 20.9163 146.931 20.8866 146.801 20.8866Z" fill="#1E1E1E"/>
</g>
<defs>
<clipPath id="clip0_7822_23363">
<rect width="186" height="43" fill="white"/>
</clipPath>
</defs>
</svg>
