<svg width="59" height="51" viewBox="0 0 59 51" fill="none" xmlns="http://www.w3.org/2000/svg">
<path d="M59 25.5056C59 21.7097 54.1071 18.1168 46.5991 15.8889C48.3308 8.46616 47.5638 2.56072 44.1701 0.665561C43.3856 0.219973 42.4733 0.0112807 41.4738 0.0112807V2.61712C42.0258 2.61712 42.4733 2.72429 42.8452 2.9217C44.4781 3.82979 45.1929 7.29861 44.635 11.7601C44.5013 12.86 44.2863 14.0106 44.019 15.1894C41.6597 14.6311 39.0854 14.1967 36.3832 13.9147C34.7619 11.7545 33.0767 9.79164 31.3799 8.07697C35.3024 4.54048 38.9808 2.6002 41.4796 2.6002V0C38.1731 0 33.8438 2.28998 29.468 6.25514C25.0981 2.31254 20.7688 0.0451228 17.4623 0.0451228V2.65096C19.9495 2.65096 23.6453 4.57432 27.562 8.08826C25.8768 9.80292 24.1974 11.7545 22.5935 13.9147C19.8739 14.1967 17.2996 14.6254 14.9461 15.2007C14.6672 14.0332 14.4638 12.8995 14.3185 11.8165C13.7549 7.35501 14.4522 3.89184 16.0735 2.96682C16.4338 2.75813 16.9045 2.66224 17.4565 2.66224V0.0564035C16.4454 0.0564035 15.533 0.265096 14.7369 0.710684C11.3549 2.6002 10.5994 8.49436 12.3428 15.8945C4.86969 18.1394 0 21.721 0 25.5056C0 29.2903 4.89294 32.8945 12.4009 35.1224C10.6692 42.5451 11.4362 48.4506 14.8299 50.3457C15.6144 50.7913 16.5267 51 17.5379 51C20.8444 51 25.1736 48.71 29.5494 44.7449C33.9251 48.6931 38.2544 50.9549 41.5609 50.9549C42.572 50.9549 43.4844 50.7462 44.2805 50.3006C47.6626 48.4111 48.418 42.5169 46.6747 35.1168C54.1303 32.8889 59 29.2903 59 25.5113V25.5056ZM43.3449 17.722C42.8975 19.2279 42.3454 20.779 41.7236 22.3301C41.2297 21.3938 40.7125 20.4632 40.1488 19.5269C39.5968 18.5906 39.004 17.6825 38.4171 16.7969C40.1256 17.0395 41.7701 17.3441 43.3507 17.7163L43.3449 17.722ZM37.836 30.1533C36.9004 31.7269 35.9358 33.2216 34.9363 34.6148C33.1465 34.7671 31.3276 34.8461 29.5029 34.8461C27.6782 34.8461 25.871 34.7671 24.0928 34.6261C23.0933 33.2386 22.1228 31.7551 21.1814 30.1928C20.2691 28.6642 19.4381 27.1131 18.6827 25.5451C19.4265 23.9827 20.2691 22.4147 21.1698 20.8862C22.1054 19.3125 23.07 17.8179 24.0695 16.4247C25.8594 16.2724 27.6782 16.1934 29.5029 16.1934C31.3276 16.1934 33.1348 16.2724 34.913 16.4134C35.9125 17.8009 36.883 19.2843 37.8244 20.8467C38.7367 22.3752 39.5677 23.9263 40.3232 25.4944C39.5677 27.0567 38.7367 28.6248 37.836 30.1533ZM41.7178 28.636C42.3687 30.1984 42.9207 31.7664 43.3798 33.2837C41.805 33.6559 40.143 33.9718 38.4229 34.22C39.0099 33.3232 39.6026 32.3981 40.1546 31.4562C40.7067 30.5199 41.2239 29.578 41.7178 28.6417V28.636ZM29.5262 41.0899C28.4104 39.9675 27.2889 38.721 26.1848 37.356C27.2656 37.4011 28.3756 37.435 29.4913 37.435C30.607 37.435 31.7402 37.4124 32.8327 37.356C31.7518 38.721 30.6303 39.9731 29.5262 41.0899ZM20.5771 34.2143C18.8686 33.9718 17.2241 33.6672 15.6435 33.295C16.0909 31.789 16.643 30.2379 17.2647 28.6868C17.7587 29.6231 18.2759 30.5538 18.8396 31.49C19.4032 32.4263 19.9843 33.3344 20.5713 34.22L20.5771 34.2143ZM29.4622 9.92137C30.578 11.0438 31.6995 12.2903 32.8036 13.6553C31.7227 13.6102 30.6128 13.5763 29.4971 13.5763C28.3814 13.5763 27.2482 13.5989 26.1557 13.6553C27.2366 12.2903 28.3581 11.0382 29.4622 9.92137ZM20.5655 16.7969C19.9785 17.6938 19.3858 18.6188 18.8337 19.5607C18.2817 20.497 17.7645 21.4277 17.2706 22.364C16.6197 20.8016 16.0677 19.2336 15.6086 17.7163C17.1834 17.3553 18.8454 17.0395 20.5655 16.7969ZM9.68128 31.4111C5.42175 29.6513 2.66729 27.3388 2.66729 25.5056C2.66729 23.6725 5.42175 21.3487 9.68128 19.6002C10.7157 19.1659 11.8488 18.7824 13.011 18.4214C13.6967 20.7113 14.5975 23.0916 15.719 25.5282C14.6149 27.9536 13.72 30.3281 13.0517 32.6012C11.8604 32.2402 10.7331 31.8397 9.68709 31.4111H9.68128ZM16.149 48.0896C14.5161 47.1815 13.8013 43.7127 14.3592 39.2512C14.4929 38.1513 14.7079 37.0007 14.9752 35.8218C17.3345 36.3802 19.9088 36.8145 22.611 37.0965C24.2322 39.2568 25.9175 41.2196 27.6143 42.9343C23.6918 46.4708 20.0134 48.4111 17.5146 48.4111C16.9742 48.3998 16.5151 48.2926 16.1548 48.0952L16.149 48.0896ZM44.6757 39.1948C45.2393 43.6563 44.542 47.1194 42.9207 48.0445C42.5604 48.2532 42.0897 48.349 41.5377 48.349C39.0505 48.349 35.3547 46.4257 31.438 42.9118C33.1232 41.1971 34.8026 39.2455 36.4065 37.0853C39.1261 36.8033 41.7004 36.3746 44.0539 35.7993C44.3328 36.9781 44.5478 38.1118 44.6815 39.1948H44.6757ZM49.3071 31.4111C48.2727 31.8454 47.1396 32.2289 45.9774 32.5899C45.2916 30.2999 44.3909 27.9197 43.2694 25.4831C44.3735 23.0577 45.2684 20.6831 45.9367 18.4101C47.1279 18.7711 48.2553 19.1715 49.3187 19.6002C53.5783 21.36 56.3327 23.6725 56.3327 25.5056C56.3211 27.3388 53.5666 29.6626 49.3071 31.4111Z" fill="#4D94FE"/>
<path d="M29.5029 30.8358C32.539 30.8358 35.0002 28.4469 35.0002 25.5C35.0002 22.5531 32.539 20.1642 29.5029 20.1642C26.4668 20.1642 24.0056 22.5531 24.0056 25.5C24.0056 28.4469 26.4668 30.8358 29.5029 30.8358Z" fill="#4D94FE"/>
</svg>
