<svg width="186" height="43" viewBox="0 0 186 43" fill="none" xmlns="http://www.w3.org/2000/svg">
<g clip-path="url(#clip0_7822_23278)">
<path d="M138.448 28.7754C138.448 28.7754 138.468 28.8348 138.468 28.8546C138.468 28.8249 138.458 28.8051 138.448 28.7754C138.558 29.211 138.617 29.696 138.617 30.2107V30.8541H132.79C132.83 31.4778 133.059 32.0123 133.457 32.3884C133.854 32.7646 134.391 32.9626 134.998 32.9626C135.485 32.9626 135.893 32.8636 136.211 32.6755C136.529 32.4874 136.758 32.2004 136.917 31.8242H138.558C138.041 33.5169 136.768 34.4474 134.958 34.4474C133.805 34.4474 132.85 34.0613 132.134 33.309C131.418 32.5468 131.06 31.5372 131.06 30.2899C131.06 29.0427 131.418 28.0627 132.134 27.2906C132.84 26.5086 133.795 26.1028 134.958 26.1028C136.052 26.1028 136.977 26.469 137.613 27.1619C137.842 27.4094 138.041 27.7064 138.19 28.033C138.19 28.0528 138.21 28.0726 138.22 28.0825C138.22 28.0627 138.2 28.0429 138.19 28.033C138.24 28.1419 138.289 28.2607 138.329 28.3795C138.339 28.4092 138.349 28.429 138.359 28.4587C138.359 28.429 138.339 28.4092 138.329 28.3795C138.369 28.5082 138.409 28.6368 138.448 28.7655V28.7754ZM129.051 24.8951C129.051 24.8951 129.002 24.905 128.972 24.9149C128.902 24.9248 128.833 24.9347 128.763 24.9347C128.684 24.9347 128.604 24.9347 128.524 24.9149C128.524 24.9149 128.515 24.9149 128.505 24.9149C128.425 24.8951 128.355 24.8753 128.286 24.8456C128.286 24.8456 128.286 24.8456 128.276 24.8456C128.206 24.8159 128.137 24.7763 128.077 24.7367C128.017 24.6971 127.958 24.6477 127.908 24.5883C127.908 24.5883 127.908 24.5883 127.898 24.5784C127.858 24.5388 127.828 24.4992 127.809 24.4497C127.809 24.4497 127.799 24.4299 127.789 24.42C127.769 24.3804 127.739 24.3309 127.729 24.2913C127.729 24.2913 127.729 24.2715 127.719 24.2616C127.719 24.2418 127.709 24.2319 127.699 24.2121C127.699 24.222 127.699 24.2319 127.699 24.2418C127.699 24.2418 127.699 24.222 127.699 24.2121C127.669 24.1131 127.669 24.0141 127.669 23.9152C127.669 23.6281 127.779 23.3608 127.968 23.1727C127.968 23.1727 127.978 23.1628 127.988 23.153C128.017 23.1233 128.057 23.0936 128.097 23.0639C128.117 23.054 128.127 23.0342 128.147 23.0243C128.196 22.9946 128.246 22.9649 128.296 22.9451C128.306 22.9451 128.316 22.9352 128.326 22.9253C128.455 22.8758 128.594 22.8461 128.743 22.8461C128.753 22.8461 128.763 22.8461 128.773 22.8461C128.793 22.8461 128.823 22.8461 128.843 22.8461C128.882 22.8461 128.922 22.8461 128.952 22.8461C128.962 22.8461 128.972 22.8461 128.982 22.8461C129.022 22.8461 129.061 22.8659 129.101 22.8758C129.191 22.9055 129.28 22.955 129.37 23.0144C129.409 23.0441 129.449 23.0738 129.479 23.1134C129.479 23.1134 129.479 23.1233 129.489 23.1233C129.519 23.153 129.549 23.1925 129.579 23.2321C129.579 23.2321 129.579 23.242 129.588 23.2519C129.618 23.2915 129.638 23.3311 129.658 23.3707C129.658 23.3707 129.658 23.3806 129.658 23.3905C129.678 23.4301 129.698 23.4796 129.718 23.5291C129.718 23.5291 129.718 23.539 129.718 23.5489C129.738 23.5984 129.748 23.6479 129.758 23.6974C129.758 23.7172 129.758 23.7271 129.758 23.7469C129.758 23.7766 129.758 23.8162 129.767 23.8459C129.767 23.8756 129.767 23.8954 129.767 23.9251C129.767 23.9547 129.767 23.9745 129.767 24.0042C129.767 24.0339 129.767 24.0537 129.767 24.0834C129.767 24.1131 129.758 24.1428 129.748 24.1725C129.748 24.1923 129.748 24.2022 129.738 24.222C129.728 24.2616 129.708 24.3012 129.698 24.3309C129.698 24.3309 129.698 24.3408 129.698 24.3507C129.678 24.3903 129.658 24.42 129.638 24.4596C129.638 24.4596 129.638 24.4596 129.638 24.4695C129.618 24.4992 129.588 24.5289 129.569 24.5586C129.569 24.5586 129.559 24.5685 129.549 24.5784C129.529 24.5982 129.499 24.6279 129.479 24.6477C129.449 24.6774 129.419 24.707 129.38 24.7367C129.37 24.7466 129.35 24.7565 129.34 24.7664C129.35 24.7664 129.36 24.7466 129.38 24.7367C129.36 24.7466 129.34 24.7664 129.32 24.7763C129.29 24.7961 129.26 24.8159 129.23 24.8258C129.211 24.8258 129.201 24.8456 129.181 24.8555C129.201 24.8555 129.211 24.8357 129.23 24.8258C129.201 24.8357 129.181 24.8555 129.151 24.8654C129.151 24.8654 129.141 24.8654 129.131 24.8654C129.101 24.8753 129.071 24.8852 129.042 24.8951C129.061 24.8951 129.081 24.8852 129.101 24.8753C129.081 24.8753 129.051 24.8951 129.032 24.8951H129.051ZM123.92 32.8933C124.646 32.923 125.223 33.121 125.631 33.4773C126.068 33.8634 126.287 34.4177 126.287 35.1205C126.287 35.9619 125.969 36.6548 125.372 37.1299C124.776 37.6051 123.911 37.8525 122.876 37.8525C121.733 37.8525 120.848 37.6348 120.241 37.2091C119.635 36.7835 119.326 36.1698 119.326 35.3878C119.326 34.7542 119.605 34.289 120.182 33.9524C119.505 33.5565 119.167 33.0121 119.167 32.2796C119.167 31.5966 119.446 31.0422 119.993 30.6166C119.645 30.1216 119.476 29.5871 119.476 28.9734C119.476 28.132 119.764 27.4589 120.341 26.9244C120.927 26.3898 121.683 26.1226 122.618 26.1226C122.996 26.1226 123.374 26.182 123.751 26.3007H126.705V27.7559H125.422C125.601 28.1617 125.69 28.5774 125.69 28.9932C125.69 29.8049 125.402 30.478 124.835 31.0125C124.259 31.5372 123.513 31.8044 122.608 31.8044C122.041 31.8044 121.534 31.7054 121.057 31.4877C120.888 31.6559 120.808 31.8836 120.808 32.1707C120.808 32.626 121.156 32.9131 121.723 32.9131H123.732C123.801 32.9131 123.861 32.9131 123.92 32.9131V32.8933ZM117.596 28.0231C117.596 28.0231 117.616 28.0726 117.626 28.0924C117.616 28.0726 117.606 28.0429 117.596 28.0231C117.646 28.132 117.696 28.2508 117.735 28.3597C117.745 28.3894 117.765 28.429 117.775 28.4587C117.765 28.429 117.755 28.3894 117.735 28.3597C117.785 28.4884 117.825 28.617 117.855 28.7556C117.855 28.7853 117.875 28.8249 117.885 28.8546C117.885 28.815 117.865 28.7853 117.855 28.7556C117.974 29.2011 118.034 29.6861 118.034 30.2107V30.8541H112.207C112.246 31.4778 112.475 32.0123 112.873 32.3884C113.271 32.7646 113.808 32.9626 114.414 32.9626C114.901 32.9626 115.309 32.8636 115.627 32.6755C115.945 32.4874 116.184 32.2004 116.333 31.8242H117.974C117.457 33.5169 116.184 34.4474 114.374 34.4474C113.221 34.4474 112.266 34.0613 111.55 33.309C110.834 32.5468 110.476 31.5372 110.476 30.2899C110.476 29.0427 110.834 28.0627 111.55 27.2906C112.256 26.5086 113.211 26.1028 114.374 26.1028C115.468 26.1028 116.393 26.469 117.029 27.1619C117.258 27.4094 117.447 27.6965 117.596 28.0231ZM102.67 26.8056C102.73 26.865 102.79 26.9244 102.849 26.9838C102.909 27.053 102.959 27.1223 103.018 27.1916C103.038 27.2213 103.058 27.251 103.088 27.2807C103.068 27.251 103.048 27.2213 103.018 27.1916C103.078 27.2708 103.128 27.35 103.178 27.4391C103.197 27.4688 103.207 27.4886 103.217 27.5183C103.207 27.4886 103.188 27.4688 103.178 27.4391C103.416 27.8746 103.536 28.3993 103.536 29.0229V34.289H102.054L101.974 33.2496C101.497 34.0613 100.711 34.4672 99.6177 34.4672C98.9116 34.4672 98.3051 34.2593 97.8874 33.8535C97.4598 33.4476 97.2311 32.8735 97.2311 32.1905C97.2311 31.557 97.43 31.0323 97.8178 30.6463C98.2056 30.2602 98.7923 29.9831 99.5779 29.8346L101.855 29.4188V29.0526C101.855 28.5774 101.746 28.2112 101.527 27.9736C101.308 27.7361 100.98 27.6173 100.542 27.6173C100.135 27.6173 99.7768 27.7361 99.5182 27.9637C99.2497 28.1914 99.1105 28.5082 99.1105 28.8843H97.4897C97.5195 28.0924 97.8079 27.4391 98.3747 26.9145C98.9315 26.3898 99.6674 26.1226 100.552 26.1226C101.348 26.1226 102.004 26.3106 102.491 26.6571C102.511 26.6769 102.541 26.6868 102.561 26.7066C102.541 26.6868 102.521 26.6769 102.491 26.6571C102.561 26.7066 102.631 26.7561 102.69 26.8155L102.67 26.8056ZM102.263 13.3631C102.263 13.3631 102.283 13.3829 102.293 13.4027C102.293 13.3928 102.273 13.3829 102.263 13.373C102.322 13.4423 102.382 13.5215 102.432 13.6007C102.432 13.6007 102.442 13.6205 102.452 13.6205C102.452 13.6205 102.442 13.6007 102.432 13.6007C102.481 13.6799 102.531 13.7591 102.571 13.8383C102.571 13.8383 102.571 13.8482 102.581 13.8581C102.581 13.8581 102.581 13.8482 102.571 13.8383C102.571 13.8383 102.571 13.8581 102.581 13.8581C102.581 13.868 102.581 13.8779 102.591 13.8878C102.621 13.957 102.651 14.0263 102.68 14.0956C102.68 14.0956 102.68 14.0956 102.68 14.1055C102.68 14.1055 102.68 14.1055 102.68 14.0956C102.68 14.0956 102.68 14.1055 102.68 14.1154C102.68 14.1352 102.68 14.1451 102.7 14.1649C102.82 14.5114 102.889 14.9172 102.889 15.3528V20.6189H101.408L101.328 19.5795C100.851 20.3912 100.065 20.7971 98.9713 20.7971C98.2653 20.7971 97.6587 20.5892 97.2411 20.1833C96.8135 19.7775 96.5848 19.2034 96.5848 18.5204C96.5848 17.8868 96.7837 17.3622 97.1715 16.9762C97.5593 16.5901 98.146 16.3129 98.9315 16.1645L101.209 15.7487V15.3825C101.209 14.9073 101.099 14.5411 100.881 14.3035C100.662 14.0659 100.334 13.9471 99.8961 13.9471C99.4884 13.9471 99.1304 14.0659 98.8719 14.2936C98.6034 14.5213 98.4642 14.838 98.4642 15.2142H96.8433C96.8732 14.4223 97.1615 13.769 97.7283 13.2443C98.2852 12.7197 99.021 12.4524 99.906 12.4524C100.612 12.4524 101.199 12.591 101.666 12.8682C101.666 12.8682 101.676 12.8682 101.686 12.8682C101.686 12.8682 101.676 12.8682 101.666 12.8682C101.736 12.9078 101.815 12.9573 101.885 13.0068C101.895 13.0068 101.905 13.0167 101.915 13.0266C101.915 13.0266 101.895 13.0167 101.885 13.0068C101.954 13.0563 102.014 13.1157 102.084 13.1652C102.094 13.175 102.114 13.1849 102.124 13.1948C102.114 13.1849 102.104 13.175 102.084 13.1652C102.094 13.1652 102.104 13.1849 102.114 13.1948C102.173 13.2443 102.223 13.3037 102.273 13.3631H102.263ZM88.5899 11.2745C88.5899 11.2745 88.5402 11.2745 88.5104 11.2745C88.4308 11.2745 88.3513 11.2745 88.2717 11.2547C88.2717 11.2547 88.2717 11.2547 88.2618 11.2547C88.1822 11.2349 88.1126 11.2151 88.0331 11.1854C88.0331 11.1854 88.0331 11.1854 88.0231 11.1854C87.9535 11.1557 87.8839 11.1161 87.8242 11.0765C87.7646 11.0369 87.7049 10.9874 87.6552 10.928C87.6552 10.928 87.6552 10.9181 87.6452 10.9082C87.6055 10.8687 87.5756 10.8291 87.5558 10.7796C87.5558 10.7796 87.5458 10.7598 87.5359 10.7499C87.516 10.7103 87.4961 10.6608 87.4762 10.6212C87.4762 10.6212 87.4762 10.6014 87.4663 10.5915C87.4663 10.5717 87.4563 10.5618 87.4464 10.542C87.4464 10.542 87.4464 10.5618 87.4464 10.5717C87.4464 10.5717 87.4464 10.5519 87.4464 10.542C87.4364 10.5024 87.4265 10.4628 87.4265 10.4232C87.4265 10.3638 87.4265 10.3044 87.4265 10.2351C87.4265 9.94807 87.5359 9.6907 87.7149 9.49273C87.7149 9.49273 87.7248 9.47293 87.7347 9.47293C87.7646 9.44324 87.8043 9.41354 87.8441 9.38384C87.864 9.37394 87.874 9.35415 87.8938 9.34425C87.9436 9.31455 87.9933 9.28486 88.043 9.26506C88.0529 9.26506 88.0629 9.25516 88.0728 9.24526C88.2021 9.19577 88.3413 9.16607 88.4905 9.16607C88.5004 9.16607 88.5104 9.16607 88.5203 9.16607C88.5402 9.16607 88.5601 9.16607 88.58 9.16607C88.6197 9.16607 88.6595 9.16607 88.6993 9.17597H88.7192C88.7689 9.17597 88.8087 9.19577 88.8485 9.20567C88.9877 9.25516 89.1269 9.34425 89.2363 9.45313C89.2363 9.45313 89.2363 9.45313 89.2462 9.46303C89.276 9.49273 89.3059 9.53232 89.3357 9.57192C89.3357 9.57192 89.3357 9.58182 89.3456 9.59172C89.3755 9.63131 89.3954 9.67091 89.4153 9.7105C89.4153 9.7105 89.4153 9.7204 89.4153 9.7303C89.4351 9.76989 89.455 9.81939 89.4749 9.86888C89.4749 9.86888 89.4749 9.87878 89.4749 9.88868C89.4948 9.93817 89.5047 9.98766 89.5147 10.0372C89.5147 10.057 89.5147 10.0669 89.5147 10.0867C89.5147 10.1163 89.5147 10.1559 89.5246 10.1856C89.5246 10.2054 89.5246 10.2351 89.5246 10.2549C89.5246 10.2846 89.5246 10.3044 89.5246 10.3341C89.5246 10.3638 89.5246 10.3836 89.5246 10.4133C89.5246 10.443 89.5147 10.4727 89.5048 10.5024C89.5048 10.5222 89.5047 10.5321 89.4948 10.5519C89.4849 10.5915 89.465 10.6311 89.455 10.6608C89.455 10.6608 89.455 10.6707 89.455 10.6806C89.4351 10.7202 89.4153 10.7499 89.3954 10.7895C89.3954 10.7895 89.3954 10.7895 89.3954 10.7994C89.3755 10.8291 89.3456 10.8588 89.3258 10.8884C89.3258 10.8884 89.3158 10.8983 89.3059 10.9082C89.286 10.928 89.2562 10.9577 89.2363 10.9775C89.2064 11.0072 89.1766 11.0369 89.1368 11.0666C89.1269 11.0765 89.1169 11.0864 89.097 11.0963C89.107 11.0963 89.1169 11.0765 89.1368 11.0666C89.1169 11.0765 89.0971 11.0963 89.0772 11.1062C89.0473 11.126 89.0274 11.1359 88.9976 11.1557C88.9777 11.1557 88.9578 11.1755 88.9479 11.1854C88.9678 11.1854 88.9777 11.1656 88.9976 11.1557C88.9678 11.1656 88.9479 11.1854 88.9181 11.1953C88.9181 11.1953 88.9081 11.1953 88.8982 11.1953C88.8683 11.2052 88.8385 11.2151 88.7987 11.225C88.8186 11.225 88.8385 11.2151 88.8584 11.2052C88.8385 11.2052 88.8186 11.2151 88.7987 11.225C88.7689 11.225 88.7391 11.2448 88.7092 11.2448C88.6695 11.2448 88.6197 11.2547 88.58 11.2646C88.6098 11.2646 88.6496 11.2646 88.6794 11.2547C88.6496 11.2547 88.6098 11.2547 88.57 11.2646L88.5899 11.2745ZM63.8595 9.56202L61.8011 7.50309L57.6844 11.621L59.7428 13.6799L63.8595 9.56202ZM55.3277 24.5784L44.7574 13.9966L42.699 16.0556L53.2693 26.6373L55.3277 24.5784ZM45.9307 12.8187L50.0376 16.9267L52.0959 14.8677L47.9891 10.7598L45.9307 12.8187ZM51.2209 18.1145L53.2793 20.1734L55.3376 18.1046L53.2793 16.0457L51.2209 18.1145ZM54.4526 21.3514L65.023 31.943L67.0813 29.8841L56.511 19.2925L54.4526 21.3514ZM58.5594 27.8152L56.5011 25.7563L49.1525 33.1111L51.2109 35.17L58.5594 27.8152ZM68.3044 13.9867L60.9559 21.3514L63.0044 23.4103L70.3529 16.0556L68.2945 13.9966L68.3044 13.9867ZM70.3131 26.6373L66.2262 22.5392L64.1678 24.5982L68.2547 28.6962L70.3131 26.6373ZM48.8642 24.5685L46.8058 22.5095L42.6791 26.6373L44.7375 28.6962L48.8642 24.5685ZM72.6996 16.0457L67.3995 21.3514L72.6598 26.6175L65.0329 34.2692L59.7428 28.9734L57.6844 31.0323L62.9646 36.3281L61.7912 37.4962H61.7813L56.511 32.2004L51.2209 37.4962L46.8157 33.0913L52.1059 27.7954L50.0475 25.7365L44.7474 31.0422L40.3423 26.6373L45.6424 21.3316L40.3721 16.0457L48.009 8.40387L59.7726 20.1833L61.831 18.1244L50.0674 6.33504L51.2408 5.16699H51.2507L56.521 10.4628L61.8011 5.16699L66.2063 9.57192L60.9261 14.8677L62.9845 16.9267L68.2746 11.621L72.6996 16.0556V16.0457ZM84.6521 9.55212H86.5415L82.2557 20.609H80.6149L76.3092 9.55212H78.1986L81.1917 17.4216L81.4104 18.164L81.6491 17.4216L84.6422 9.55212H84.6521ZM87.6452 20.6189V12.6207H89.3158V20.6189H87.6452ZM87.4762 10.6608C87.4762 10.6608 87.4961 10.7004 87.506 10.7103C87.506 10.6905 87.4861 10.6707 87.4762 10.6608ZM87.5558 10.7994C87.5558 10.7994 87.5856 10.839 87.5955 10.8489C87.5856 10.8291 87.5657 10.8093 87.5558 10.7994ZM88.0529 11.1854C88.1126 11.2052 88.1623 11.225 88.222 11.2349C88.1623 11.225 88.1027 11.2052 88.0529 11.1854ZM87.7944 11.0468C87.7944 11.0468 87.7049 10.9676 87.6552 10.928C87.695 10.9676 87.7447 11.0072 87.7944 11.0468ZM93.8204 18.9163C93.8204 18.9163 93.8602 18.946 93.8801 18.9658C93.8602 18.946 93.8403 18.9361 93.8204 18.9163ZM92.8161 20.3813C92.6967 20.3021 92.5774 20.2229 92.478 20.1239C92.3785 20.025 92.299 19.9161 92.2194 19.7874C92.2194 19.7874 92.2194 19.7874 92.2194 19.7775C92.1896 19.7181 92.1498 19.6587 92.1299 19.5993C92.1299 19.5993 92.1299 19.5894 92.1299 19.5795C91.9808 19.243 91.9112 18.8272 91.9211 18.3224L91.9509 14.1649H90.5489V12.6207H91.9509L91.9708 10.6608H93.6613L93.6414 12.6207H95.5805V14.1649H93.6215L93.5917 17.9561C93.5917 18.4214 93.6613 18.7183 93.8303 18.9064C93.9994 19.1044 94.2679 19.1935 94.6855 19.1935C95.0137 19.1935 95.312 19.1539 95.5805 19.0648V20.5496C95.2623 20.6684 94.8545 20.7278 94.3474 20.7278C93.9198 20.7278 93.5618 20.6783 93.2536 20.5793C93.184 20.5595 93.1044 20.5298 93.0448 20.5001C93.0448 20.5001 93.0448 20.5001 93.0348 20.5001C92.9652 20.4704 92.9056 20.4407 92.8459 20.4011L92.8161 20.3813ZM94.0392 19.0747C94.0392 19.0747 93.9894 19.0549 93.9695 19.045C93.9894 19.0549 94.0193 19.0648 94.0392 19.0747ZM101.209 17.3028V17.0157L99.2895 17.4315C98.6133 17.5701 98.2752 17.9165 98.2752 18.4412C98.2752 19.0054 98.6829 19.3419 99.3691 19.3419C100.015 19.3419 100.493 19.0846 100.821 18.5698C101.079 18.2036 101.199 17.7878 101.199 17.3028H101.209ZM81.5497 23.0144C82.5639 23.0144 83.3694 23.2915 83.9561 23.836C84.1748 24.0438 84.3538 24.2814 84.503 24.5586C84.503 24.5784 84.5129 24.5883 84.5229 24.6081C84.5626 24.6873 84.6024 24.7664 84.6323 24.8456C84.6323 24.8654 84.6422 24.8852 84.6521 24.8951C84.8013 25.2812 84.8809 25.7167 84.9007 26.2117H83.1009C83.081 25.2119 82.4744 24.5883 81.4999 24.5883C81.0425 24.5883 80.6647 24.7268 80.3962 24.9743C80.1376 25.2317 79.9984 25.5979 79.9984 26.0434C79.9984 26.4888 80.1476 26.8353 80.4459 27.0728C80.7442 27.3005 81.2911 27.5777 82.0866 27.8845C83.2202 28.2706 84.0356 28.7259 84.5229 29.2407C85.0002 29.7257 85.2488 30.3889 85.2488 31.2105C85.2488 32.2202 84.9107 33.0319 84.2544 33.6159C83.5981 34.19 82.7429 34.487 81.6988 34.487C81.1121 34.487 80.5752 34.4078 80.1078 34.2395C79.6504 34.0811 79.2626 33.8436 78.9344 33.5367C78.298 32.9329 77.9599 32.042 77.9301 30.9729H79.71C79.7299 31.6065 79.9189 32.0915 80.257 32.428C80.595 32.7646 81.0823 32.9329 81.7088 32.9329C82.2557 32.9329 82.7032 32.7844 83.0114 32.4973C83.3097 32.2202 83.4688 31.8242 83.4688 31.3491C83.4688 30.5176 82.902 30.0425 81.3011 29.5178C80.257 29.1615 79.4714 28.7259 78.9643 28.2409C78.4671 27.746 78.2185 27.0629 78.2185 26.2018C78.2185 25.2713 78.5168 24.5091 79.1234 23.9251C79.4217 23.6281 79.7796 23.4004 80.1774 23.2519C80.5851 23.1035 81.0425 23.0243 81.5497 23.0243V23.0144ZM83.0214 34.2989C83.0214 34.2989 83.081 34.2791 83.1108 34.2692C83.081 34.2791 83.0512 34.289 83.0214 34.2989ZM83.3594 34.1702C83.3594 34.1702 83.3992 34.1504 83.4191 34.1504C83.3992 34.1504 83.3793 34.1702 83.3594 34.1702ZM88.1424 34.0514C88.0231 33.9722 87.9038 33.8931 87.8143 33.7941C87.7149 33.6951 87.6353 33.5862 87.5558 33.4575C87.5558 33.4575 87.5558 33.4575 87.5558 33.4476C87.5259 33.3882 87.4861 33.3288 87.4663 33.2595C87.4663 33.2595 87.4663 33.2496 87.4663 33.2397C87.3171 32.9032 87.2475 32.4874 87.2574 31.9826L87.2873 27.8251H85.8852V26.2809H87.2873L87.3072 24.321H88.9976L88.9777 26.2809H90.9168V27.8251H88.9578L88.928 31.6163C88.928 32.0816 88.9976 32.3785 89.1667 32.5666C89.3357 32.7646 89.6042 32.8537 90.0218 32.8537C90.35 32.8537 90.6483 32.8141 90.9168 32.725V34.2098C90.6085 34.3286 90.1909 34.388 89.6837 34.388C89.2562 34.388 88.8982 34.3385 88.5899 34.2395C88.5203 34.2197 88.4408 34.19 88.3811 34.1603C88.3811 34.1603 88.3811 34.1603 88.3712 34.1603C88.3015 34.1306 88.2419 34.1009 88.1822 34.0613L88.1424 34.0514ZM89.1567 32.5765C89.1567 32.5765 89.1965 32.6062 89.2164 32.626C89.1965 32.6062 89.1766 32.5963 89.1567 32.5765ZM89.3755 32.7349C89.3755 32.7349 89.3258 32.7151 89.3059 32.7052C89.3258 32.7151 89.3556 32.725 89.3755 32.7349ZM94.059 27.6371C94.2181 27.2114 94.4966 26.8551 94.8744 26.6076C95.0833 26.469 95.312 26.37 95.5705 26.3007C95.5805 26.3007 95.6003 26.3007 95.6103 26.3007C95.8589 26.2413 96.1274 26.2018 96.4058 26.2018V27.8944C95.7495 27.8944 95.2125 28.0726 94.8148 28.429C94.3673 28.8051 94.1386 29.3594 94.1187 30.1216V34.2791H92.4481V26.2809H93.9099L94.0491 27.6371H94.059ZM101.835 30.963V30.676L99.916 31.0917C99.2398 31.2303 98.9017 31.5768 98.9017 32.1014C98.9017 32.6656 99.3094 33.0022 99.9955 33.0022C100.642 33.0022 101.119 32.7448 101.447 32.2301C101.706 31.8638 101.825 31.4481 101.825 30.963H101.835ZM107.831 32.5765C107.831 32.5765 107.871 32.6062 107.891 32.626C107.871 32.6062 107.851 32.5963 107.831 32.5765ZM109.571 34.2098C109.263 34.3286 108.846 34.388 108.338 34.388C107.911 34.388 107.553 34.3385 107.245 34.2395C107.245 34.2395 107.235 34.2395 107.225 34.2395C107.155 34.2197 107.086 34.19 107.026 34.1603C107.026 34.1603 107.016 34.1603 107.006 34.1504C106.946 34.1207 106.887 34.091 106.827 34.0613C106.827 34.0613 106.817 34.0613 106.807 34.0514C106.747 34.0118 106.698 33.9821 106.638 33.9425C106.588 33.903 106.529 33.8535 106.489 33.804C106.439 33.7545 106.399 33.705 106.36 33.6555C106.36 33.6555 106.36 33.6555 106.36 33.6456C106.32 33.5961 106.28 33.5367 106.25 33.4872C106.25 33.4872 106.24 33.4674 106.23 33.4575C106.201 33.408 106.171 33.3486 106.151 33.2892C106.151 33.2793 106.141 33.2595 106.131 33.2496C106.111 33.1902 106.081 33.1407 106.061 33.0715C106.061 33.0715 106.061 33.0517 106.061 33.0418C105.972 32.7448 105.932 32.4082 105.932 32.0123L105.962 27.8548H104.56V26.3106H105.962L105.982 24.3507H107.672L107.652 26.3106H109.591V27.8548H107.632L107.603 31.646C107.603 32.1113 107.672 32.4082 107.841 32.5963C108.01 32.7943 108.279 32.8834 108.696 32.8834C109.025 32.8834 109.323 32.8438 109.591 32.7547V34.2395L109.571 34.2098ZM108.05 32.7349C108.05 32.7349 108 32.7151 107.971 32.6953C107.99 32.7052 108.02 32.7151 108.05 32.7349ZM116.671 33.7644C116.671 33.7644 116.721 33.7248 116.751 33.6951C116.721 33.7149 116.701 33.7446 116.671 33.7644ZM116.433 33.9227C116.433 33.9227 116.502 33.8832 116.532 33.8535C116.502 33.8733 116.473 33.8931 116.433 33.9227ZM115.926 34.1801C115.926 34.1801 115.975 34.1603 116.005 34.1504C115.975 34.1603 115.955 34.1702 115.926 34.1801ZM116.184 34.0613C116.184 34.0613 116.244 34.0217 116.284 34.0118C116.254 34.0316 116.224 34.0514 116.184 34.0613ZM116.89 33.5862C116.89 33.5862 116.93 33.5466 116.95 33.5268C116.93 33.5466 116.91 33.5664 116.89 33.5862ZM112.226 29.5574H116.353C116.353 28.9635 116.154 28.4686 115.796 28.1122C115.438 27.7558 114.941 27.5777 114.364 27.5777C113.788 27.5777 113.271 27.7657 112.893 28.132C112.515 28.4884 112.286 28.9833 112.236 29.5574H112.226ZM121.504 27.8944C121.236 28.1617 121.096 28.5378 121.096 28.9734C121.096 29.3792 121.246 29.7554 121.504 30.0227C121.633 30.1513 121.783 30.2503 121.952 30.3196C121.952 30.3196 121.971 30.3295 121.981 30.3295C122.17 30.3988 122.369 30.4384 122.588 30.4384C123.016 30.4384 123.383 30.2899 123.652 30.0128C123.911 29.7455 124.06 29.3693 124.06 28.9635C124.06 28.0726 123.473 27.4787 122.588 27.4787C122.15 27.4787 121.773 27.6173 121.504 27.8944ZM121.047 34.8631C120.997 34.9819 120.977 35.1205 120.977 35.2789C120.977 35.6748 121.146 35.9817 121.474 36.1896C121.802 36.3974 122.27 36.4964 122.876 36.4964C123.483 36.4964 123.911 36.3875 124.209 36.1797C124.497 35.9718 124.646 35.6451 124.646 35.2195C124.646 34.5662 124.219 34.2494 123.354 34.2494H121.981C121.763 34.2692 121.584 34.3286 121.435 34.4177C121.435 34.4177 121.415 34.4177 121.405 34.4375C121.365 34.4573 121.335 34.487 121.305 34.5167C121.295 34.5266 121.275 34.5365 121.265 34.5563C121.236 34.586 121.216 34.6157 121.196 34.6454C121.186 34.6652 121.166 34.6849 121.156 34.7047C121.136 34.7443 121.116 34.7839 121.096 34.8235C121.096 34.8433 121.077 34.8532 121.067 34.873L121.047 34.8631ZM119.366 31.3491C119.366 31.3491 119.346 31.3887 119.336 31.4085C119.336 31.3887 119.356 31.3689 119.366 31.3491ZM127.888 34.2791V26.2809H129.559V34.2791H127.888ZM127.719 24.321C127.719 24.321 127.739 24.3606 127.749 24.3804C127.749 24.3606 127.729 24.3408 127.719 24.321ZM127.799 24.4596C127.799 24.4596 127.828 24.4992 127.838 24.519C127.828 24.4992 127.809 24.4794 127.799 24.4596ZM128.306 24.8456C128.365 24.8654 128.415 24.8852 128.475 24.8951C128.415 24.8852 128.355 24.8654 128.306 24.8456ZM128.037 24.707C128.037 24.707 127.948 24.6279 127.898 24.5883C127.938 24.6279 127.988 24.6675 128.037 24.707ZM128.793 24.9347C128.793 24.9347 128.892 24.9347 128.932 24.9248C128.882 24.9248 128.833 24.9347 128.793 24.9347ZM137.017 33.9227C137.017 33.9227 137.066 33.8832 137.096 33.8733C137.066 33.8931 137.046 33.9128 137.017 33.9227ZM137.255 33.7644C137.255 33.7644 137.295 33.7347 137.315 33.7149C137.295 33.7347 137.275 33.7545 137.255 33.7644ZM132.8 29.5574H136.927C136.927 28.9635 136.728 28.4686 136.37 28.1122C136.012 27.7558 135.515 27.5777 134.938 27.5777C134.362 27.5777 133.844 27.7657 133.457 28.132C133.079 28.4884 132.85 28.9833 132.8 29.5574ZM136.499 34.1801C136.499 34.1801 136.539 34.1603 136.559 34.1504C136.539 34.1504 136.519 34.1702 136.499 34.1801ZM136.768 34.0613C136.768 34.0613 136.818 34.0316 136.847 34.0217C136.818 34.0316 136.798 34.0514 136.768 34.0613ZM140.537 33.7545C140.02 33.309 139.741 32.6557 139.711 31.8638H141.402C141.402 32.2301 141.541 32.527 141.77 32.725C142.008 32.923 142.346 33.0319 142.754 33.0319C143.043 33.0319 143.281 32.9824 143.47 32.8834C143.47 32.8834 143.48 32.8834 143.49 32.8735C143.54 32.8438 143.589 32.8141 143.639 32.7844C143.639 32.7844 143.649 32.7745 143.659 32.7646C143.848 32.6062 143.957 32.3785 143.957 32.1014C143.957 32.0915 143.957 32.0816 143.957 32.0618C143.957 32.0123 143.957 31.9529 143.947 31.9034C143.947 31.8836 143.947 31.8539 143.937 31.8341C143.928 31.7945 143.918 31.745 143.898 31.7054C143.898 31.6856 143.878 31.6658 143.868 31.646C143.848 31.6064 143.828 31.5768 143.798 31.5471C143.788 31.5273 143.768 31.5075 143.758 31.4976C143.729 31.4679 143.699 31.4382 143.659 31.4085C143.659 31.4085 143.649 31.3887 143.639 31.3887C143.41 31.2105 143.023 31.0818 142.396 30.9432C140.646 30.577 139.9 29.8841 139.9 28.617C139.9 27.9142 140.139 27.3401 140.626 26.8452C141.123 26.3502 141.809 26.1028 142.675 26.1028C143.47 26.1028 144.126 26.3403 144.634 26.7957C145.151 27.251 145.419 27.8647 145.439 28.6269H143.768C143.749 27.9043 143.371 27.5381 142.645 27.5381C142.396 27.5381 142.177 27.5876 142.008 27.6866C142.008 27.6866 142.008 27.6866 141.998 27.6866C141.949 27.7163 141.899 27.746 141.859 27.7855C141.68 27.9439 141.581 28.1716 141.581 28.4587C141.581 29.0328 141.909 29.2704 143.033 29.5178C143.997 29.7059 144.634 29.9831 145.051 30.3592C145.459 30.7354 145.648 31.2303 145.648 31.9133C145.648 32.6854 145.359 33.3189 144.822 33.7644C144.305 34.19 143.579 34.4177 142.724 34.4177C141.809 34.4177 141.054 34.1801 140.527 33.7248L140.537 33.7545ZM105.594 20.4011C105.504 20.3417 105.435 20.2724 105.355 20.1932C105.335 20.1734 105.325 20.1635 105.306 20.1437C105.236 20.0646 105.176 19.9854 105.117 19.8864C105.107 19.8666 105.087 19.8369 105.077 19.8171C105.027 19.728 104.977 19.6191 104.948 19.5201C104.938 19.4904 104.928 19.4607 104.918 19.431C104.878 19.3123 104.858 19.1935 104.828 19.0648C104.828 19.0351 104.818 19.0054 104.808 18.9757C104.788 18.8371 104.779 18.6886 104.779 18.5303C104.779 18.5204 104.779 18.5006 104.779 18.4907V9.06708H106.449V18.1046C106.449 18.5303 106.529 18.7975 106.698 18.9559C106.698 18.9559 106.708 18.9559 106.708 18.9658C106.708 18.9658 106.718 18.9658 106.728 18.9757C106.767 19.0054 106.807 19.0351 106.857 19.0648C106.867 19.0648 106.887 19.0747 106.907 19.0846C106.946 19.1044 106.996 19.1242 107.056 19.1341C107.076 19.1341 107.095 19.1341 107.125 19.144C107.185 19.1539 107.235 19.1638 107.304 19.1737C107.324 19.1737 107.344 19.1737 107.364 19.1737C107.424 19.1737 107.473 19.1737 107.533 19.1737C107.553 19.1737 107.573 19.1737 107.603 19.1737V20.6387C107.603 20.6387 107.205 20.708 106.817 20.708C106.787 20.708 106.747 20.708 106.718 20.708C106.708 20.708 106.688 20.708 106.678 20.708C106.568 20.708 106.449 20.6981 106.35 20.6783C106.33 20.6783 106.31 20.6783 106.29 20.6783C106.171 20.6585 106.071 20.6288 105.962 20.5892C105.952 20.5892 105.932 20.5793 105.912 20.5694C105.813 20.5298 105.713 20.4803 105.624 20.4209C105.614 20.4209 105.594 20.4011 105.584 20.3912L105.594 20.4011Z" fill="#1E1E1E"/>
</g>
<defs>
<clipPath id="clip0_7822_23278">
<rect width="186" height="43" fill="white"/>
</clipPath>
</defs>
</svg>
